G04 #@! TF.GenerationSoftware,KiCad,Pcbnew,(6.0.5)*
G04 #@! TF.CreationDate,2022-05-13T10:55:27+02:00*
G04 #@! TF.ProjectId,ruche,72756368-652e-46b6-9963-61645f706362,rev?*
G04 #@! TF.SameCoordinates,Original*
G04 #@! TF.FileFunction,Legend,Top*
G04 #@! TF.FilePolarity,Positive*
%FSLAX46Y46*%
G04 Gerber Fmt 4.6, Leading zero omitted, Abs format (unit mm)*
G04 Created by KiCad (PCBNEW (6.0.5)) date 2022-05-13 10:55:27*
%MOMM*%
%LPD*%
G01*
G04 APERTURE LIST*
%ADD10C,0.300000*%
%ADD11C,0.100000*%
%ADD12C,0.150000*%
%ADD13C,0.250000*%
%ADD14C,0.200000*%
%ADD15C,0.225000*%
%ADD16C,0.120000*%
%ADD17C,0.010000*%
G04 APERTURE END LIST*
D10*
X110990000Y-165282857D02*
X111204285Y-165354285D01*
X111275714Y-165425714D01*
X111347142Y-165568571D01*
X111347142Y-165782857D01*
X111275714Y-165925714D01*
X111204285Y-165997142D01*
X111061428Y-166068571D01*
X110490000Y-166068571D01*
X110490000Y-164568571D01*
X110990000Y-164568571D01*
X111132857Y-164640000D01*
X111204285Y-164711428D01*
X111275714Y-164854285D01*
X111275714Y-164997142D01*
X111204285Y-165140000D01*
X111132857Y-165211428D01*
X110990000Y-165282857D01*
X110490000Y-165282857D01*
X111847142Y-165068571D02*
X112204285Y-166068571D01*
X112561428Y-165068571D02*
X112204285Y-166068571D01*
X112061428Y-166425714D01*
X111990000Y-166497142D01*
X111847142Y-166568571D01*
X115132857Y-166068571D02*
X114632857Y-165354285D01*
X114275714Y-166068571D02*
X114275714Y-164568571D01*
X114847142Y-164568571D01*
X114990000Y-164640000D01*
X115061428Y-164711428D01*
X115132857Y-164854285D01*
X115132857Y-165068571D01*
X115061428Y-165211428D01*
X114990000Y-165282857D01*
X114847142Y-165354285D01*
X114275714Y-165354285D01*
X116418571Y-166068571D02*
X116418571Y-165282857D01*
X116347142Y-165140000D01*
X116204285Y-165068571D01*
X115918571Y-165068571D01*
X115775714Y-165140000D01*
X116418571Y-165997142D02*
X116275714Y-166068571D01*
X115918571Y-166068571D01*
X115775714Y-165997142D01*
X115704285Y-165854285D01*
X115704285Y-165711428D01*
X115775714Y-165568571D01*
X115918571Y-165497142D01*
X116275714Y-165497142D01*
X116418571Y-165425714D01*
X116918571Y-165068571D02*
X117490000Y-165068571D01*
X117132857Y-164568571D02*
X117132857Y-165854285D01*
X117204285Y-165997142D01*
X117347142Y-166068571D01*
X117490000Y-166068571D01*
X118632857Y-166068571D02*
X118632857Y-165282857D01*
X118561428Y-165140000D01*
X118418571Y-165068571D01*
X118132857Y-165068571D01*
X117990000Y-165140000D01*
X118632857Y-165997142D02*
X118490000Y-166068571D01*
X118132857Y-166068571D01*
X117990000Y-165997142D01*
X117918571Y-165854285D01*
X117918571Y-165711428D01*
X117990000Y-165568571D01*
X118132857Y-165497142D01*
X118490000Y-165497142D01*
X118632857Y-165425714D01*
X119347142Y-166068571D02*
X119347142Y-165068571D01*
X119347142Y-165211428D02*
X119418571Y-165140000D01*
X119561428Y-165068571D01*
X119775714Y-165068571D01*
X119918571Y-165140000D01*
X119990000Y-165282857D01*
X119990000Y-166068571D01*
X119990000Y-165282857D02*
X120061428Y-165140000D01*
X120204285Y-165068571D01*
X120418571Y-165068571D01*
X120561428Y-165140000D01*
X120632857Y-165282857D01*
X120632857Y-166068571D01*
X121990000Y-165068571D02*
X121990000Y-166068571D01*
X121347142Y-165068571D02*
X121347142Y-165854285D01*
X121418571Y-165997142D01*
X121561428Y-166068571D01*
X121775714Y-166068571D01*
X121918571Y-165997142D01*
X121990000Y-165925714D01*
X122632857Y-165997142D02*
X122775714Y-166068571D01*
X123061428Y-166068571D01*
X123204285Y-165997142D01*
X123275714Y-165854285D01*
X123275714Y-165782857D01*
X123204285Y-165640000D01*
X123061428Y-165568571D01*
X122847142Y-165568571D01*
X122704285Y-165497142D01*
X122632857Y-165354285D01*
X122632857Y-165282857D01*
X122704285Y-165140000D01*
X122847142Y-165068571D01*
X123061428Y-165068571D01*
X123204285Y-165140000D01*
X124490000Y-165997142D02*
X124347142Y-166068571D01*
X124061428Y-166068571D01*
X123918571Y-165997142D01*
X123847142Y-165854285D01*
X123847142Y-165282857D01*
X123918571Y-165140000D01*
X124061428Y-165068571D01*
X124347142Y-165068571D01*
X124490000Y-165140000D01*
X124561428Y-165282857D01*
X124561428Y-165425714D01*
X123847142Y-165568571D01*
D11*
X151145238Y-139904142D02*
X151754761Y-139904142D01*
X150611904Y-141077857D02*
X150726190Y-141115952D01*
X150764285Y-141154047D01*
X150802380Y-141230238D01*
X150802380Y-141344523D01*
X150764285Y-141420714D01*
X150726190Y-141458809D01*
X150650000Y-141496904D01*
X150345238Y-141496904D01*
X150345238Y-140696904D01*
X150611904Y-140696904D01*
X150688095Y-140735000D01*
X150726190Y-140773095D01*
X150764285Y-140849285D01*
X150764285Y-140925476D01*
X150726190Y-141001666D01*
X150688095Y-141039761D01*
X150611904Y-141077857D01*
X150345238Y-141077857D01*
X151488095Y-141496904D02*
X151488095Y-141077857D01*
X151450000Y-141001666D01*
X151373809Y-140963571D01*
X151221428Y-140963571D01*
X151145238Y-141001666D01*
X151488095Y-141458809D02*
X151411904Y-141496904D01*
X151221428Y-141496904D01*
X151145238Y-141458809D01*
X151107142Y-141382619D01*
X151107142Y-141306428D01*
X151145238Y-141230238D01*
X151221428Y-141192142D01*
X151411904Y-141192142D01*
X151488095Y-141154047D01*
X151754761Y-140963571D02*
X152059523Y-140963571D01*
X151869047Y-140696904D02*
X151869047Y-141382619D01*
X151907142Y-141458809D01*
X151983333Y-141496904D01*
X152059523Y-141496904D01*
X151145238Y-142480142D02*
X151754761Y-142480142D01*
X151450000Y-142784904D02*
X151450000Y-142175380D01*
D12*
X99090952Y-138013809D02*
X99205238Y-138051904D01*
X99395714Y-138051904D01*
X99471904Y-138013809D01*
X99510000Y-137975714D01*
X99548095Y-137899523D01*
X99548095Y-137823333D01*
X99510000Y-137747142D01*
X99471904Y-137709047D01*
X99395714Y-137670952D01*
X99243333Y-137632857D01*
X99167142Y-137594761D01*
X99129047Y-137556666D01*
X99090952Y-137480476D01*
X99090952Y-137404285D01*
X99129047Y-137328095D01*
X99167142Y-137290000D01*
X99243333Y-137251904D01*
X99433809Y-137251904D01*
X99548095Y-137290000D01*
X100005238Y-138051904D02*
X99929047Y-138013809D01*
X99890952Y-137975714D01*
X99852857Y-137899523D01*
X99852857Y-137670952D01*
X99890952Y-137594761D01*
X99929047Y-137556666D01*
X100005238Y-137518571D01*
X100119523Y-137518571D01*
X100195714Y-137556666D01*
X100233809Y-137594761D01*
X100271904Y-137670952D01*
X100271904Y-137899523D01*
X100233809Y-137975714D01*
X100195714Y-138013809D01*
X100119523Y-138051904D01*
X100005238Y-138051904D01*
X100729047Y-138051904D02*
X100652857Y-138013809D01*
X100614761Y-137937619D01*
X100614761Y-137251904D01*
X101376666Y-138051904D02*
X101376666Y-137632857D01*
X101338571Y-137556666D01*
X101262380Y-137518571D01*
X101110000Y-137518571D01*
X101033809Y-137556666D01*
X101376666Y-138013809D02*
X101300476Y-138051904D01*
X101110000Y-138051904D01*
X101033809Y-138013809D01*
X100995714Y-137937619D01*
X100995714Y-137861428D01*
X101033809Y-137785238D01*
X101110000Y-137747142D01*
X101300476Y-137747142D01*
X101376666Y-137709047D01*
X101757619Y-138051904D02*
X101757619Y-137518571D01*
X101757619Y-137670952D02*
X101795714Y-137594761D01*
X101833809Y-137556666D01*
X101910000Y-137518571D01*
X101986190Y-137518571D01*
X102786190Y-137518571D02*
X102938571Y-138051904D01*
X103090952Y-137670952D01*
X103243333Y-138051904D01*
X103395714Y-137518571D01*
X104043333Y-138051904D02*
X104043333Y-137632857D01*
X104005238Y-137556666D01*
X103929047Y-137518571D01*
X103776666Y-137518571D01*
X103700476Y-137556666D01*
X104043333Y-138013809D02*
X103967142Y-138051904D01*
X103776666Y-138051904D01*
X103700476Y-138013809D01*
X103662380Y-137937619D01*
X103662380Y-137861428D01*
X103700476Y-137785238D01*
X103776666Y-137747142D01*
X103967142Y-137747142D01*
X104043333Y-137709047D01*
X104424285Y-138051904D02*
X104424285Y-137518571D01*
X104424285Y-137670952D02*
X104462380Y-137594761D01*
X104500476Y-137556666D01*
X104576666Y-137518571D01*
X104652857Y-137518571D01*
X104919523Y-137518571D02*
X104919523Y-138051904D01*
X104919523Y-137594761D02*
X104957619Y-137556666D01*
X105033809Y-137518571D01*
X105148095Y-137518571D01*
X105224285Y-137556666D01*
X105262380Y-137632857D01*
X105262380Y-138051904D01*
X105643333Y-138051904D02*
X105643333Y-137518571D01*
X105643333Y-137251904D02*
X105605238Y-137290000D01*
X105643333Y-137328095D01*
X105681428Y-137290000D01*
X105643333Y-137251904D01*
X105643333Y-137328095D01*
X106024285Y-137518571D02*
X106024285Y-138051904D01*
X106024285Y-137594761D02*
X106062380Y-137556666D01*
X106138571Y-137518571D01*
X106252857Y-137518571D01*
X106329047Y-137556666D01*
X106367142Y-137632857D01*
X106367142Y-138051904D01*
X107090952Y-137518571D02*
X107090952Y-138166190D01*
X107052857Y-138242380D01*
X107014761Y-138280476D01*
X106938571Y-138318571D01*
X106824285Y-138318571D01*
X106748095Y-138280476D01*
X107090952Y-138013809D02*
X107014761Y-138051904D01*
X106862380Y-138051904D01*
X106786190Y-138013809D01*
X106748095Y-137975714D01*
X106710000Y-137899523D01*
X106710000Y-137670952D01*
X106748095Y-137594761D01*
X106786190Y-137556666D01*
X106862380Y-137518571D01*
X107014761Y-137518571D01*
X107090952Y-137556666D01*
D13*
X149684761Y-100147142D02*
X149637142Y-100194761D01*
X149494285Y-100242380D01*
X149399047Y-100242380D01*
X149256190Y-100194761D01*
X149160952Y-100099523D01*
X149113333Y-100004285D01*
X149065714Y-99813809D01*
X149065714Y-99670952D01*
X149113333Y-99480476D01*
X149160952Y-99385238D01*
X149256190Y-99290000D01*
X149399047Y-99242380D01*
X149494285Y-99242380D01*
X149637142Y-99290000D01*
X149684761Y-99337619D01*
X150589523Y-100242380D02*
X150113333Y-100242380D01*
X150113333Y-99242380D01*
X150922857Y-100242380D02*
X150922857Y-99242380D01*
X151494285Y-100242380D02*
X151065714Y-99670952D01*
X151494285Y-99242380D02*
X150922857Y-99813809D01*
X102588571Y-80947380D02*
X102588571Y-79947380D01*
X102826666Y-79947380D01*
X102969523Y-79995000D01*
X103064761Y-80090238D01*
X103112380Y-80185476D01*
X103160000Y-80375952D01*
X103160000Y-80518809D01*
X103112380Y-80709285D01*
X103064761Y-80804523D01*
X102969523Y-80899761D01*
X102826666Y-80947380D01*
X102588571Y-80947380D01*
X103540952Y-80661666D02*
X104017142Y-80661666D01*
X103445714Y-80947380D02*
X103779047Y-79947380D01*
X104112380Y-80947380D01*
X104302857Y-79947380D02*
X104874285Y-79947380D01*
X104588571Y-80947380D02*
X104588571Y-79947380D01*
X148195714Y-117351428D02*
X148957619Y-117351428D01*
X148576666Y-117732380D02*
X148576666Y-116970476D01*
X149338571Y-116732380D02*
X149957619Y-116732380D01*
X149624285Y-117113333D01*
X149767142Y-117113333D01*
X149862380Y-117160952D01*
X149910000Y-117208571D01*
X149957619Y-117303809D01*
X149957619Y-117541904D01*
X149910000Y-117637142D01*
X149862380Y-117684761D01*
X149767142Y-117732380D01*
X149481428Y-117732380D01*
X149386190Y-117684761D01*
X149338571Y-117637142D01*
X150290952Y-117065714D02*
X150529047Y-117732380D01*
X150767142Y-117065714D01*
X151052857Y-116732380D02*
X151671904Y-116732380D01*
X151338571Y-117113333D01*
X151481428Y-117113333D01*
X151576666Y-117160952D01*
X151624285Y-117208571D01*
X151671904Y-117303809D01*
X151671904Y-117541904D01*
X151624285Y-117637142D01*
X151576666Y-117684761D01*
X151481428Y-117732380D01*
X151195714Y-117732380D01*
X151100476Y-117684761D01*
X151052857Y-117637142D01*
X149677142Y-90680000D02*
X149581904Y-90632380D01*
X149439047Y-90632380D01*
X149296190Y-90680000D01*
X149200952Y-90775238D01*
X149153333Y-90870476D01*
X149105714Y-91060952D01*
X149105714Y-91203809D01*
X149153333Y-91394285D01*
X149200952Y-91489523D01*
X149296190Y-91584761D01*
X149439047Y-91632380D01*
X149534285Y-91632380D01*
X149677142Y-91584761D01*
X149724761Y-91537142D01*
X149724761Y-91203809D01*
X149534285Y-91203809D01*
X150153333Y-90965714D02*
X150153333Y-91632380D01*
X150153333Y-91060952D02*
X150200952Y-91013333D01*
X150296190Y-90965714D01*
X150439047Y-90965714D01*
X150534285Y-91013333D01*
X150581904Y-91108571D01*
X150581904Y-91632380D01*
X151486666Y-91632380D02*
X151486666Y-90632380D01*
X151486666Y-91584761D02*
X151391428Y-91632380D01*
X151200952Y-91632380D01*
X151105714Y-91584761D01*
X151058095Y-91537142D01*
X151010476Y-91441904D01*
X151010476Y-91156190D01*
X151058095Y-91060952D01*
X151105714Y-91013333D01*
X151200952Y-90965714D01*
X151391428Y-90965714D01*
X151486666Y-91013333D01*
X102165714Y-82541428D02*
X102927619Y-82541428D01*
X102546666Y-82922380D02*
X102546666Y-82160476D01*
X103308571Y-81922380D02*
X103927619Y-81922380D01*
X103594285Y-82303333D01*
X103737142Y-82303333D01*
X103832380Y-82350952D01*
X103880000Y-82398571D01*
X103927619Y-82493809D01*
X103927619Y-82731904D01*
X103880000Y-82827142D01*
X103832380Y-82874761D01*
X103737142Y-82922380D01*
X103451428Y-82922380D01*
X103356190Y-82874761D01*
X103308571Y-82827142D01*
X104260952Y-82255714D02*
X104499047Y-82922380D01*
X104737142Y-82255714D01*
X105022857Y-81922380D02*
X105641904Y-81922380D01*
X105308571Y-82303333D01*
X105451428Y-82303333D01*
X105546666Y-82350952D01*
X105594285Y-82398571D01*
X105641904Y-82493809D01*
X105641904Y-82731904D01*
X105594285Y-82827142D01*
X105546666Y-82874761D01*
X105451428Y-82922380D01*
X105165714Y-82922380D01*
X105070476Y-82874761D01*
X105022857Y-82827142D01*
X149677142Y-111880000D02*
X149581904Y-111832380D01*
X149439047Y-111832380D01*
X149296190Y-111880000D01*
X149200952Y-111975238D01*
X149153333Y-112070476D01*
X149105714Y-112260952D01*
X149105714Y-112403809D01*
X149153333Y-112594285D01*
X149200952Y-112689523D01*
X149296190Y-112784761D01*
X149439047Y-112832380D01*
X149534285Y-112832380D01*
X149677142Y-112784761D01*
X149724761Y-112737142D01*
X149724761Y-112403809D01*
X149534285Y-112403809D01*
X150153333Y-112165714D02*
X150153333Y-112832380D01*
X150153333Y-112260952D02*
X150200952Y-112213333D01*
X150296190Y-112165714D01*
X150439047Y-112165714D01*
X150534285Y-112213333D01*
X150581904Y-112308571D01*
X150581904Y-112832380D01*
X151486666Y-112832380D02*
X151486666Y-111832380D01*
X151486666Y-112784761D02*
X151391428Y-112832380D01*
X151200952Y-112832380D01*
X151105714Y-112784761D01*
X151058095Y-112737142D01*
X151010476Y-112641904D01*
X151010476Y-112356190D01*
X151058095Y-112260952D01*
X151105714Y-112213333D01*
X151200952Y-112165714D01*
X151391428Y-112165714D01*
X151486666Y-112213333D01*
D11*
X151045238Y-146429142D02*
X151654761Y-146429142D01*
X150511904Y-147602857D02*
X150626190Y-147640952D01*
X150664285Y-147679047D01*
X150702380Y-147755238D01*
X150702380Y-147869523D01*
X150664285Y-147945714D01*
X150626190Y-147983809D01*
X150550000Y-148021904D01*
X150245238Y-148021904D01*
X150245238Y-147221904D01*
X150511904Y-147221904D01*
X150588095Y-147260000D01*
X150626190Y-147298095D01*
X150664285Y-147374285D01*
X150664285Y-147450476D01*
X150626190Y-147526666D01*
X150588095Y-147564761D01*
X150511904Y-147602857D01*
X150245238Y-147602857D01*
X151388095Y-148021904D02*
X151388095Y-147602857D01*
X151350000Y-147526666D01*
X151273809Y-147488571D01*
X151121428Y-147488571D01*
X151045238Y-147526666D01*
X151388095Y-147983809D02*
X151311904Y-148021904D01*
X151121428Y-148021904D01*
X151045238Y-147983809D01*
X151007142Y-147907619D01*
X151007142Y-147831428D01*
X151045238Y-147755238D01*
X151121428Y-147717142D01*
X151311904Y-147717142D01*
X151388095Y-147679047D01*
X151654761Y-147488571D02*
X151959523Y-147488571D01*
X151769047Y-147221904D02*
X151769047Y-147907619D01*
X151807142Y-147983809D01*
X151883333Y-148021904D01*
X151959523Y-148021904D01*
X151045238Y-149005142D02*
X151654761Y-149005142D01*
X151350000Y-149309904D02*
X151350000Y-148700380D01*
D10*
X106911428Y-71466071D02*
X107768571Y-71466071D01*
X107340000Y-72966071D02*
X107340000Y-71466071D01*
X107340000Y-75381071D02*
X107340000Y-73881071D01*
X107804285Y-77796071D02*
X107090000Y-77796071D01*
X107090000Y-76296071D01*
X106911428Y-78711071D02*
X107768571Y-78711071D01*
X107340000Y-80211071D02*
X107340000Y-78711071D01*
D14*
X116032857Y-72017904D02*
X116490000Y-72017904D01*
X116261428Y-72817904D02*
X116261428Y-72017904D01*
X116756666Y-72817904D02*
X116756666Y-72284571D01*
X116756666Y-72017904D02*
X116718571Y-72056000D01*
X116756666Y-72094095D01*
X116794761Y-72056000D01*
X116756666Y-72017904D01*
X116756666Y-72094095D01*
X117251904Y-72817904D02*
X117175714Y-72779809D01*
X117137619Y-72703619D01*
X117137619Y-72017904D01*
X117442380Y-72284571D02*
X117747142Y-72284571D01*
X117556666Y-72017904D02*
X117556666Y-72703619D01*
X117594761Y-72779809D01*
X117670952Y-72817904D01*
X117747142Y-72817904D01*
X115709047Y-74105904D02*
X115709047Y-73686857D01*
X115670952Y-73610666D01*
X115594761Y-73572571D01*
X115442380Y-73572571D01*
X115366190Y-73610666D01*
X115709047Y-74067809D02*
X115632857Y-74105904D01*
X115442380Y-74105904D01*
X115366190Y-74067809D01*
X115328095Y-73991619D01*
X115328095Y-73915428D01*
X115366190Y-73839238D01*
X115442380Y-73801142D01*
X115632857Y-73801142D01*
X115709047Y-73763047D01*
X116204285Y-74105904D02*
X116128095Y-74067809D01*
X116090000Y-73991619D01*
X116090000Y-73305904D01*
X116851904Y-74105904D02*
X116851904Y-73686857D01*
X116813809Y-73610666D01*
X116737619Y-73572571D01*
X116585238Y-73572571D01*
X116509047Y-73610666D01*
X116851904Y-74067809D02*
X116775714Y-74105904D01*
X116585238Y-74105904D01*
X116509047Y-74067809D01*
X116470952Y-73991619D01*
X116470952Y-73915428D01*
X116509047Y-73839238D01*
X116585238Y-73801142D01*
X116775714Y-73801142D01*
X116851904Y-73763047D01*
X117232857Y-74105904D02*
X117232857Y-73572571D01*
X117232857Y-73724952D02*
X117270952Y-73648761D01*
X117309047Y-73610666D01*
X117385238Y-73572571D01*
X117461428Y-73572571D01*
X117728095Y-74105904D02*
X117728095Y-73572571D01*
X117728095Y-73648761D02*
X117766190Y-73610666D01*
X117842380Y-73572571D01*
X117956666Y-73572571D01*
X118032857Y-73610666D01*
X118070952Y-73686857D01*
X118070952Y-74105904D01*
X118070952Y-73686857D02*
X118109047Y-73610666D01*
X118185238Y-73572571D01*
X118299523Y-73572571D01*
X118375714Y-73610666D01*
X118413809Y-73686857D01*
X118413809Y-74105904D01*
D13*
X149178571Y-98107380D02*
X149178571Y-97107380D01*
X149416666Y-97107380D01*
X149559523Y-97155000D01*
X149654761Y-97250238D01*
X149702380Y-97345476D01*
X149750000Y-97535952D01*
X149750000Y-97678809D01*
X149702380Y-97869285D01*
X149654761Y-97964523D01*
X149559523Y-98059761D01*
X149416666Y-98107380D01*
X149178571Y-98107380D01*
X150130952Y-97821666D02*
X150607142Y-97821666D01*
X150035714Y-98107380D02*
X150369047Y-97107380D01*
X150702380Y-98107380D01*
X150892857Y-97107380D02*
X151464285Y-97107380D01*
X151178571Y-98107380D02*
X151178571Y-97107380D01*
X149248571Y-87517380D02*
X149248571Y-86517380D01*
X149486666Y-86517380D01*
X149629523Y-86565000D01*
X149724761Y-86660238D01*
X149772380Y-86755476D01*
X149820000Y-86945952D01*
X149820000Y-87088809D01*
X149772380Y-87279285D01*
X149724761Y-87374523D01*
X149629523Y-87469761D01*
X149486666Y-87517380D01*
X149248571Y-87517380D01*
X150200952Y-87231666D02*
X150677142Y-87231666D01*
X150105714Y-87517380D02*
X150439047Y-86517380D01*
X150772380Y-87517380D01*
X150962857Y-86517380D02*
X151534285Y-86517380D01*
X151248571Y-87517380D02*
X151248571Y-86517380D01*
D12*
X135336666Y-165863809D02*
X135450952Y-165901904D01*
X135641428Y-165901904D01*
X135717619Y-165863809D01*
X135755714Y-165825714D01*
X135793809Y-165749523D01*
X135793809Y-165673333D01*
X135755714Y-165597142D01*
X135717619Y-165559047D01*
X135641428Y-165520952D01*
X135489047Y-165482857D01*
X135412857Y-165444761D01*
X135374761Y-165406666D01*
X135336666Y-165330476D01*
X135336666Y-165254285D01*
X135374761Y-165178095D01*
X135412857Y-165140000D01*
X135489047Y-165101904D01*
X135679523Y-165101904D01*
X135793809Y-165140000D01*
X136250952Y-165901904D02*
X136174761Y-165863809D01*
X136136666Y-165825714D01*
X136098571Y-165749523D01*
X136098571Y-165520952D01*
X136136666Y-165444761D01*
X136174761Y-165406666D01*
X136250952Y-165368571D01*
X136365238Y-165368571D01*
X136441428Y-165406666D01*
X136479523Y-165444761D01*
X136517619Y-165520952D01*
X136517619Y-165749523D01*
X136479523Y-165825714D01*
X136441428Y-165863809D01*
X136365238Y-165901904D01*
X136250952Y-165901904D01*
X136974761Y-165901904D02*
X136898571Y-165863809D01*
X136860476Y-165787619D01*
X136860476Y-165101904D01*
X137622380Y-165901904D02*
X137622380Y-165482857D01*
X137584285Y-165406666D01*
X137508095Y-165368571D01*
X137355714Y-165368571D01*
X137279523Y-165406666D01*
X137622380Y-165863809D02*
X137546190Y-165901904D01*
X137355714Y-165901904D01*
X137279523Y-165863809D01*
X137241428Y-165787619D01*
X137241428Y-165711428D01*
X137279523Y-165635238D01*
X137355714Y-165597142D01*
X137546190Y-165597142D01*
X137622380Y-165559047D01*
X138003333Y-165901904D02*
X138003333Y-165368571D01*
X138003333Y-165520952D02*
X138041428Y-165444761D01*
X138079523Y-165406666D01*
X138155714Y-165368571D01*
X138231904Y-165368571D01*
X139450952Y-165863809D02*
X139374761Y-165901904D01*
X139222380Y-165901904D01*
X139146190Y-165863809D01*
X139108095Y-165825714D01*
X139070000Y-165749523D01*
X139070000Y-165520952D01*
X139108095Y-165444761D01*
X139146190Y-165406666D01*
X139222380Y-165368571D01*
X139374761Y-165368571D01*
X139450952Y-165406666D01*
X139793809Y-165901904D02*
X139793809Y-165101904D01*
X140136666Y-165901904D02*
X140136666Y-165482857D01*
X140098571Y-165406666D01*
X140022380Y-165368571D01*
X139908095Y-165368571D01*
X139831904Y-165406666D01*
X139793809Y-165444761D01*
X140860476Y-165901904D02*
X140860476Y-165482857D01*
X140822380Y-165406666D01*
X140746190Y-165368571D01*
X140593809Y-165368571D01*
X140517619Y-165406666D01*
X140860476Y-165863809D02*
X140784285Y-165901904D01*
X140593809Y-165901904D01*
X140517619Y-165863809D01*
X140479523Y-165787619D01*
X140479523Y-165711428D01*
X140517619Y-165635238D01*
X140593809Y-165597142D01*
X140784285Y-165597142D01*
X140860476Y-165559047D01*
X141241428Y-165901904D02*
X141241428Y-165368571D01*
X141241428Y-165520952D02*
X141279523Y-165444761D01*
X141317619Y-165406666D01*
X141393809Y-165368571D01*
X141470000Y-165368571D01*
X142079523Y-165368571D02*
X142079523Y-166016190D01*
X142041428Y-166092380D01*
X142003333Y-166130476D01*
X141927142Y-166168571D01*
X141812857Y-166168571D01*
X141736666Y-166130476D01*
X142079523Y-165863809D02*
X142003333Y-165901904D01*
X141850952Y-165901904D01*
X141774761Y-165863809D01*
X141736666Y-165825714D01*
X141698571Y-165749523D01*
X141698571Y-165520952D01*
X141736666Y-165444761D01*
X141774761Y-165406666D01*
X141850952Y-165368571D01*
X142003333Y-165368571D01*
X142079523Y-165406666D01*
X142765238Y-165863809D02*
X142689047Y-165901904D01*
X142536666Y-165901904D01*
X142460476Y-165863809D01*
X142422380Y-165787619D01*
X142422380Y-165482857D01*
X142460476Y-165406666D01*
X142536666Y-165368571D01*
X142689047Y-165368571D01*
X142765238Y-165406666D01*
X142803333Y-165482857D01*
X142803333Y-165559047D01*
X142422380Y-165635238D01*
D13*
X149607142Y-101270000D02*
X149511904Y-101222380D01*
X149369047Y-101222380D01*
X149226190Y-101270000D01*
X149130952Y-101365238D01*
X149083333Y-101460476D01*
X149035714Y-101650952D01*
X149035714Y-101793809D01*
X149083333Y-101984285D01*
X149130952Y-102079523D01*
X149226190Y-102174761D01*
X149369047Y-102222380D01*
X149464285Y-102222380D01*
X149607142Y-102174761D01*
X149654761Y-102127142D01*
X149654761Y-101793809D01*
X149464285Y-101793809D01*
X150083333Y-101555714D02*
X150083333Y-102222380D01*
X150083333Y-101650952D02*
X150130952Y-101603333D01*
X150226190Y-101555714D01*
X150369047Y-101555714D01*
X150464285Y-101603333D01*
X150511904Y-101698571D01*
X150511904Y-102222380D01*
X151416666Y-102222380D02*
X151416666Y-101222380D01*
X151416666Y-102174761D02*
X151321428Y-102222380D01*
X151130952Y-102222380D01*
X151035714Y-102174761D01*
X150988095Y-102127142D01*
X150940476Y-102031904D01*
X150940476Y-101746190D01*
X150988095Y-101650952D01*
X151035714Y-101603333D01*
X151130952Y-101555714D01*
X151321428Y-101555714D01*
X151416666Y-101603333D01*
X102568571Y-98187380D02*
X102568571Y-97187380D01*
X102806666Y-97187380D01*
X102949523Y-97235000D01*
X103044761Y-97330238D01*
X103092380Y-97425476D01*
X103140000Y-97615952D01*
X103140000Y-97758809D01*
X103092380Y-97949285D01*
X103044761Y-98044523D01*
X102949523Y-98139761D01*
X102806666Y-98187380D01*
X102568571Y-98187380D01*
X103520952Y-97901666D02*
X103997142Y-97901666D01*
X103425714Y-98187380D02*
X103759047Y-97187380D01*
X104092380Y-98187380D01*
X104282857Y-97187380D02*
X104854285Y-97187380D01*
X104568571Y-98187380D02*
X104568571Y-97187380D01*
X149248571Y-108717380D02*
X149248571Y-107717380D01*
X149486666Y-107717380D01*
X149629523Y-107765000D01*
X149724761Y-107860238D01*
X149772380Y-107955476D01*
X149820000Y-108145952D01*
X149820000Y-108288809D01*
X149772380Y-108479285D01*
X149724761Y-108574523D01*
X149629523Y-108669761D01*
X149486666Y-108717380D01*
X149248571Y-108717380D01*
X150200952Y-108431666D02*
X150677142Y-108431666D01*
X150105714Y-108717380D02*
X150439047Y-107717380D01*
X150772380Y-108717380D01*
X150962857Y-107717380D02*
X151534285Y-107717380D01*
X151248571Y-108717380D02*
X151248571Y-107717380D01*
D10*
X107325714Y-107538571D02*
X107325714Y-106038571D01*
X107968571Y-106181428D02*
X108040000Y-106110000D01*
X108182857Y-106038571D01*
X108540000Y-106038571D01*
X108682857Y-106110000D01*
X108754285Y-106181428D01*
X108825714Y-106324285D01*
X108825714Y-106467142D01*
X108754285Y-106681428D01*
X107897142Y-107538571D01*
X108825714Y-107538571D01*
X110325714Y-107395714D02*
X110254285Y-107467142D01*
X110040000Y-107538571D01*
X109897142Y-107538571D01*
X109682857Y-107467142D01*
X109540000Y-107324285D01*
X109468571Y-107181428D01*
X109397142Y-106895714D01*
X109397142Y-106681428D01*
X109468571Y-106395714D01*
X109540000Y-106252857D01*
X109682857Y-106110000D01*
X109897142Y-106038571D01*
X110040000Y-106038571D01*
X110254285Y-106110000D01*
X110325714Y-106181428D01*
D13*
X103549523Y-108559761D02*
X103692380Y-108607380D01*
X103930476Y-108607380D01*
X104025714Y-108559761D01*
X104073333Y-108512142D01*
X104120952Y-108416904D01*
X104120952Y-108321666D01*
X104073333Y-108226428D01*
X104025714Y-108178809D01*
X103930476Y-108131190D01*
X103740000Y-108083571D01*
X103644761Y-108035952D01*
X103597142Y-107988333D01*
X103549523Y-107893095D01*
X103549523Y-107797857D01*
X103597142Y-107702619D01*
X103644761Y-107655000D01*
X103740000Y-107607380D01*
X103978095Y-107607380D01*
X104120952Y-107655000D01*
X105120952Y-108512142D02*
X105073333Y-108559761D01*
X104930476Y-108607380D01*
X104835238Y-108607380D01*
X104692380Y-108559761D01*
X104597142Y-108464523D01*
X104549523Y-108369285D01*
X104501904Y-108178809D01*
X104501904Y-108035952D01*
X104549523Y-107845476D01*
X104597142Y-107750238D01*
X104692380Y-107655000D01*
X104835238Y-107607380D01*
X104930476Y-107607380D01*
X105073333Y-107655000D01*
X105120952Y-107702619D01*
X106025714Y-108607380D02*
X105549523Y-108607380D01*
X105549523Y-107607380D01*
X103107142Y-95140000D02*
X103011904Y-95092380D01*
X102869047Y-95092380D01*
X102726190Y-95140000D01*
X102630952Y-95235238D01*
X102583333Y-95330476D01*
X102535714Y-95520952D01*
X102535714Y-95663809D01*
X102583333Y-95854285D01*
X102630952Y-95949523D01*
X102726190Y-96044761D01*
X102869047Y-96092380D01*
X102964285Y-96092380D01*
X103107142Y-96044761D01*
X103154761Y-95997142D01*
X103154761Y-95663809D01*
X102964285Y-95663809D01*
X103583333Y-95425714D02*
X103583333Y-96092380D01*
X103583333Y-95520952D02*
X103630952Y-95473333D01*
X103726190Y-95425714D01*
X103869047Y-95425714D01*
X103964285Y-95473333D01*
X104011904Y-95568571D01*
X104011904Y-96092380D01*
X104916666Y-96092380D02*
X104916666Y-95092380D01*
X104916666Y-96044761D02*
X104821428Y-96092380D01*
X104630952Y-96092380D01*
X104535714Y-96044761D01*
X104488095Y-95997142D01*
X104440476Y-95901904D01*
X104440476Y-95616190D01*
X104488095Y-95520952D01*
X104535714Y-95473333D01*
X104630952Y-95425714D01*
X104821428Y-95425714D01*
X104916666Y-95473333D01*
X146319523Y-131906666D02*
X146795714Y-131906666D01*
X146224285Y-132192380D02*
X146557619Y-131192380D01*
X146890952Y-132192380D01*
X147414761Y-131192380D02*
X147510000Y-131192380D01*
X147605238Y-131240000D01*
X147652857Y-131287619D01*
X147700476Y-131382857D01*
X147748095Y-131573333D01*
X147748095Y-131811428D01*
X147700476Y-132001904D01*
X147652857Y-132097142D01*
X147605238Y-132144761D01*
X147510000Y-132192380D01*
X147414761Y-132192380D01*
X147319523Y-132144761D01*
X147271904Y-132097142D01*
X147224285Y-132001904D01*
X147176666Y-131811428D01*
X147176666Y-131573333D01*
X147224285Y-131382857D01*
X147271904Y-131287619D01*
X147319523Y-131240000D01*
X147414761Y-131192380D01*
X148890952Y-131144761D02*
X148033809Y-132430476D01*
X149224285Y-132192380D02*
X149224285Y-131192380D01*
X149462380Y-131192380D01*
X149605238Y-131240000D01*
X149700476Y-131335238D01*
X149748095Y-131430476D01*
X149795714Y-131620952D01*
X149795714Y-131763809D01*
X149748095Y-131954285D01*
X149700476Y-132049523D01*
X149605238Y-132144761D01*
X149462380Y-132192380D01*
X149224285Y-132192380D01*
X150748095Y-132192380D02*
X150176666Y-132192380D01*
X150462380Y-132192380D02*
X150462380Y-131192380D01*
X150367142Y-131335238D01*
X150271904Y-131430476D01*
X150176666Y-131478095D01*
X151652857Y-131192380D02*
X151176666Y-131192380D01*
X151129047Y-131668571D01*
X151176666Y-131620952D01*
X151271904Y-131573333D01*
X151510000Y-131573333D01*
X151605238Y-131620952D01*
X151652857Y-131668571D01*
X151700476Y-131763809D01*
X151700476Y-132001904D01*
X151652857Y-132097142D01*
X151605238Y-132144761D01*
X151510000Y-132192380D01*
X151271904Y-132192380D01*
X151176666Y-132144761D01*
X151129047Y-132097142D01*
D10*
X146587142Y-102871428D02*
X146658571Y-102657142D01*
X146658571Y-102300000D01*
X146587142Y-102157142D01*
X146515714Y-102085714D01*
X146372857Y-102014285D01*
X146230000Y-102014285D01*
X146087142Y-102085714D01*
X146015714Y-102157142D01*
X145944285Y-102300000D01*
X145872857Y-102585714D01*
X145801428Y-102728571D01*
X145730000Y-102800000D01*
X145587142Y-102871428D01*
X145444285Y-102871428D01*
X145301428Y-102800000D01*
X145230000Y-102728571D01*
X145158571Y-102585714D01*
X145158571Y-102228571D01*
X145230000Y-102014285D01*
X146587142Y-100728571D02*
X146658571Y-100871428D01*
X146658571Y-101157142D01*
X146587142Y-101300000D01*
X146515714Y-101371428D01*
X146372857Y-101442857D01*
X145944285Y-101442857D01*
X145801428Y-101371428D01*
X145730000Y-101300000D01*
X145658571Y-101157142D01*
X145658571Y-100871428D01*
X145730000Y-100728571D01*
X146658571Y-99442857D02*
X145872857Y-99442857D01*
X145730000Y-99514285D01*
X145658571Y-99657142D01*
X145658571Y-99942857D01*
X145730000Y-100085714D01*
X146587142Y-99442857D02*
X146658571Y-99585714D01*
X146658571Y-99942857D01*
X146587142Y-100085714D01*
X146444285Y-100157142D01*
X146301428Y-100157142D01*
X146158571Y-100085714D01*
X146087142Y-99942857D01*
X146087142Y-99585714D01*
X146015714Y-99442857D01*
X146658571Y-98514285D02*
X146587142Y-98657142D01*
X146444285Y-98728571D01*
X145158571Y-98728571D01*
X146587142Y-97371428D02*
X146658571Y-97514285D01*
X146658571Y-97800000D01*
X146587142Y-97942857D01*
X146444285Y-98014285D01*
X145872857Y-98014285D01*
X145730000Y-97942857D01*
X145658571Y-97800000D01*
X145658571Y-97514285D01*
X145730000Y-97371428D01*
X145872857Y-97300000D01*
X146015714Y-97300000D01*
X146158571Y-98014285D01*
X145158571Y-95657142D02*
X145158571Y-94728571D01*
X145730000Y-95228571D01*
X145730000Y-95014285D01*
X145801428Y-94871428D01*
X145872857Y-94800000D01*
X146015714Y-94728571D01*
X146372857Y-94728571D01*
X146515714Y-94800000D01*
X146587142Y-94871428D01*
X146658571Y-95014285D01*
X146658571Y-95442857D01*
X146587142Y-95585714D01*
X146515714Y-95657142D01*
D13*
X102145714Y-99781428D02*
X102907619Y-99781428D01*
X102526666Y-100162380D02*
X102526666Y-99400476D01*
X103288571Y-99162380D02*
X103907619Y-99162380D01*
X103574285Y-99543333D01*
X103717142Y-99543333D01*
X103812380Y-99590952D01*
X103860000Y-99638571D01*
X103907619Y-99733809D01*
X103907619Y-99971904D01*
X103860000Y-100067142D01*
X103812380Y-100114761D01*
X103717142Y-100162380D01*
X103431428Y-100162380D01*
X103336190Y-100114761D01*
X103288571Y-100067142D01*
X104240952Y-99495714D02*
X104479047Y-100162380D01*
X104717142Y-99495714D01*
X105002857Y-99162380D02*
X105621904Y-99162380D01*
X105288571Y-99543333D01*
X105431428Y-99543333D01*
X105526666Y-99590952D01*
X105574285Y-99638571D01*
X105621904Y-99733809D01*
X105621904Y-99971904D01*
X105574285Y-100067142D01*
X105526666Y-100114761D01*
X105431428Y-100162380D01*
X105145714Y-100162380D01*
X105050476Y-100114761D01*
X105002857Y-100067142D01*
X109692619Y-89534761D02*
X110692619Y-89534761D01*
X110692619Y-89772857D01*
X110645000Y-89915714D01*
X110549761Y-90010952D01*
X110454523Y-90058571D01*
X110264047Y-90106190D01*
X110121190Y-90106190D01*
X109930714Y-90058571D01*
X109835476Y-90010952D01*
X109740238Y-89915714D01*
X109692619Y-89772857D01*
X109692619Y-89534761D01*
X109740238Y-90487142D02*
X109692619Y-90630000D01*
X109692619Y-90868095D01*
X109740238Y-90963333D01*
X109787857Y-91010952D01*
X109883095Y-91058571D01*
X109978333Y-91058571D01*
X110073571Y-91010952D01*
X110121190Y-90963333D01*
X110168809Y-90868095D01*
X110216428Y-90677619D01*
X110264047Y-90582380D01*
X110311666Y-90534761D01*
X110406904Y-90487142D01*
X110502142Y-90487142D01*
X110597380Y-90534761D01*
X110645000Y-90582380D01*
X110692619Y-90677619D01*
X110692619Y-90915714D01*
X110645000Y-91058571D01*
X109692619Y-92010952D02*
X109692619Y-91439523D01*
X109692619Y-91725238D02*
X110692619Y-91725238D01*
X110549761Y-91630000D01*
X110454523Y-91534761D01*
X110406904Y-91439523D01*
X110264047Y-92582380D02*
X110311666Y-92487142D01*
X110359285Y-92439523D01*
X110454523Y-92391904D01*
X110502142Y-92391904D01*
X110597380Y-92439523D01*
X110645000Y-92487142D01*
X110692619Y-92582380D01*
X110692619Y-92772857D01*
X110645000Y-92868095D01*
X110597380Y-92915714D01*
X110502142Y-92963333D01*
X110454523Y-92963333D01*
X110359285Y-92915714D01*
X110311666Y-92868095D01*
X110264047Y-92772857D01*
X110264047Y-92582380D01*
X110216428Y-92487142D01*
X110168809Y-92439523D01*
X110073571Y-92391904D01*
X109883095Y-92391904D01*
X109787857Y-92439523D01*
X109740238Y-92487142D01*
X109692619Y-92582380D01*
X109692619Y-92772857D01*
X109740238Y-92868095D01*
X109787857Y-92915714D01*
X109883095Y-92963333D01*
X110073571Y-92963333D01*
X110168809Y-92915714D01*
X110216428Y-92868095D01*
X110264047Y-92772857D01*
X109692619Y-93391904D02*
X110692619Y-93391904D01*
X110311666Y-93391904D02*
X110359285Y-93487142D01*
X110359285Y-93677619D01*
X110311666Y-93772857D01*
X110264047Y-93820476D01*
X110168809Y-93868095D01*
X109883095Y-93868095D01*
X109787857Y-93820476D01*
X109740238Y-93772857D01*
X109692619Y-93677619D01*
X109692619Y-93487142D01*
X109740238Y-93391904D01*
X110597380Y-94249047D02*
X110645000Y-94296666D01*
X110692619Y-94391904D01*
X110692619Y-94630000D01*
X110645000Y-94725238D01*
X110597380Y-94772857D01*
X110502142Y-94820476D01*
X110406904Y-94820476D01*
X110264047Y-94772857D01*
X109692619Y-94201428D01*
X109692619Y-94820476D01*
X110692619Y-95439523D02*
X110692619Y-95534761D01*
X110645000Y-95630000D01*
X110597380Y-95677619D01*
X110502142Y-95725238D01*
X110311666Y-95772857D01*
X110073571Y-95772857D01*
X109883095Y-95725238D01*
X109787857Y-95677619D01*
X109740238Y-95630000D01*
X109692619Y-95534761D01*
X109692619Y-95439523D01*
X109740238Y-95344285D01*
X109787857Y-95296666D01*
X109883095Y-95249047D01*
X110073571Y-95201428D01*
X110311666Y-95201428D01*
X110502142Y-95249047D01*
X110597380Y-95296666D01*
X110645000Y-95344285D01*
X110692619Y-95439523D01*
X108082619Y-90939523D02*
X108082619Y-90368095D01*
X108082619Y-90653809D02*
X109082619Y-90653809D01*
X108939761Y-90558571D01*
X108844523Y-90463333D01*
X108796904Y-90368095D01*
X108749285Y-91987142D02*
X108749285Y-92368095D01*
X109082619Y-92130000D02*
X108225476Y-92130000D01*
X108130238Y-92177619D01*
X108082619Y-92272857D01*
X108082619Y-92368095D01*
X108082619Y-92844285D02*
X108130238Y-92749047D01*
X108177857Y-92701428D01*
X108273095Y-92653809D01*
X108558809Y-92653809D01*
X108654047Y-92701428D01*
X108701666Y-92749047D01*
X108749285Y-92844285D01*
X108749285Y-92987142D01*
X108701666Y-93082380D01*
X108654047Y-93130000D01*
X108558809Y-93177619D01*
X108273095Y-93177619D01*
X108177857Y-93130000D01*
X108130238Y-93082380D01*
X108082619Y-92987142D01*
X108082619Y-92844285D01*
X109082619Y-94272857D02*
X109082619Y-94891904D01*
X108701666Y-94558571D01*
X108701666Y-94701428D01*
X108654047Y-94796666D01*
X108606428Y-94844285D01*
X108511190Y-94891904D01*
X108273095Y-94891904D01*
X108177857Y-94844285D01*
X108130238Y-94796666D01*
X108082619Y-94701428D01*
X108082619Y-94415714D01*
X108130238Y-94320476D01*
X108177857Y-94272857D01*
X103087142Y-86720000D02*
X102991904Y-86672380D01*
X102849047Y-86672380D01*
X102706190Y-86720000D01*
X102610952Y-86815238D01*
X102563333Y-86910476D01*
X102515714Y-87100952D01*
X102515714Y-87243809D01*
X102563333Y-87434285D01*
X102610952Y-87529523D01*
X102706190Y-87624761D01*
X102849047Y-87672380D01*
X102944285Y-87672380D01*
X103087142Y-87624761D01*
X103134761Y-87577142D01*
X103134761Y-87243809D01*
X102944285Y-87243809D01*
X103563333Y-87005714D02*
X103563333Y-87672380D01*
X103563333Y-87100952D02*
X103610952Y-87053333D01*
X103706190Y-87005714D01*
X103849047Y-87005714D01*
X103944285Y-87053333D01*
X103991904Y-87148571D01*
X103991904Y-87672380D01*
X104896666Y-87672380D02*
X104896666Y-86672380D01*
X104896666Y-87624761D02*
X104801428Y-87672380D01*
X104610952Y-87672380D01*
X104515714Y-87624761D01*
X104468095Y-87577142D01*
X104420476Y-87481904D01*
X104420476Y-87196190D01*
X104468095Y-87100952D01*
X104515714Y-87053333D01*
X104610952Y-87005714D01*
X104801428Y-87005714D01*
X104896666Y-87053333D01*
D10*
X111718571Y-112530000D02*
X111575714Y-112458571D01*
X111361428Y-112458571D01*
X111147142Y-112530000D01*
X111004285Y-112672857D01*
X110932857Y-112815714D01*
X110861428Y-113101428D01*
X110861428Y-113315714D01*
X110932857Y-113601428D01*
X111004285Y-113744285D01*
X111147142Y-113887142D01*
X111361428Y-113958571D01*
X111504285Y-113958571D01*
X111718571Y-113887142D01*
X111790000Y-113815714D01*
X111790000Y-113315714D01*
X111504285Y-113315714D01*
X112432857Y-113958571D02*
X112432857Y-112458571D01*
X113004285Y-112458571D01*
X113147142Y-112530000D01*
X113218571Y-112601428D01*
X113290000Y-112744285D01*
X113290000Y-112958571D01*
X113218571Y-113101428D01*
X113147142Y-113172857D01*
X113004285Y-113244285D01*
X112432857Y-113244285D01*
X113861428Y-113887142D02*
X114075714Y-113958571D01*
X114432857Y-113958571D01*
X114575714Y-113887142D01*
X114647142Y-113815714D01*
X114718571Y-113672857D01*
X114718571Y-113530000D01*
X114647142Y-113387142D01*
X114575714Y-113315714D01*
X114432857Y-113244285D01*
X114147142Y-113172857D01*
X114004285Y-113101428D01*
X113932857Y-113030000D01*
X113861428Y-112887142D01*
X113861428Y-112744285D01*
X113932857Y-112601428D01*
X114004285Y-112530000D01*
X114147142Y-112458571D01*
X114504285Y-112458571D01*
X114718571Y-112530000D01*
D13*
X148045714Y-96061428D02*
X148807619Y-96061428D01*
X148426666Y-96442380D02*
X148426666Y-95680476D01*
X149188571Y-95442380D02*
X149807619Y-95442380D01*
X149474285Y-95823333D01*
X149617142Y-95823333D01*
X149712380Y-95870952D01*
X149760000Y-95918571D01*
X149807619Y-96013809D01*
X149807619Y-96251904D01*
X149760000Y-96347142D01*
X149712380Y-96394761D01*
X149617142Y-96442380D01*
X149331428Y-96442380D01*
X149236190Y-96394761D01*
X149188571Y-96347142D01*
X150140952Y-95775714D02*
X150379047Y-96442380D01*
X150617142Y-95775714D01*
X150902857Y-95442380D02*
X151521904Y-95442380D01*
X151188571Y-95823333D01*
X151331428Y-95823333D01*
X151426666Y-95870952D01*
X151474285Y-95918571D01*
X151521904Y-96013809D01*
X151521904Y-96251904D01*
X151474285Y-96347142D01*
X151426666Y-96394761D01*
X151331428Y-96442380D01*
X151045714Y-96442380D01*
X150950476Y-96394761D01*
X150902857Y-96347142D01*
D10*
X146637142Y-124192857D02*
X146708571Y-123978571D01*
X146708571Y-123621428D01*
X146637142Y-123478571D01*
X146565714Y-123407142D01*
X146422857Y-123335714D01*
X146280000Y-123335714D01*
X146137142Y-123407142D01*
X146065714Y-123478571D01*
X145994285Y-123621428D01*
X145922857Y-123907142D01*
X145851428Y-124050000D01*
X145780000Y-124121428D01*
X145637142Y-124192857D01*
X145494285Y-124192857D01*
X145351428Y-124121428D01*
X145280000Y-124050000D01*
X145208571Y-123907142D01*
X145208571Y-123550000D01*
X145280000Y-123335714D01*
X146637142Y-122050000D02*
X146708571Y-122192857D01*
X146708571Y-122478571D01*
X146637142Y-122621428D01*
X146565714Y-122692857D01*
X146422857Y-122764285D01*
X145994285Y-122764285D01*
X145851428Y-122692857D01*
X145780000Y-122621428D01*
X145708571Y-122478571D01*
X145708571Y-122192857D01*
X145780000Y-122050000D01*
X146708571Y-120764285D02*
X145922857Y-120764285D01*
X145780000Y-120835714D01*
X145708571Y-120978571D01*
X145708571Y-121264285D01*
X145780000Y-121407142D01*
X146637142Y-120764285D02*
X146708571Y-120907142D01*
X146708571Y-121264285D01*
X146637142Y-121407142D01*
X146494285Y-121478571D01*
X146351428Y-121478571D01*
X146208571Y-121407142D01*
X146137142Y-121264285D01*
X146137142Y-120907142D01*
X146065714Y-120764285D01*
X146708571Y-119835714D02*
X146637142Y-119978571D01*
X146494285Y-120050000D01*
X145208571Y-120050000D01*
X146637142Y-118692857D02*
X146708571Y-118835714D01*
X146708571Y-119121428D01*
X146637142Y-119264285D01*
X146494285Y-119335714D01*
X145922857Y-119335714D01*
X145780000Y-119264285D01*
X145708571Y-119121428D01*
X145708571Y-118835714D01*
X145780000Y-118692857D01*
X145922857Y-118621428D01*
X146065714Y-118621428D01*
X146208571Y-119335714D01*
X146708571Y-116050000D02*
X146708571Y-116907142D01*
X146708571Y-116478571D02*
X145208571Y-116478571D01*
X145422857Y-116621428D01*
X145565714Y-116764285D01*
X145637142Y-116907142D01*
D13*
X147789523Y-127412380D02*
X148122857Y-128412380D01*
X148456190Y-127412380D01*
X149218095Y-128364761D02*
X149122857Y-128412380D01*
X148932380Y-128412380D01*
X148837142Y-128364761D01*
X148789523Y-128317142D01*
X148741904Y-128221904D01*
X148741904Y-127936190D01*
X148789523Y-127840952D01*
X148837142Y-127793333D01*
X148932380Y-127745714D01*
X149122857Y-127745714D01*
X149218095Y-127793333D01*
X150075238Y-128364761D02*
X149980000Y-128412380D01*
X149789523Y-128412380D01*
X149694285Y-128364761D01*
X149646666Y-128317142D01*
X149599047Y-128221904D01*
X149599047Y-127936190D01*
X149646666Y-127840952D01*
X149694285Y-127793333D01*
X149789523Y-127745714D01*
X149980000Y-127745714D01*
X150075238Y-127793333D01*
X102125714Y-91361428D02*
X102887619Y-91361428D01*
X102506666Y-91742380D02*
X102506666Y-90980476D01*
X103268571Y-90742380D02*
X103887619Y-90742380D01*
X103554285Y-91123333D01*
X103697142Y-91123333D01*
X103792380Y-91170952D01*
X103840000Y-91218571D01*
X103887619Y-91313809D01*
X103887619Y-91551904D01*
X103840000Y-91647142D01*
X103792380Y-91694761D01*
X103697142Y-91742380D01*
X103411428Y-91742380D01*
X103316190Y-91694761D01*
X103268571Y-91647142D01*
X104220952Y-91075714D02*
X104459047Y-91742380D01*
X104697142Y-91075714D01*
X104982857Y-90742380D02*
X105601904Y-90742380D01*
X105268571Y-91123333D01*
X105411428Y-91123333D01*
X105506666Y-91170952D01*
X105554285Y-91218571D01*
X105601904Y-91313809D01*
X105601904Y-91551904D01*
X105554285Y-91647142D01*
X105506666Y-91694761D01*
X105411428Y-91742380D01*
X105125714Y-91742380D01*
X105030476Y-91694761D01*
X104982857Y-91647142D01*
D10*
X139308571Y-158721071D02*
X139308571Y-157221071D01*
X139808571Y-158292500D01*
X140308571Y-157221071D01*
X140308571Y-158721071D01*
X141022857Y-158721071D02*
X141022857Y-157221071D01*
X141594285Y-157221071D01*
X141737142Y-157292500D01*
X141808571Y-157363928D01*
X141880000Y-157506785D01*
X141880000Y-157721071D01*
X141808571Y-157863928D01*
X141737142Y-157935357D01*
X141594285Y-158006785D01*
X141022857Y-158006785D01*
X142522857Y-158721071D02*
X142522857Y-157221071D01*
X143094285Y-157221071D01*
X143237142Y-157292500D01*
X143308571Y-157363928D01*
X143380000Y-157506785D01*
X143380000Y-157721071D01*
X143308571Y-157863928D01*
X143237142Y-157935357D01*
X143094285Y-158006785D01*
X142522857Y-158006785D01*
X143808571Y-157221071D02*
X144665714Y-157221071D01*
X144237142Y-158721071D02*
X144237142Y-157221071D01*
X146237142Y-158649642D02*
X146451428Y-158721071D01*
X146808571Y-158721071D01*
X146951428Y-158649642D01*
X147022857Y-158578214D01*
X147094285Y-158435357D01*
X147094285Y-158292500D01*
X147022857Y-158149642D01*
X146951428Y-158078214D01*
X146808571Y-158006785D01*
X146522857Y-157935357D01*
X146380000Y-157863928D01*
X146308571Y-157792500D01*
X146237142Y-157649642D01*
X146237142Y-157506785D01*
X146308571Y-157363928D01*
X146380000Y-157292500D01*
X146522857Y-157221071D01*
X146880000Y-157221071D01*
X147094285Y-157292500D01*
X147951428Y-158721071D02*
X147808571Y-158649642D01*
X147737142Y-158578214D01*
X147665714Y-158435357D01*
X147665714Y-158006785D01*
X147737142Y-157863928D01*
X147808571Y-157792500D01*
X147951428Y-157721071D01*
X148165714Y-157721071D01*
X148308571Y-157792500D01*
X148380000Y-157863928D01*
X148451428Y-158006785D01*
X148451428Y-158435357D01*
X148380000Y-158578214D01*
X148308571Y-158649642D01*
X148165714Y-158721071D01*
X147951428Y-158721071D01*
X149308571Y-158721071D02*
X149165714Y-158649642D01*
X149094285Y-158506785D01*
X149094285Y-157221071D01*
X150522857Y-158721071D02*
X150522857Y-157935357D01*
X150451428Y-157792500D01*
X150308571Y-157721071D01*
X150022857Y-157721071D01*
X149880000Y-157792500D01*
X150522857Y-158649642D02*
X150380000Y-158721071D01*
X150022857Y-158721071D01*
X149880000Y-158649642D01*
X149808571Y-158506785D01*
X149808571Y-158363928D01*
X149880000Y-158221071D01*
X150022857Y-158149642D01*
X150380000Y-158149642D01*
X150522857Y-158078214D01*
X151237142Y-158721071D02*
X151237142Y-157721071D01*
X151237142Y-158006785D02*
X151308571Y-157863928D01*
X151380000Y-157792500D01*
X151522857Y-157721071D01*
X151665714Y-157721071D01*
X142130000Y-161064642D02*
X141987142Y-161136071D01*
X141701428Y-161136071D01*
X141558571Y-161064642D01*
X141487142Y-160993214D01*
X141415714Y-160850357D01*
X141415714Y-160421785D01*
X141487142Y-160278928D01*
X141558571Y-160207500D01*
X141701428Y-160136071D01*
X141987142Y-160136071D01*
X142130000Y-160207500D01*
X142772857Y-161136071D02*
X142772857Y-159636071D01*
X143415714Y-161136071D02*
X143415714Y-160350357D01*
X143344285Y-160207500D01*
X143201428Y-160136071D01*
X142987142Y-160136071D01*
X142844285Y-160207500D01*
X142772857Y-160278928D01*
X144772857Y-161136071D02*
X144772857Y-160350357D01*
X144701428Y-160207500D01*
X144558571Y-160136071D01*
X144272857Y-160136071D01*
X144130000Y-160207500D01*
X144772857Y-161064642D02*
X144630000Y-161136071D01*
X144272857Y-161136071D01*
X144130000Y-161064642D01*
X144058571Y-160921785D01*
X144058571Y-160778928D01*
X144130000Y-160636071D01*
X144272857Y-160564642D01*
X144630000Y-160564642D01*
X144772857Y-160493214D01*
X145487142Y-161136071D02*
X145487142Y-160136071D01*
X145487142Y-160421785D02*
X145558571Y-160278928D01*
X145630000Y-160207500D01*
X145772857Y-160136071D01*
X145915714Y-160136071D01*
X147058571Y-160136071D02*
X147058571Y-161350357D01*
X146987142Y-161493214D01*
X146915714Y-161564642D01*
X146772857Y-161636071D01*
X146558571Y-161636071D01*
X146415714Y-161564642D01*
X147058571Y-161064642D02*
X146915714Y-161136071D01*
X146630000Y-161136071D01*
X146487142Y-161064642D01*
X146415714Y-160993214D01*
X146344285Y-160850357D01*
X146344285Y-160421785D01*
X146415714Y-160278928D01*
X146487142Y-160207500D01*
X146630000Y-160136071D01*
X146915714Y-160136071D01*
X147058571Y-160207500D01*
X148344285Y-161064642D02*
X148201428Y-161136071D01*
X147915714Y-161136071D01*
X147772857Y-161064642D01*
X147701428Y-160921785D01*
X147701428Y-160350357D01*
X147772857Y-160207500D01*
X147915714Y-160136071D01*
X148201428Y-160136071D01*
X148344285Y-160207500D01*
X148415714Y-160350357D01*
X148415714Y-160493214D01*
X147701428Y-160636071D01*
X149058571Y-161136071D02*
X149058571Y-160136071D01*
X149058571Y-160421785D02*
X149130000Y-160278928D01*
X149201428Y-160207500D01*
X149344285Y-160136071D01*
X149487142Y-160136071D01*
D13*
X102548571Y-89767380D02*
X102548571Y-88767380D01*
X102786666Y-88767380D01*
X102929523Y-88815000D01*
X103024761Y-88910238D01*
X103072380Y-89005476D01*
X103120000Y-89195952D01*
X103120000Y-89338809D01*
X103072380Y-89529285D01*
X103024761Y-89624523D01*
X102929523Y-89719761D01*
X102786666Y-89767380D01*
X102548571Y-89767380D01*
X103500952Y-89481666D02*
X103977142Y-89481666D01*
X103405714Y-89767380D02*
X103739047Y-88767380D01*
X104072380Y-89767380D01*
X104262857Y-88767380D02*
X104834285Y-88767380D01*
X104548571Y-89767380D02*
X104548571Y-88767380D01*
D12*
X135727142Y-164323809D02*
X135841428Y-164361904D01*
X136031904Y-164361904D01*
X136108095Y-164323809D01*
X136146190Y-164285714D01*
X136184285Y-164209523D01*
X136184285Y-164133333D01*
X136146190Y-164057142D01*
X136108095Y-164019047D01*
X136031904Y-163980952D01*
X135879523Y-163942857D01*
X135803333Y-163904761D01*
X135765238Y-163866666D01*
X135727142Y-163790476D01*
X135727142Y-163714285D01*
X135765238Y-163638095D01*
X135803333Y-163600000D01*
X135879523Y-163561904D01*
X136070000Y-163561904D01*
X136184285Y-163600000D01*
X136641428Y-164361904D02*
X136565238Y-164323809D01*
X136527142Y-164285714D01*
X136489047Y-164209523D01*
X136489047Y-163980952D01*
X136527142Y-163904761D01*
X136565238Y-163866666D01*
X136641428Y-163828571D01*
X136755714Y-163828571D01*
X136831904Y-163866666D01*
X136870000Y-163904761D01*
X136908095Y-163980952D01*
X136908095Y-164209523D01*
X136870000Y-164285714D01*
X136831904Y-164323809D01*
X136755714Y-164361904D01*
X136641428Y-164361904D01*
X137365238Y-164361904D02*
X137289047Y-164323809D01*
X137250952Y-164247619D01*
X137250952Y-163561904D01*
X138012857Y-164361904D02*
X138012857Y-163942857D01*
X137974761Y-163866666D01*
X137898571Y-163828571D01*
X137746190Y-163828571D01*
X137670000Y-163866666D01*
X138012857Y-164323809D02*
X137936666Y-164361904D01*
X137746190Y-164361904D01*
X137670000Y-164323809D01*
X137631904Y-164247619D01*
X137631904Y-164171428D01*
X137670000Y-164095238D01*
X137746190Y-164057142D01*
X137936666Y-164057142D01*
X138012857Y-164019047D01*
X138393809Y-164361904D02*
X138393809Y-163828571D01*
X138393809Y-163980952D02*
X138431904Y-163904761D01*
X138470000Y-163866666D01*
X138546190Y-163828571D01*
X138622380Y-163828571D01*
X139841428Y-164361904D02*
X139841428Y-163561904D01*
X139841428Y-164323809D02*
X139765238Y-164361904D01*
X139612857Y-164361904D01*
X139536666Y-164323809D01*
X139498571Y-164285714D01*
X139460476Y-164209523D01*
X139460476Y-163980952D01*
X139498571Y-163904761D01*
X139536666Y-163866666D01*
X139612857Y-163828571D01*
X139765238Y-163828571D01*
X139841428Y-163866666D01*
X140336666Y-164361904D02*
X140260476Y-164323809D01*
X140222380Y-164285714D01*
X140184285Y-164209523D01*
X140184285Y-163980952D01*
X140222380Y-163904761D01*
X140260476Y-163866666D01*
X140336666Y-163828571D01*
X140450952Y-163828571D01*
X140527142Y-163866666D01*
X140565238Y-163904761D01*
X140603333Y-163980952D01*
X140603333Y-164209523D01*
X140565238Y-164285714D01*
X140527142Y-164323809D01*
X140450952Y-164361904D01*
X140336666Y-164361904D01*
X140946190Y-163828571D02*
X140946190Y-164361904D01*
X140946190Y-163904761D02*
X140984285Y-163866666D01*
X141060476Y-163828571D01*
X141174761Y-163828571D01*
X141250952Y-163866666D01*
X141289047Y-163942857D01*
X141289047Y-164361904D01*
X141974761Y-164323809D02*
X141898571Y-164361904D01*
X141746190Y-164361904D01*
X141670000Y-164323809D01*
X141631904Y-164247619D01*
X141631904Y-163942857D01*
X141670000Y-163866666D01*
X141746190Y-163828571D01*
X141898571Y-163828571D01*
X141974761Y-163866666D01*
X142012857Y-163942857D01*
X142012857Y-164019047D01*
X141631904Y-164095238D01*
D13*
X102745714Y-110261428D02*
X103507619Y-110261428D01*
X103126666Y-110642380D02*
X103126666Y-109880476D01*
X103888571Y-109642380D02*
X104507619Y-109642380D01*
X104174285Y-110023333D01*
X104317142Y-110023333D01*
X104412380Y-110070952D01*
X104460000Y-110118571D01*
X104507619Y-110213809D01*
X104507619Y-110451904D01*
X104460000Y-110547142D01*
X104412380Y-110594761D01*
X104317142Y-110642380D01*
X104031428Y-110642380D01*
X103936190Y-110594761D01*
X103888571Y-110547142D01*
X104840952Y-109975714D02*
X105079047Y-110642380D01*
X105317142Y-109975714D01*
X105602857Y-109642380D02*
X106221904Y-109642380D01*
X105888571Y-110023333D01*
X106031428Y-110023333D01*
X106126666Y-110070952D01*
X106174285Y-110118571D01*
X106221904Y-110213809D01*
X106221904Y-110451904D01*
X106174285Y-110547142D01*
X106126666Y-110594761D01*
X106031428Y-110642380D01*
X105745714Y-110642380D01*
X105650476Y-110594761D01*
X105602857Y-110547142D01*
D10*
X146599642Y-92221428D02*
X146671071Y-92007142D01*
X146671071Y-91650000D01*
X146599642Y-91507142D01*
X146528214Y-91435714D01*
X146385357Y-91364285D01*
X146242500Y-91364285D01*
X146099642Y-91435714D01*
X146028214Y-91507142D01*
X145956785Y-91650000D01*
X145885357Y-91935714D01*
X145813928Y-92078571D01*
X145742500Y-92150000D01*
X145599642Y-92221428D01*
X145456785Y-92221428D01*
X145313928Y-92150000D01*
X145242500Y-92078571D01*
X145171071Y-91935714D01*
X145171071Y-91578571D01*
X145242500Y-91364285D01*
X146599642Y-90078571D02*
X146671071Y-90221428D01*
X146671071Y-90507142D01*
X146599642Y-90650000D01*
X146528214Y-90721428D01*
X146385357Y-90792857D01*
X145956785Y-90792857D01*
X145813928Y-90721428D01*
X145742500Y-90650000D01*
X145671071Y-90507142D01*
X145671071Y-90221428D01*
X145742500Y-90078571D01*
X146671071Y-88792857D02*
X145885357Y-88792857D01*
X145742500Y-88864285D01*
X145671071Y-89007142D01*
X145671071Y-89292857D01*
X145742500Y-89435714D01*
X146599642Y-88792857D02*
X146671071Y-88935714D01*
X146671071Y-89292857D01*
X146599642Y-89435714D01*
X146456785Y-89507142D01*
X146313928Y-89507142D01*
X146171071Y-89435714D01*
X146099642Y-89292857D01*
X146099642Y-88935714D01*
X146028214Y-88792857D01*
X146671071Y-87864285D02*
X146599642Y-88007142D01*
X146456785Y-88078571D01*
X145171071Y-88078571D01*
X146599642Y-86721428D02*
X146671071Y-86864285D01*
X146671071Y-87150000D01*
X146599642Y-87292857D01*
X146456785Y-87364285D01*
X145885357Y-87364285D01*
X145742500Y-87292857D01*
X145671071Y-87150000D01*
X145671071Y-86864285D01*
X145742500Y-86721428D01*
X145885357Y-86650000D01*
X146028214Y-86650000D01*
X146171071Y-87364285D01*
X145671071Y-84221428D02*
X146671071Y-84221428D01*
X145099642Y-84578571D02*
X146171071Y-84935714D01*
X146171071Y-84007142D01*
D13*
X149328571Y-119397380D02*
X149328571Y-118397380D01*
X149566666Y-118397380D01*
X149709523Y-118445000D01*
X149804761Y-118540238D01*
X149852380Y-118635476D01*
X149900000Y-118825952D01*
X149900000Y-118968809D01*
X149852380Y-119159285D01*
X149804761Y-119254523D01*
X149709523Y-119349761D01*
X149566666Y-119397380D01*
X149328571Y-119397380D01*
X150280952Y-119111666D02*
X150757142Y-119111666D01*
X150185714Y-119397380D02*
X150519047Y-118397380D01*
X150852380Y-119397380D01*
X151042857Y-118397380D02*
X151614285Y-118397380D01*
X151328571Y-119397380D02*
X151328571Y-118397380D01*
X148115714Y-106671428D02*
X148877619Y-106671428D01*
X148496666Y-107052380D02*
X148496666Y-106290476D01*
X149258571Y-106052380D02*
X149877619Y-106052380D01*
X149544285Y-106433333D01*
X149687142Y-106433333D01*
X149782380Y-106480952D01*
X149830000Y-106528571D01*
X149877619Y-106623809D01*
X149877619Y-106861904D01*
X149830000Y-106957142D01*
X149782380Y-107004761D01*
X149687142Y-107052380D01*
X149401428Y-107052380D01*
X149306190Y-107004761D01*
X149258571Y-106957142D01*
X150210952Y-106385714D02*
X150449047Y-107052380D01*
X150687142Y-106385714D01*
X150972857Y-106052380D02*
X151591904Y-106052380D01*
X151258571Y-106433333D01*
X151401428Y-106433333D01*
X151496666Y-106480952D01*
X151544285Y-106528571D01*
X151591904Y-106623809D01*
X151591904Y-106861904D01*
X151544285Y-106957142D01*
X151496666Y-107004761D01*
X151401428Y-107052380D01*
X151115714Y-107052380D01*
X151020476Y-107004761D01*
X150972857Y-106957142D01*
D15*
X130380000Y-72287142D02*
X130380000Y-71387142D01*
X130722857Y-71387142D01*
X130808571Y-71430000D01*
X130851428Y-71472857D01*
X130894285Y-71558571D01*
X130894285Y-71687142D01*
X130851428Y-71772857D01*
X130808571Y-71815714D01*
X130722857Y-71858571D01*
X130380000Y-71858571D01*
X131280000Y-72287142D02*
X131280000Y-71687142D01*
X131280000Y-71858571D02*
X131322857Y-71772857D01*
X131365714Y-71730000D01*
X131451428Y-71687142D01*
X131537142Y-71687142D01*
X132180000Y-72244285D02*
X132094285Y-72287142D01*
X131922857Y-72287142D01*
X131837142Y-72244285D01*
X131794285Y-72158571D01*
X131794285Y-71815714D01*
X131837142Y-71730000D01*
X131922857Y-71687142D01*
X132094285Y-71687142D01*
X132180000Y-71730000D01*
X132222857Y-71815714D01*
X132222857Y-71901428D01*
X131794285Y-71987142D01*
X132565714Y-72244285D02*
X132651428Y-72287142D01*
X132822857Y-72287142D01*
X132908571Y-72244285D01*
X132951428Y-72158571D01*
X132951428Y-72115714D01*
X132908571Y-72030000D01*
X132822857Y-71987142D01*
X132694285Y-71987142D01*
X132608571Y-71944285D01*
X132565714Y-71858571D01*
X132565714Y-71815714D01*
X132608571Y-71730000D01*
X132694285Y-71687142D01*
X132822857Y-71687142D01*
X132908571Y-71730000D01*
X133294285Y-72244285D02*
X133380000Y-72287142D01*
X133551428Y-72287142D01*
X133637142Y-72244285D01*
X133680000Y-72158571D01*
X133680000Y-72115714D01*
X133637142Y-72030000D01*
X133551428Y-71987142D01*
X133422857Y-71987142D01*
X133337142Y-71944285D01*
X133294285Y-71858571D01*
X133294285Y-71815714D01*
X133337142Y-71730000D01*
X133422857Y-71687142D01*
X133551428Y-71687142D01*
X133637142Y-71730000D01*
X134451428Y-71687142D02*
X134451428Y-72287142D01*
X134065714Y-71687142D02*
X134065714Y-72158571D01*
X134108571Y-72244285D01*
X134194285Y-72287142D01*
X134322857Y-72287142D01*
X134408571Y-72244285D01*
X134451428Y-72201428D01*
X134880000Y-72287142D02*
X134880000Y-71687142D01*
X134880000Y-71858571D02*
X134922857Y-71772857D01*
X134965714Y-71730000D01*
X135051428Y-71687142D01*
X135137142Y-71687142D01*
X135780000Y-72244285D02*
X135694285Y-72287142D01*
X135522857Y-72287142D01*
X135437142Y-72244285D01*
X135394285Y-72158571D01*
X135394285Y-71815714D01*
X135437142Y-71730000D01*
X135522857Y-71687142D01*
X135694285Y-71687142D01*
X135780000Y-71730000D01*
X135822857Y-71815714D01*
X135822857Y-71901428D01*
X135394285Y-71987142D01*
X136851428Y-72244285D02*
X136937142Y-72287142D01*
X137108571Y-72287142D01*
X137194285Y-72244285D01*
X137237142Y-72158571D01*
X137237142Y-72115714D01*
X137194285Y-72030000D01*
X137108571Y-71987142D01*
X136980000Y-71987142D01*
X136894285Y-71944285D01*
X136851428Y-71858571D01*
X136851428Y-71815714D01*
X136894285Y-71730000D01*
X136980000Y-71687142D01*
X137108571Y-71687142D01*
X137194285Y-71730000D01*
X137965714Y-72244285D02*
X137880000Y-72287142D01*
X137708571Y-72287142D01*
X137622857Y-72244285D01*
X137580000Y-72158571D01*
X137580000Y-71815714D01*
X137622857Y-71730000D01*
X137708571Y-71687142D01*
X137880000Y-71687142D01*
X137965714Y-71730000D01*
X138008571Y-71815714D01*
X138008571Y-71901428D01*
X137580000Y-71987142D01*
X138394285Y-71687142D02*
X138394285Y-72287142D01*
X138394285Y-71772857D02*
X138437142Y-71730000D01*
X138522857Y-71687142D01*
X138651428Y-71687142D01*
X138737142Y-71730000D01*
X138780000Y-71815714D01*
X138780000Y-72287142D01*
X139165714Y-72244285D02*
X139251428Y-72287142D01*
X139422857Y-72287142D01*
X139508571Y-72244285D01*
X139551428Y-72158571D01*
X139551428Y-72115714D01*
X139508571Y-72030000D01*
X139422857Y-71987142D01*
X139294285Y-71987142D01*
X139208571Y-71944285D01*
X139165714Y-71858571D01*
X139165714Y-71815714D01*
X139208571Y-71730000D01*
X139294285Y-71687142D01*
X139422857Y-71687142D01*
X139508571Y-71730000D01*
X140065714Y-72287142D02*
X139980000Y-72244285D01*
X139937142Y-72201428D01*
X139894285Y-72115714D01*
X139894285Y-71858571D01*
X139937142Y-71772857D01*
X139980000Y-71730000D01*
X140065714Y-71687142D01*
X140194285Y-71687142D01*
X140280000Y-71730000D01*
X140322857Y-71772857D01*
X140365714Y-71858571D01*
X140365714Y-72115714D01*
X140322857Y-72201428D01*
X140280000Y-72244285D01*
X140194285Y-72287142D01*
X140065714Y-72287142D01*
X140751428Y-72287142D02*
X140751428Y-71687142D01*
X140751428Y-71858571D02*
X140794285Y-71772857D01*
X140837142Y-71730000D01*
X140922857Y-71687142D01*
X141008571Y-71687142D01*
D13*
X148377142Y-129420000D02*
X148281904Y-129372380D01*
X148139047Y-129372380D01*
X147996190Y-129420000D01*
X147900952Y-129515238D01*
X147853333Y-129610476D01*
X147805714Y-129800952D01*
X147805714Y-129943809D01*
X147853333Y-130134285D01*
X147900952Y-130229523D01*
X147996190Y-130324761D01*
X148139047Y-130372380D01*
X148234285Y-130372380D01*
X148377142Y-130324761D01*
X148424761Y-130277142D01*
X148424761Y-129943809D01*
X148234285Y-129943809D01*
X148853333Y-129705714D02*
X148853333Y-130372380D01*
X148853333Y-129800952D02*
X148900952Y-129753333D01*
X148996190Y-129705714D01*
X149139047Y-129705714D01*
X149234285Y-129753333D01*
X149281904Y-129848571D01*
X149281904Y-130372380D01*
X150186666Y-130372380D02*
X150186666Y-129372380D01*
X150186666Y-130324761D02*
X150091428Y-130372380D01*
X149900952Y-130372380D01*
X149805714Y-130324761D01*
X149758095Y-130277142D01*
X149710476Y-130181904D01*
X149710476Y-129896190D01*
X149758095Y-129800952D01*
X149805714Y-129753333D01*
X149900952Y-129705714D01*
X150091428Y-129705714D01*
X150186666Y-129753333D01*
X149754761Y-110757142D02*
X149707142Y-110804761D01*
X149564285Y-110852380D01*
X149469047Y-110852380D01*
X149326190Y-110804761D01*
X149230952Y-110709523D01*
X149183333Y-110614285D01*
X149135714Y-110423809D01*
X149135714Y-110280952D01*
X149183333Y-110090476D01*
X149230952Y-109995238D01*
X149326190Y-109900000D01*
X149469047Y-109852380D01*
X149564285Y-109852380D01*
X149707142Y-109900000D01*
X149754761Y-109947619D01*
X150659523Y-110852380D02*
X150183333Y-110852380D01*
X150183333Y-109852380D01*
X150992857Y-110852380D02*
X150992857Y-109852380D01*
X151564285Y-110852380D02*
X151135714Y-110280952D01*
X151564285Y-109852380D02*
X150992857Y-110423809D01*
X149834761Y-121437142D02*
X149787142Y-121484761D01*
X149644285Y-121532380D01*
X149549047Y-121532380D01*
X149406190Y-121484761D01*
X149310952Y-121389523D01*
X149263333Y-121294285D01*
X149215714Y-121103809D01*
X149215714Y-120960952D01*
X149263333Y-120770476D01*
X149310952Y-120675238D01*
X149406190Y-120580000D01*
X149549047Y-120532380D01*
X149644285Y-120532380D01*
X149787142Y-120580000D01*
X149834761Y-120627619D01*
X150739523Y-121532380D02*
X150263333Y-121532380D01*
X150263333Y-120532380D01*
X151072857Y-121532380D02*
X151072857Y-120532380D01*
X151644285Y-121532380D02*
X151215714Y-120960952D01*
X151644285Y-120532380D02*
X151072857Y-121103809D01*
X149757142Y-122560000D02*
X149661904Y-122512380D01*
X149519047Y-122512380D01*
X149376190Y-122560000D01*
X149280952Y-122655238D01*
X149233333Y-122750476D01*
X149185714Y-122940952D01*
X149185714Y-123083809D01*
X149233333Y-123274285D01*
X149280952Y-123369523D01*
X149376190Y-123464761D01*
X149519047Y-123512380D01*
X149614285Y-123512380D01*
X149757142Y-123464761D01*
X149804761Y-123417142D01*
X149804761Y-123083809D01*
X149614285Y-123083809D01*
X150233333Y-122845714D02*
X150233333Y-123512380D01*
X150233333Y-122940952D02*
X150280952Y-122893333D01*
X150376190Y-122845714D01*
X150519047Y-122845714D01*
X150614285Y-122893333D01*
X150661904Y-122988571D01*
X150661904Y-123512380D01*
X151566666Y-123512380D02*
X151566666Y-122512380D01*
X151566666Y-123464761D02*
X151471428Y-123512380D01*
X151280952Y-123512380D01*
X151185714Y-123464761D01*
X151138095Y-123417142D01*
X151090476Y-123321904D01*
X151090476Y-123036190D01*
X151138095Y-122940952D01*
X151185714Y-122893333D01*
X151280952Y-122845714D01*
X151471428Y-122845714D01*
X151566666Y-122893333D01*
X104017142Y-103820000D02*
X103921904Y-103772380D01*
X103779047Y-103772380D01*
X103636190Y-103820000D01*
X103540952Y-103915238D01*
X103493333Y-104010476D01*
X103445714Y-104200952D01*
X103445714Y-104343809D01*
X103493333Y-104534285D01*
X103540952Y-104629523D01*
X103636190Y-104724761D01*
X103779047Y-104772380D01*
X103874285Y-104772380D01*
X104017142Y-104724761D01*
X104064761Y-104677142D01*
X104064761Y-104343809D01*
X103874285Y-104343809D01*
X104493333Y-104105714D02*
X104493333Y-104772380D01*
X104493333Y-104200952D02*
X104540952Y-104153333D01*
X104636190Y-104105714D01*
X104779047Y-104105714D01*
X104874285Y-104153333D01*
X104921904Y-104248571D01*
X104921904Y-104772380D01*
X105826666Y-104772380D02*
X105826666Y-103772380D01*
X105826666Y-104724761D02*
X105731428Y-104772380D01*
X105540952Y-104772380D01*
X105445714Y-104724761D01*
X105398095Y-104677142D01*
X105350476Y-104581904D01*
X105350476Y-104296190D01*
X105398095Y-104200952D01*
X105445714Y-104153333D01*
X105540952Y-104105714D01*
X105731428Y-104105714D01*
X105826666Y-104153333D01*
X149754761Y-89557142D02*
X149707142Y-89604761D01*
X149564285Y-89652380D01*
X149469047Y-89652380D01*
X149326190Y-89604761D01*
X149230952Y-89509523D01*
X149183333Y-89414285D01*
X149135714Y-89223809D01*
X149135714Y-89080952D01*
X149183333Y-88890476D01*
X149230952Y-88795238D01*
X149326190Y-88700000D01*
X149469047Y-88652380D01*
X149564285Y-88652380D01*
X149707142Y-88700000D01*
X149754761Y-88747619D01*
X150659523Y-89652380D02*
X150183333Y-89652380D01*
X150183333Y-88652380D01*
X150992857Y-89652380D02*
X150992857Y-88652380D01*
X151564285Y-89652380D02*
X151135714Y-89080952D01*
X151564285Y-88652380D02*
X150992857Y-89223809D01*
D14*
X146683333Y-75913904D02*
X147140476Y-75913904D01*
X146911904Y-76713904D02*
X146911904Y-75913904D01*
X147711904Y-76675809D02*
X147635714Y-76713904D01*
X147483333Y-76713904D01*
X147407142Y-76675809D01*
X147369047Y-76599619D01*
X147369047Y-76294857D01*
X147407142Y-76218666D01*
X147483333Y-76180571D01*
X147635714Y-76180571D01*
X147711904Y-76218666D01*
X147750000Y-76294857D01*
X147750000Y-76371047D01*
X147369047Y-76447238D01*
X148092857Y-76713904D02*
X148092857Y-76180571D01*
X148092857Y-76256761D02*
X148130952Y-76218666D01*
X148207142Y-76180571D01*
X148321428Y-76180571D01*
X148397619Y-76218666D01*
X148435714Y-76294857D01*
X148435714Y-76713904D01*
X148435714Y-76294857D02*
X148473809Y-76218666D01*
X148550000Y-76180571D01*
X148664285Y-76180571D01*
X148740476Y-76218666D01*
X148778571Y-76294857D01*
X148778571Y-76713904D01*
X149159523Y-76180571D02*
X149159523Y-76980571D01*
X149159523Y-76218666D02*
X149235714Y-76180571D01*
X149388095Y-76180571D01*
X149464285Y-76218666D01*
X149502380Y-76256761D01*
X149540476Y-76332952D01*
X149540476Y-76561523D01*
X149502380Y-76637714D01*
X149464285Y-76675809D01*
X149388095Y-76713904D01*
X149235714Y-76713904D01*
X149159523Y-76675809D01*
X145750000Y-78001904D02*
X145750000Y-77201904D01*
X145750000Y-77582857D02*
X146207142Y-77582857D01*
X146207142Y-78001904D02*
X146207142Y-77201904D01*
X146930952Y-77468571D02*
X146930952Y-78001904D01*
X146588095Y-77468571D02*
X146588095Y-77887619D01*
X146626190Y-77963809D01*
X146702380Y-78001904D01*
X146816666Y-78001904D01*
X146892857Y-77963809D01*
X146930952Y-77925714D01*
X147311904Y-78001904D02*
X147311904Y-77468571D01*
X147311904Y-77544761D02*
X147350000Y-77506666D01*
X147426190Y-77468571D01*
X147540476Y-77468571D01*
X147616666Y-77506666D01*
X147654761Y-77582857D01*
X147654761Y-78001904D01*
X147654761Y-77582857D02*
X147692857Y-77506666D01*
X147769047Y-77468571D01*
X147883333Y-77468571D01*
X147959523Y-77506666D01*
X147997619Y-77582857D01*
X147997619Y-78001904D01*
X148378571Y-78001904D02*
X148378571Y-77468571D01*
X148378571Y-77201904D02*
X148340476Y-77240000D01*
X148378571Y-77278095D01*
X148416666Y-77240000D01*
X148378571Y-77201904D01*
X148378571Y-77278095D01*
X149102380Y-78001904D02*
X149102380Y-77201904D01*
X149102380Y-77963809D02*
X149026190Y-78001904D01*
X148873809Y-78001904D01*
X148797619Y-77963809D01*
X148759523Y-77925714D01*
X148721428Y-77849523D01*
X148721428Y-77620952D01*
X148759523Y-77544761D01*
X148797619Y-77506666D01*
X148873809Y-77468571D01*
X149026190Y-77468571D01*
X149102380Y-77506666D01*
X149483333Y-78001904D02*
X149483333Y-77468571D01*
X149483333Y-77201904D02*
X149445238Y-77240000D01*
X149483333Y-77278095D01*
X149521428Y-77240000D01*
X149483333Y-77201904D01*
X149483333Y-77278095D01*
X149750000Y-77468571D02*
X150054761Y-77468571D01*
X149864285Y-77201904D02*
X149864285Y-77887619D01*
X149902380Y-77963809D01*
X149978571Y-78001904D01*
X150054761Y-78001904D01*
X150245238Y-77468571D02*
X150435714Y-78001904D01*
X150626190Y-77468571D02*
X150435714Y-78001904D01*
X150359523Y-78192380D01*
X150321428Y-78230476D01*
X150245238Y-78268571D01*
X146283333Y-79251809D02*
X146397619Y-79289904D01*
X146588095Y-79289904D01*
X146664285Y-79251809D01*
X146702380Y-79213714D01*
X146740476Y-79137523D01*
X146740476Y-79061333D01*
X146702380Y-78985142D01*
X146664285Y-78947047D01*
X146588095Y-78908952D01*
X146435714Y-78870857D01*
X146359523Y-78832761D01*
X146321428Y-78794666D01*
X146283333Y-78718476D01*
X146283333Y-78642285D01*
X146321428Y-78566095D01*
X146359523Y-78528000D01*
X146435714Y-78489904D01*
X146626190Y-78489904D01*
X146740476Y-78528000D01*
X147388095Y-79251809D02*
X147311904Y-79289904D01*
X147159523Y-79289904D01*
X147083333Y-79251809D01*
X147045238Y-79175619D01*
X147045238Y-78870857D01*
X147083333Y-78794666D01*
X147159523Y-78756571D01*
X147311904Y-78756571D01*
X147388095Y-78794666D01*
X147426190Y-78870857D01*
X147426190Y-78947047D01*
X147045238Y-79023238D01*
X147769047Y-78756571D02*
X147769047Y-79289904D01*
X147769047Y-78832761D02*
X147807142Y-78794666D01*
X147883333Y-78756571D01*
X147997619Y-78756571D01*
X148073809Y-78794666D01*
X148111904Y-78870857D01*
X148111904Y-79289904D01*
X148454761Y-79251809D02*
X148530952Y-79289904D01*
X148683333Y-79289904D01*
X148759523Y-79251809D01*
X148797619Y-79175619D01*
X148797619Y-79137523D01*
X148759523Y-79061333D01*
X148683333Y-79023238D01*
X148569047Y-79023238D01*
X148492857Y-78985142D01*
X148454761Y-78908952D01*
X148454761Y-78870857D01*
X148492857Y-78794666D01*
X148569047Y-78756571D01*
X148683333Y-78756571D01*
X148759523Y-78794666D01*
X149254761Y-79289904D02*
X149178571Y-79251809D01*
X149140476Y-79213714D01*
X149102380Y-79137523D01*
X149102380Y-78908952D01*
X149140476Y-78832761D01*
X149178571Y-78794666D01*
X149254761Y-78756571D01*
X149369047Y-78756571D01*
X149445238Y-78794666D01*
X149483333Y-78832761D01*
X149521428Y-78908952D01*
X149521428Y-79137523D01*
X149483333Y-79213714D01*
X149445238Y-79251809D01*
X149369047Y-79289904D01*
X149254761Y-79289904D01*
X149864285Y-79289904D02*
X149864285Y-78756571D01*
X149864285Y-78908952D02*
X149902380Y-78832761D01*
X149940476Y-78794666D01*
X150016666Y-78756571D01*
X150092857Y-78756571D01*
D13*
X103505714Y-106764761D02*
X103648571Y-106812380D01*
X103886666Y-106812380D01*
X103981904Y-106764761D01*
X104029523Y-106717142D01*
X104077142Y-106621904D01*
X104077142Y-106526666D01*
X104029523Y-106431428D01*
X103981904Y-106383809D01*
X103886666Y-106336190D01*
X103696190Y-106288571D01*
X103600952Y-106240952D01*
X103553333Y-106193333D01*
X103505714Y-106098095D01*
X103505714Y-106002857D01*
X103553333Y-105907619D01*
X103600952Y-105860000D01*
X103696190Y-105812380D01*
X103934285Y-105812380D01*
X104077142Y-105860000D01*
X104505714Y-106812380D02*
X104505714Y-105812380D01*
X104743809Y-105812380D01*
X104886666Y-105860000D01*
X104981904Y-105955238D01*
X105029523Y-106050476D01*
X105077142Y-106240952D01*
X105077142Y-106383809D01*
X105029523Y-106574285D01*
X104981904Y-106669523D01*
X104886666Y-106764761D01*
X104743809Y-106812380D01*
X104505714Y-106812380D01*
X105458095Y-106526666D02*
X105934285Y-106526666D01*
X105362857Y-106812380D02*
X105696190Y-105812380D01*
X106029523Y-106812380D01*
D10*
X146587142Y-113891428D02*
X146658571Y-113677142D01*
X146658571Y-113320000D01*
X146587142Y-113177142D01*
X146515714Y-113105714D01*
X146372857Y-113034285D01*
X146230000Y-113034285D01*
X146087142Y-113105714D01*
X146015714Y-113177142D01*
X145944285Y-113320000D01*
X145872857Y-113605714D01*
X145801428Y-113748571D01*
X145730000Y-113820000D01*
X145587142Y-113891428D01*
X145444285Y-113891428D01*
X145301428Y-113820000D01*
X145230000Y-113748571D01*
X145158571Y-113605714D01*
X145158571Y-113248571D01*
X145230000Y-113034285D01*
X146587142Y-111748571D02*
X146658571Y-111891428D01*
X146658571Y-112177142D01*
X146587142Y-112320000D01*
X146515714Y-112391428D01*
X146372857Y-112462857D01*
X145944285Y-112462857D01*
X145801428Y-112391428D01*
X145730000Y-112320000D01*
X145658571Y-112177142D01*
X145658571Y-111891428D01*
X145730000Y-111748571D01*
X146658571Y-110462857D02*
X145872857Y-110462857D01*
X145730000Y-110534285D01*
X145658571Y-110677142D01*
X145658571Y-110962857D01*
X145730000Y-111105714D01*
X146587142Y-110462857D02*
X146658571Y-110605714D01*
X146658571Y-110962857D01*
X146587142Y-111105714D01*
X146444285Y-111177142D01*
X146301428Y-111177142D01*
X146158571Y-111105714D01*
X146087142Y-110962857D01*
X146087142Y-110605714D01*
X146015714Y-110462857D01*
X146658571Y-109534285D02*
X146587142Y-109677142D01*
X146444285Y-109748571D01*
X145158571Y-109748571D01*
X146587142Y-108391428D02*
X146658571Y-108534285D01*
X146658571Y-108820000D01*
X146587142Y-108962857D01*
X146444285Y-109034285D01*
X145872857Y-109034285D01*
X145730000Y-108962857D01*
X145658571Y-108820000D01*
X145658571Y-108534285D01*
X145730000Y-108391428D01*
X145872857Y-108320000D01*
X146015714Y-108320000D01*
X146158571Y-109034285D01*
X145301428Y-106605714D02*
X145230000Y-106534285D01*
X145158571Y-106391428D01*
X145158571Y-106034285D01*
X145230000Y-105891428D01*
X145301428Y-105820000D01*
X145444285Y-105748571D01*
X145587142Y-105748571D01*
X145801428Y-105820000D01*
X146658571Y-106677142D01*
X146658571Y-105748571D01*
D13*
X103127142Y-77900000D02*
X103031904Y-77852380D01*
X102889047Y-77852380D01*
X102746190Y-77900000D01*
X102650952Y-77995238D01*
X102603333Y-78090476D01*
X102555714Y-78280952D01*
X102555714Y-78423809D01*
X102603333Y-78614285D01*
X102650952Y-78709523D01*
X102746190Y-78804761D01*
X102889047Y-78852380D01*
X102984285Y-78852380D01*
X103127142Y-78804761D01*
X103174761Y-78757142D01*
X103174761Y-78423809D01*
X102984285Y-78423809D01*
X103603333Y-78185714D02*
X103603333Y-78852380D01*
X103603333Y-78280952D02*
X103650952Y-78233333D01*
X103746190Y-78185714D01*
X103889047Y-78185714D01*
X103984285Y-78233333D01*
X104031904Y-78328571D01*
X104031904Y-78852380D01*
X104936666Y-78852380D02*
X104936666Y-77852380D01*
X104936666Y-78804761D02*
X104841428Y-78852380D01*
X104650952Y-78852380D01*
X104555714Y-78804761D01*
X104508095Y-78757142D01*
X104460476Y-78661904D01*
X104460476Y-78376190D01*
X104508095Y-78280952D01*
X104555714Y-78233333D01*
X104650952Y-78185714D01*
X104841428Y-78185714D01*
X104936666Y-78233333D01*
X148115714Y-85471428D02*
X148877619Y-85471428D01*
X148496666Y-85852380D02*
X148496666Y-85090476D01*
X149258571Y-84852380D02*
X149877619Y-84852380D01*
X149544285Y-85233333D01*
X149687142Y-85233333D01*
X149782380Y-85280952D01*
X149830000Y-85328571D01*
X149877619Y-85423809D01*
X149877619Y-85661904D01*
X149830000Y-85757142D01*
X149782380Y-85804761D01*
X149687142Y-85852380D01*
X149401428Y-85852380D01*
X149306190Y-85804761D01*
X149258571Y-85757142D01*
X150210952Y-85185714D02*
X150449047Y-85852380D01*
X150687142Y-85185714D01*
X150972857Y-84852380D02*
X151591904Y-84852380D01*
X151258571Y-85233333D01*
X151401428Y-85233333D01*
X151496666Y-85280952D01*
X151544285Y-85328571D01*
X151591904Y-85423809D01*
X151591904Y-85661904D01*
X151544285Y-85757142D01*
X151496666Y-85804761D01*
X151401428Y-85852380D01*
X151115714Y-85852380D01*
X151020476Y-85804761D01*
X150972857Y-85757142D01*
X146329523Y-134066666D02*
X146805714Y-134066666D01*
X146234285Y-134352380D02*
X146567619Y-133352380D01*
X146900952Y-134352380D01*
X147758095Y-134352380D02*
X147186666Y-134352380D01*
X147472380Y-134352380D02*
X147472380Y-133352380D01*
X147377142Y-133495238D01*
X147281904Y-133590476D01*
X147186666Y-133638095D01*
X148900952Y-133304761D02*
X148043809Y-134590476D01*
X149234285Y-134352380D02*
X149234285Y-133352380D01*
X149472380Y-133352380D01*
X149615238Y-133400000D01*
X149710476Y-133495238D01*
X149758095Y-133590476D01*
X149805714Y-133780952D01*
X149805714Y-133923809D01*
X149758095Y-134114285D01*
X149710476Y-134209523D01*
X149615238Y-134304761D01*
X149472380Y-134352380D01*
X149234285Y-134352380D01*
X150758095Y-134352380D02*
X150186666Y-134352380D01*
X150472380Y-134352380D02*
X150472380Y-133352380D01*
X150377142Y-133495238D01*
X150281904Y-133590476D01*
X150186666Y-133638095D01*
X151615238Y-133352380D02*
X151424761Y-133352380D01*
X151329523Y-133400000D01*
X151281904Y-133447619D01*
X151186666Y-133590476D01*
X151139047Y-133780952D01*
X151139047Y-134161904D01*
X151186666Y-134257142D01*
X151234285Y-134304761D01*
X151329523Y-134352380D01*
X151520000Y-134352380D01*
X151615238Y-134304761D01*
X151662857Y-134257142D01*
X151710476Y-134161904D01*
X151710476Y-133923809D01*
X151662857Y-133828571D01*
X151615238Y-133780952D01*
X151520000Y-133733333D01*
X151329523Y-133733333D01*
X151234285Y-133780952D01*
X151186666Y-133828571D01*
X151139047Y-133923809D01*
D12*
X116544880Y-134121904D02*
X117354404Y-134121904D01*
X117449642Y-134074285D01*
X117497261Y-134026666D01*
X117544880Y-133931428D01*
X117544880Y-133740952D01*
X117497261Y-133645714D01*
X117449642Y-133598095D01*
X117354404Y-133550476D01*
X116544880Y-133550476D01*
X117544880Y-132550476D02*
X117544880Y-133121904D01*
X117544880Y-132836190D02*
X116544880Y-132836190D01*
X116687738Y-132931428D01*
X116782976Y-133026666D01*
X116830595Y-133121904D01*
D16*
X99215000Y-163220000D02*
X101565000Y-163220000D01*
X104472500Y-155372500D02*
X104472500Y-156160000D01*
X104866250Y-155766250D02*
X104078750Y-155766250D01*
X100279437Y-156400000D02*
X101565000Y-156400000D01*
X106035000Y-157464437D02*
X106035000Y-163220000D01*
X100279437Y-156400000D02*
X99215000Y-157464437D01*
X104970563Y-156400000D02*
X106035000Y-157464437D01*
X99215000Y-157464437D02*
X99215000Y-163220000D01*
X104970563Y-156400000D02*
X103685000Y-156400000D01*
X106035000Y-163220000D02*
X103685000Y-163220000D01*
X122400000Y-157019420D02*
X122400000Y-157300580D01*
X121380000Y-157019420D02*
X121380000Y-157300580D01*
X119485000Y-157078748D02*
X119485000Y-157601252D01*
X120955000Y-157078748D02*
X120955000Y-157601252D01*
X135050000Y-160909420D02*
X135050000Y-161190580D01*
X136070000Y-160909420D02*
X136070000Y-161190580D01*
X149340000Y-139094420D02*
X149340000Y-139375580D01*
X150360000Y-139094420D02*
X150360000Y-139375580D01*
X127129420Y-163090000D02*
X127410580Y-163090000D01*
X127129420Y-164110000D02*
X127410580Y-164110000D01*
X137145000Y-151346252D02*
X137145000Y-150823748D01*
X135675000Y-151346252D02*
X135675000Y-150823748D01*
X138382500Y-153122500D02*
X139007500Y-153122500D01*
X137620000Y-151505563D02*
X137620000Y-147050000D01*
X143140000Y-151505563D02*
X143140000Y-147050000D01*
X142075563Y-152570000D02*
X143140000Y-151505563D01*
X142075563Y-152570000D02*
X141440000Y-152570000D01*
X138695000Y-153435000D02*
X138695000Y-152810000D01*
X137620000Y-147050000D02*
X139320000Y-147050000D01*
X138684437Y-152570000D02*
X137620000Y-151505563D01*
X138684437Y-152570000D02*
X139320000Y-152570000D01*
X143140000Y-147050000D02*
X141440000Y-147050000D01*
X153440000Y-79219420D02*
X153440000Y-79500580D01*
X154460000Y-79219420D02*
X154460000Y-79500580D01*
X100175000Y-140115000D02*
X102660000Y-140115000D01*
X102660000Y-138745000D02*
X100175000Y-138745000D01*
X100175000Y-138745000D02*
X100175000Y-140115000D01*
D14*
X102550000Y-153075000D02*
X99850000Y-153075000D01*
X103320000Y-154725000D02*
X99850000Y-154725000D01*
D16*
X131435000Y-164857000D02*
X131435000Y-166227000D01*
X133920000Y-164857000D02*
X131435000Y-164857000D01*
X131435000Y-166227000D02*
X133920000Y-166227000D01*
X133940000Y-163307000D02*
X131455000Y-163307000D01*
X131455000Y-163307000D02*
X131455000Y-164677000D01*
X131455000Y-164677000D02*
X133940000Y-164677000D01*
D14*
X113230000Y-152735000D02*
X113230000Y-160685000D01*
X119130000Y-160685000D02*
X119130000Y-152135000D01*
X107075000Y-152710000D02*
X107075000Y-160660000D01*
X112975000Y-160660000D02*
X112975000Y-152110000D01*
X132520000Y-160800000D02*
X127620000Y-160800000D01*
X127620000Y-157600000D02*
X132520000Y-157600000D01*
X132520000Y-157600000D02*
X132520000Y-160800000D01*
X127395000Y-162675000D02*
X127395000Y-161150000D01*
X127620000Y-160800000D02*
X127620000Y-157600000D01*
X96950000Y-152035000D02*
X106750000Y-152035000D01*
X106750000Y-152035000D02*
X106750000Y-141135000D01*
X96950000Y-143635000D02*
X96950000Y-152035000D01*
X106750000Y-141135000D02*
X101550000Y-141135000D01*
D16*
X152840000Y-124590000D02*
X156340000Y-124590000D01*
X152230000Y-115080000D02*
X152230000Y-125200000D01*
X156340000Y-124590000D02*
X156340000Y-122640000D01*
X157250000Y-114780000D02*
X156000000Y-114780000D01*
X156950000Y-116840000D02*
X157150000Y-116840000D01*
X157150000Y-116540000D02*
X156950000Y-116540000D01*
X152840000Y-122140000D02*
X153340000Y-122140000D01*
X157150000Y-116840000D02*
X157150000Y-116540000D01*
X153340000Y-122040000D02*
X153340000Y-122240000D01*
X153340000Y-120040000D02*
X153340000Y-120240000D01*
X153340000Y-118040000D02*
X153340000Y-118240000D01*
X154340000Y-125200000D02*
X154340000Y-124590000D01*
X152840000Y-118140000D02*
X153340000Y-118140000D01*
X154340000Y-115080000D02*
X154340000Y-115690000D01*
X152840000Y-120040000D02*
X153340000Y-120040000D01*
X153340000Y-118240000D02*
X152840000Y-118240000D01*
X153340000Y-122240000D02*
X152840000Y-122240000D01*
X156950000Y-117640000D02*
X156340000Y-117640000D01*
X156950000Y-125200000D02*
X156950000Y-115080000D01*
X152230000Y-125200000D02*
X156950000Y-125200000D01*
X155640000Y-125200000D02*
X155640000Y-124590000D01*
X157250000Y-116030000D02*
X157250000Y-114780000D01*
X152840000Y-120140000D02*
X153340000Y-120140000D01*
X156340000Y-115690000D02*
X152840000Y-115690000D01*
X156340000Y-122640000D02*
X156950000Y-122640000D01*
X152840000Y-115690000D02*
X152840000Y-124590000D01*
X155640000Y-115080000D02*
X155640000Y-115690000D01*
X152840000Y-122040000D02*
X153340000Y-122040000D01*
X157050000Y-116840000D02*
X157050000Y-116540000D01*
X152840000Y-118040000D02*
X153340000Y-118040000D01*
X156950000Y-115080000D02*
X152230000Y-115080000D01*
X153340000Y-120240000D02*
X152840000Y-120240000D01*
X156340000Y-117640000D02*
X156340000Y-115690000D01*
X155640000Y-135900000D02*
X155640000Y-135290000D01*
X152840000Y-128740000D02*
X153340000Y-128740000D01*
X152840000Y-135290000D02*
X156340000Y-135290000D01*
X156340000Y-128340000D02*
X156340000Y-126390000D01*
X156340000Y-126390000D02*
X152840000Y-126390000D01*
X152230000Y-125780000D02*
X152230000Y-135900000D01*
X156950000Y-128340000D02*
X156340000Y-128340000D01*
X153340000Y-128740000D02*
X153340000Y-128940000D01*
X157150000Y-127240000D02*
X156950000Y-127240000D01*
X152230000Y-135900000D02*
X156950000Y-135900000D01*
X152840000Y-132740000D02*
X153340000Y-132740000D01*
X157150000Y-127540000D02*
X157150000Y-127240000D01*
X157250000Y-126730000D02*
X157250000Y-125480000D01*
X154340000Y-135900000D02*
X154340000Y-135290000D01*
X153340000Y-130740000D02*
X153340000Y-130940000D01*
X157050000Y-127540000D02*
X157050000Y-127240000D01*
X156950000Y-135900000D02*
X156950000Y-125780000D01*
X152840000Y-126390000D02*
X152840000Y-135290000D01*
X153340000Y-132740000D02*
X153340000Y-132940000D01*
X153340000Y-128940000D02*
X152840000Y-128940000D01*
X153340000Y-130940000D02*
X152840000Y-130940000D01*
X152840000Y-132840000D02*
X153340000Y-132840000D01*
X156340000Y-133340000D02*
X156950000Y-133340000D01*
X152840000Y-128840000D02*
X153340000Y-128840000D01*
X156950000Y-127540000D02*
X157150000Y-127540000D01*
X156340000Y-135290000D02*
X156340000Y-133340000D01*
X152840000Y-130840000D02*
X153340000Y-130840000D01*
X152840000Y-130740000D02*
X153340000Y-130740000D01*
X155640000Y-125780000D02*
X155640000Y-126390000D01*
X157250000Y-125480000D02*
X156000000Y-125480000D01*
X156950000Y-125780000D02*
X152230000Y-125780000D01*
X153340000Y-132940000D02*
X152840000Y-132940000D01*
X154340000Y-125780000D02*
X154340000Y-126390000D01*
X99700000Y-102250000D02*
X99700000Y-102860000D01*
X101200000Y-109310000D02*
X100700000Y-109310000D01*
X97700000Y-111760000D02*
X101200000Y-111760000D01*
X100700000Y-109410000D02*
X100700000Y-109210000D01*
X97700000Y-109810000D02*
X97700000Y-111760000D01*
X96990000Y-110610000D02*
X96990000Y-110910000D01*
X98400000Y-112370000D02*
X98400000Y-111760000D01*
X101200000Y-105310000D02*
X100700000Y-105310000D01*
X101810000Y-102250000D02*
X97090000Y-102250000D01*
X101200000Y-107410000D02*
X100700000Y-107410000D01*
X101200000Y-107310000D02*
X100700000Y-107310000D01*
X97700000Y-102860000D02*
X97700000Y-104810000D01*
X97700000Y-104810000D02*
X97090000Y-104810000D01*
X96890000Y-110910000D02*
X97090000Y-110910000D01*
X101200000Y-102860000D02*
X97700000Y-102860000D01*
X96790000Y-111420000D02*
X96790000Y-112670000D01*
X101200000Y-105410000D02*
X100700000Y-105410000D01*
X100700000Y-105410000D02*
X100700000Y-105210000D01*
X101810000Y-112370000D02*
X101810000Y-102250000D01*
X96890000Y-110610000D02*
X96890000Y-110910000D01*
X100700000Y-109210000D02*
X101200000Y-109210000D01*
X98400000Y-102250000D02*
X98400000Y-102860000D01*
X97090000Y-102250000D02*
X97090000Y-112370000D01*
X100700000Y-107210000D02*
X101200000Y-107210000D01*
X97090000Y-109810000D02*
X97700000Y-109810000D01*
X99700000Y-112370000D02*
X99700000Y-111760000D01*
X100700000Y-105210000D02*
X101200000Y-105210000D01*
X97090000Y-112370000D02*
X101810000Y-112370000D01*
X101200000Y-109410000D02*
X100700000Y-109410000D01*
X96790000Y-112670000D02*
X98040000Y-112670000D01*
X100700000Y-107410000D02*
X100700000Y-107210000D01*
X97090000Y-110610000D02*
X96890000Y-110610000D01*
X101200000Y-111760000D02*
X101200000Y-102860000D01*
D14*
X108990000Y-150990000D02*
X122790000Y-150990000D01*
X122790000Y-138390000D02*
X108990000Y-138390000D01*
D16*
X126170000Y-158110000D02*
X125240000Y-158110000D01*
X123010000Y-158110000D02*
X123010000Y-156650000D01*
X126170000Y-158110000D02*
X126170000Y-155950000D01*
X123010000Y-158110000D02*
X123940000Y-158110000D01*
X104782742Y-138897500D02*
X105257258Y-138897500D01*
X104782742Y-139942500D02*
X105257258Y-139942500D01*
X134512500Y-161287258D02*
X134512500Y-160812742D01*
X133467500Y-161287258D02*
X133467500Y-160812742D01*
X128482742Y-166062500D02*
X128957258Y-166062500D01*
X128482742Y-165017500D02*
X128957258Y-165017500D01*
X135982500Y-157072742D02*
X135982500Y-157547258D01*
X134937500Y-157072742D02*
X134937500Y-157547258D01*
X134482500Y-157547258D02*
X134482500Y-157072742D01*
X133437500Y-157547258D02*
X133437500Y-157072742D01*
X128422936Y-153740000D02*
X132777064Y-153740000D01*
X128422936Y-150320000D02*
X132777064Y-150320000D01*
X126692742Y-96352500D02*
X127167258Y-96352500D01*
X126692742Y-95307500D02*
X127167258Y-95307500D01*
X125912742Y-98907500D02*
X126387258Y-98907500D01*
X125912742Y-97862500D02*
X126387258Y-97862500D01*
X106387500Y-98307742D02*
X106387500Y-98782258D01*
X107432500Y-98307742D02*
X107432500Y-98782258D01*
X156425000Y-143585000D02*
X156425000Y-141635000D01*
X157335000Y-137775000D02*
X156085000Y-137775000D01*
X156425000Y-140635000D02*
X156425000Y-138685000D01*
X152925000Y-143585000D02*
X156425000Y-143585000D01*
X152315000Y-138075000D02*
X152315000Y-144195000D01*
X152925000Y-138685000D02*
X152925000Y-143585000D01*
X154425000Y-144195000D02*
X154425000Y-143585000D01*
X155725000Y-138075000D02*
X155725000Y-138685000D01*
X156425000Y-141635000D02*
X157035000Y-141635000D01*
X153425000Y-141035000D02*
X153425000Y-141235000D01*
X152925000Y-141035000D02*
X153425000Y-141035000D01*
X157335000Y-139025000D02*
X157335000Y-137775000D01*
X154425000Y-138075000D02*
X154425000Y-138685000D01*
X157035000Y-140635000D02*
X156425000Y-140635000D01*
X156425000Y-138685000D02*
X152925000Y-138685000D01*
X157035000Y-138075000D02*
X152315000Y-138075000D01*
X157135000Y-139835000D02*
X157135000Y-139535000D01*
X157235000Y-139535000D02*
X157035000Y-139535000D01*
X153425000Y-141235000D02*
X152925000Y-141235000D01*
X157235000Y-139835000D02*
X157235000Y-139535000D01*
X155725000Y-144195000D02*
X155725000Y-143585000D01*
X152925000Y-141135000D02*
X153425000Y-141135000D01*
X152315000Y-144195000D02*
X157035000Y-144195000D01*
X157035000Y-139835000D02*
X157235000Y-139835000D01*
X157035000Y-144195000D02*
X157035000Y-138075000D01*
X157235000Y-146485000D02*
X157235000Y-146185000D01*
X152925000Y-147685000D02*
X153425000Y-147685000D01*
X157235000Y-146185000D02*
X157035000Y-146185000D01*
X154425000Y-150845000D02*
X154425000Y-150235000D01*
X157335000Y-144425000D02*
X156085000Y-144425000D01*
X157035000Y-146485000D02*
X157235000Y-146485000D01*
X154425000Y-144725000D02*
X154425000Y-145335000D01*
X152925000Y-150235000D02*
X156425000Y-150235000D01*
X152925000Y-145335000D02*
X152925000Y-150235000D01*
X157035000Y-150845000D02*
X157035000Y-144725000D01*
X157135000Y-146485000D02*
X157135000Y-146185000D01*
X157035000Y-147285000D02*
X156425000Y-147285000D01*
X152925000Y-147785000D02*
X153425000Y-147785000D01*
X153425000Y-147885000D02*
X152925000Y-147885000D01*
X156425000Y-145335000D02*
X152925000Y-145335000D01*
X155725000Y-144725000D02*
X155725000Y-145335000D01*
X152315000Y-150845000D02*
X157035000Y-150845000D01*
X157335000Y-145675000D02*
X157335000Y-144425000D01*
X156425000Y-148285000D02*
X157035000Y-148285000D01*
X157035000Y-144725000D02*
X152315000Y-144725000D01*
X155725000Y-150845000D02*
X155725000Y-150235000D01*
X152315000Y-144725000D02*
X152315000Y-150845000D01*
X153425000Y-147685000D02*
X153425000Y-147885000D01*
X156425000Y-147285000D02*
X156425000Y-145335000D01*
X156425000Y-150235000D02*
X156425000Y-148285000D01*
D13*
X148400000Y-139610000D02*
G75*
G03*
X148400000Y-139610000I-125000J0D01*
G01*
D16*
X100675000Y-90135000D02*
X100675000Y-89935000D01*
X97065000Y-90535000D02*
X97675000Y-90535000D01*
X97065000Y-93095000D02*
X101785000Y-93095000D01*
X101785000Y-84975000D02*
X97065000Y-84975000D01*
X99675000Y-84975000D02*
X99675000Y-85585000D01*
X101175000Y-92485000D02*
X101175000Y-85585000D01*
X97675000Y-92485000D02*
X101175000Y-92485000D01*
X96965000Y-91335000D02*
X96965000Y-91635000D01*
X98375000Y-93095000D02*
X98375000Y-92485000D01*
X97065000Y-84975000D02*
X97065000Y-93095000D01*
X96765000Y-92145000D02*
X96765000Y-93395000D01*
X96865000Y-91635000D02*
X97065000Y-91635000D01*
X96865000Y-91335000D02*
X96865000Y-91635000D01*
X97065000Y-91335000D02*
X96865000Y-91335000D01*
X101175000Y-88035000D02*
X100675000Y-88035000D01*
X97675000Y-85585000D02*
X97675000Y-87535000D01*
X100675000Y-89935000D02*
X101175000Y-89935000D01*
X100675000Y-87935000D02*
X101175000Y-87935000D01*
X96765000Y-93395000D02*
X98015000Y-93395000D01*
X97675000Y-90535000D02*
X97675000Y-92485000D01*
X100675000Y-88135000D02*
X100675000Y-87935000D01*
X101175000Y-88135000D02*
X100675000Y-88135000D01*
X101175000Y-90035000D02*
X100675000Y-90035000D01*
X101785000Y-93095000D02*
X101785000Y-84975000D01*
X101175000Y-90135000D02*
X100675000Y-90135000D01*
X97675000Y-87535000D02*
X97065000Y-87535000D01*
X101175000Y-85585000D02*
X97675000Y-85585000D01*
X99675000Y-93095000D02*
X99675000Y-92485000D01*
X98375000Y-84975000D02*
X98375000Y-85585000D01*
X97040000Y-84370000D02*
X101760000Y-84370000D01*
X96840000Y-82910000D02*
X97040000Y-82910000D01*
X97040000Y-81810000D02*
X97650000Y-81810000D01*
X101150000Y-79310000D02*
X100650000Y-79310000D01*
X97650000Y-78810000D02*
X97040000Y-78810000D01*
X96840000Y-82610000D02*
X96840000Y-82910000D01*
X101760000Y-76250000D02*
X97040000Y-76250000D01*
X99650000Y-76250000D02*
X99650000Y-76860000D01*
X101150000Y-83760000D02*
X101150000Y-76860000D01*
X98350000Y-76250000D02*
X98350000Y-76860000D01*
X97650000Y-76860000D02*
X97650000Y-78810000D01*
X96740000Y-83420000D02*
X96740000Y-84670000D01*
X101150000Y-76860000D02*
X97650000Y-76860000D01*
X96940000Y-82610000D02*
X96940000Y-82910000D01*
X98350000Y-84370000D02*
X98350000Y-83760000D01*
X100650000Y-79210000D02*
X101150000Y-79210000D01*
X97040000Y-76250000D02*
X97040000Y-84370000D01*
X97650000Y-81810000D02*
X97650000Y-83760000D01*
X100650000Y-81210000D02*
X101150000Y-81210000D01*
X101150000Y-81410000D02*
X100650000Y-81410000D01*
X97040000Y-82610000D02*
X96840000Y-82610000D01*
X100650000Y-81410000D02*
X100650000Y-81210000D01*
X100650000Y-79410000D02*
X100650000Y-79210000D01*
X101150000Y-81310000D02*
X100650000Y-81310000D01*
X101150000Y-79410000D02*
X100650000Y-79410000D01*
X97650000Y-83760000D02*
X101150000Y-83760000D01*
X99650000Y-84370000D02*
X99650000Y-83760000D01*
X101760000Y-84370000D02*
X101760000Y-76250000D01*
X96740000Y-84670000D02*
X97990000Y-84670000D01*
X97090000Y-93625000D02*
X97090000Y-101745000D01*
X101200000Y-98785000D02*
X100700000Y-98785000D01*
X97090000Y-99185000D02*
X97700000Y-99185000D01*
X100700000Y-96585000D02*
X101200000Y-96585000D01*
X96790000Y-102045000D02*
X98040000Y-102045000D01*
X101200000Y-96685000D02*
X100700000Y-96685000D01*
X96790000Y-100795000D02*
X96790000Y-102045000D01*
X96890000Y-99985000D02*
X96890000Y-100285000D01*
X100700000Y-96785000D02*
X100700000Y-96585000D01*
X98400000Y-93625000D02*
X98400000Y-94235000D01*
X101810000Y-101745000D02*
X101810000Y-93625000D01*
X97700000Y-96185000D02*
X97090000Y-96185000D01*
X99700000Y-93625000D02*
X99700000Y-94235000D01*
X101200000Y-98685000D02*
X100700000Y-98685000D01*
X101810000Y-93625000D02*
X97090000Y-93625000D01*
X101200000Y-94235000D02*
X97700000Y-94235000D01*
X98400000Y-101745000D02*
X98400000Y-101135000D01*
X96890000Y-100285000D02*
X97090000Y-100285000D01*
X97700000Y-99185000D02*
X97700000Y-101135000D01*
X100700000Y-98785000D02*
X100700000Y-98585000D01*
X97700000Y-94235000D02*
X97700000Y-96185000D01*
X96990000Y-99985000D02*
X96990000Y-100285000D01*
X101200000Y-101135000D02*
X101200000Y-94235000D01*
X100700000Y-98585000D02*
X101200000Y-98585000D01*
X99700000Y-101745000D02*
X99700000Y-101135000D01*
X97090000Y-99985000D02*
X96890000Y-99985000D01*
X97700000Y-101135000D02*
X101200000Y-101135000D01*
X101200000Y-96785000D02*
X100700000Y-96785000D01*
X97090000Y-101745000D02*
X101810000Y-101745000D01*
D14*
X99775000Y-119480000D02*
X99775000Y-120340000D01*
X99775000Y-129640000D02*
X99775000Y-130500000D01*
X115775000Y-122020000D02*
X115775000Y-122880000D01*
X99775000Y-116990000D02*
X115775000Y-116990000D01*
X115775000Y-124560000D02*
X115775000Y-125420000D01*
X115775000Y-119480000D02*
X115775000Y-120340000D01*
X99775000Y-124560000D02*
X99775000Y-125420000D01*
X99775000Y-122020000D02*
X99775000Y-122880000D01*
X99775000Y-127100000D02*
X99775000Y-127960000D01*
X99775000Y-132990000D02*
X115775000Y-132990000D01*
X115775000Y-127100000D02*
X115775000Y-127960000D01*
X115775000Y-129640000D02*
X115775000Y-130500000D01*
D10*
X117678300Y-132375000D02*
G75*
G03*
X117678300Y-132375000I-142300J0D01*
G01*
D11*
X156225000Y-76685000D02*
X156225000Y-76685000D01*
X156225000Y-76585000D02*
X156225000Y-76585000D01*
X156225000Y-76585000D02*
G75*
G03*
X156225000Y-76685000I0J-50000D01*
G01*
X156225000Y-76685000D02*
G75*
G03*
X156225000Y-76585000I0J50000D01*
G01*
D16*
X120735000Y-124364420D02*
X120735000Y-124645580D01*
X119715000Y-124364420D02*
X119715000Y-124645580D01*
X121315000Y-124418748D02*
X121315000Y-124941252D01*
X122785000Y-124418748D02*
X122785000Y-124941252D01*
X109012742Y-87832500D02*
X109487258Y-87832500D01*
X109012742Y-86787500D02*
X109487258Y-86787500D01*
D11*
X115000000Y-80895000D02*
X115000000Y-71035000D01*
X110000000Y-71035000D02*
X109960000Y-80895000D01*
X115000000Y-71035000D02*
X110000000Y-71035000D01*
D16*
X130075000Y-142848748D02*
X130075000Y-143371252D01*
X128605000Y-142848748D02*
X128605000Y-143371252D01*
X119730000Y-120560580D02*
X119730000Y-120279420D01*
X120750000Y-120560580D02*
X120750000Y-120279420D01*
X117695000Y-76920000D02*
X117695000Y-74635000D01*
X117695000Y-74635000D02*
X116225000Y-74635000D01*
X116225000Y-74635000D02*
X116225000Y-76920000D01*
X137972742Y-140812500D02*
X138447258Y-140812500D01*
X137972742Y-139767500D02*
X138447258Y-139767500D01*
X137960000Y-75791252D02*
X137960000Y-75268748D01*
X136490000Y-75791252D02*
X136490000Y-75268748D01*
X116427500Y-79082742D02*
X116427500Y-79557258D01*
X117472500Y-79082742D02*
X117472500Y-79557258D01*
X136350000Y-142829420D02*
X136350000Y-143110580D01*
X137370000Y-142829420D02*
X137370000Y-143110580D01*
X134512742Y-77002500D02*
X134987258Y-77002500D01*
X134512742Y-75957500D02*
X134987258Y-75957500D01*
X121365000Y-120471252D02*
X121365000Y-119948748D01*
X122835000Y-120471252D02*
X122835000Y-119948748D01*
X128407500Y-93947258D02*
X128407500Y-93472742D01*
X129452500Y-93947258D02*
X129452500Y-93472742D01*
X130310580Y-88590000D02*
X130029420Y-88590000D01*
X130310580Y-87570000D02*
X130029420Y-87570000D01*
G36*
X111735534Y-97825802D02*
G01*
X111847353Y-97826494D01*
X111932578Y-97828291D01*
X111998481Y-97831945D01*
X112052332Y-97838211D01*
X112101403Y-97847842D01*
X112152965Y-97861594D01*
X112191047Y-97873033D01*
X112433861Y-97963451D01*
X112658314Y-98080593D01*
X112868041Y-98226620D01*
X113040961Y-98378463D01*
X113179956Y-98521346D01*
X113291161Y-98654945D01*
X113377814Y-98783544D01*
X113441929Y-98908600D01*
X113472268Y-98976412D01*
X113512522Y-99063854D01*
X113557682Y-99160156D01*
X113602734Y-99254548D01*
X113607394Y-99264200D01*
X113650359Y-99353508D01*
X113692425Y-99441720D01*
X113729220Y-99519622D01*
X113756373Y-99577996D01*
X113759997Y-99585933D01*
X113839523Y-99760149D01*
X113907046Y-99906167D01*
X113964033Y-100026856D01*
X114011955Y-100125091D01*
X114052279Y-100203743D01*
X114086474Y-100265684D01*
X114116010Y-100313786D01*
X114142355Y-100350922D01*
X114164990Y-100377818D01*
X114241667Y-100461162D01*
X114309400Y-100435558D01*
X114417197Y-100397595D01*
X114536521Y-100360188D01*
X114657886Y-100325934D01*
X114771808Y-100297434D01*
X114868801Y-100277285D01*
X114910776Y-100270794D01*
X115008350Y-100258269D01*
X115077230Y-100248750D01*
X115122349Y-100241236D01*
X115148642Y-100234725D01*
X115161043Y-100228217D01*
X115164485Y-100220707D01*
X115164534Y-100219274D01*
X115155186Y-100196742D01*
X115130432Y-100155423D01*
X115095207Y-100102219D01*
X115054446Y-100044034D01*
X115013084Y-99987772D01*
X114976056Y-99940335D01*
X114948296Y-99908628D01*
X114935726Y-99899199D01*
X114914315Y-99911697D01*
X114885067Y-99942633D01*
X114878194Y-99951556D01*
X114815380Y-100008957D01*
X114731796Y-100043008D01*
X114655086Y-100051600D01*
X114607187Y-100047170D01*
X114568459Y-100029418D01*
X114524888Y-99991644D01*
X114520480Y-99987263D01*
X114464374Y-99911805D01*
X114439870Y-99827403D01*
X114445893Y-99730216D01*
X114446971Y-99724981D01*
X114472915Y-99658961D01*
X114520190Y-99613285D01*
X114591762Y-99586186D01*
X114690593Y-99575895D01*
X114697138Y-99575778D01*
X114764103Y-99573289D01*
X114822842Y-99568409D01*
X114859734Y-99562384D01*
X114896766Y-99540549D01*
X114907083Y-99506792D01*
X114893240Y-99466226D01*
X114857791Y-99423964D01*
X114803292Y-99385119D01*
X114761099Y-99365010D01*
X114700389Y-99325990D01*
X114647909Y-99266436D01*
X114613084Y-99198562D01*
X114604922Y-99162600D01*
X114611339Y-99086193D01*
X114642606Y-99015238D01*
X114676949Y-98976001D01*
X114739268Y-98943611D01*
X114816080Y-98932578D01*
X114895331Y-98943228D01*
X114953900Y-98968505D01*
X114998842Y-99009398D01*
X115040027Y-99068499D01*
X115069618Y-99132409D01*
X115079867Y-99183919D01*
X115094929Y-99222956D01*
X115132716Y-99255136D01*
X115182128Y-99271891D01*
X115194843Y-99272666D01*
X115223778Y-99266391D01*
X115226223Y-99243996D01*
X115225949Y-99243033D01*
X115200149Y-99143201D01*
X115188889Y-99066483D01*
X115192231Y-99005375D01*
X115210235Y-98952376D01*
X115228536Y-98920682D01*
X115280294Y-98869615D01*
X115346533Y-98843193D01*
X115417959Y-98841944D01*
X115485278Y-98866394D01*
X115528965Y-98903655D01*
X115560351Y-98955810D01*
X115570816Y-99019580D01*
X115570934Y-99029273D01*
X115565059Y-99086234D01*
X115549969Y-99140963D01*
X115529468Y-99183602D01*
X115507359Y-99204295D01*
X115503156Y-99204933D01*
X115483169Y-99217691D01*
X115460054Y-99246131D01*
X115442749Y-99284698D01*
X115450191Y-99319247D01*
X115451793Y-99322331D01*
X115473943Y-99351427D01*
X115495546Y-99350679D01*
X115519316Y-99318803D01*
X115536599Y-99282224D01*
X115581859Y-99208254D01*
X115641975Y-99164355D01*
X115718335Y-99149522D01*
X115720261Y-99149515D01*
X115803428Y-99163072D01*
X115867221Y-99200588D01*
X115908005Y-99257326D01*
X115922145Y-99328550D01*
X115910411Y-99397210D01*
X115874630Y-99460885D01*
X115812807Y-99509319D01*
X115723334Y-99544542D01*
X115663126Y-99564104D01*
X115631172Y-99581745D01*
X115622281Y-99600885D01*
X115624082Y-99609912D01*
X115641656Y-99613995D01*
X115682112Y-99599781D01*
X115709878Y-99585994D01*
X115803804Y-99550854D01*
X115876652Y-99543600D01*
X115933355Y-99546675D01*
X115972605Y-99560194D01*
X116010579Y-99590591D01*
X116021360Y-99601173D01*
X116059667Y-99646440D01*
X116076314Y-99689564D01*
X116078934Y-99725889D01*
X116063840Y-99800621D01*
X116022218Y-99859884D01*
X115959552Y-99899252D01*
X115881330Y-99914301D01*
X115847489Y-99912587D01*
X115809838Y-99909540D01*
X115801981Y-99913732D01*
X115815277Y-99923390D01*
X115840495Y-99940262D01*
X115886295Y-99972665D01*
X115946103Y-100015894D01*
X116011409Y-100063812D01*
X116093273Y-100126869D01*
X116150242Y-100178484D01*
X116186532Y-100224521D01*
X116206358Y-100270844D01*
X116213938Y-100323314D01*
X116214484Y-100346226D01*
X116198663Y-100441624D01*
X116152724Y-100542521D01*
X116079393Y-100646157D01*
X115981399Y-100749772D01*
X115861466Y-100850607D01*
X115722322Y-100945902D01*
X115566694Y-101032898D01*
X115507961Y-101061280D01*
X115431842Y-101094948D01*
X115359421Y-101124084D01*
X115300794Y-101144766D01*
X115274990Y-101151794D01*
X115204456Y-101167561D01*
X115128246Y-101186634D01*
X115054171Y-101206799D01*
X114990039Y-101225847D01*
X114943662Y-101241565D01*
X114923151Y-101251409D01*
X114921936Y-101269034D01*
X114943893Y-101297777D01*
X114990258Y-101338605D01*
X115062265Y-101392486D01*
X115161153Y-101460387D01*
X115288156Y-101543275D01*
X115331399Y-101570874D01*
X115492992Y-101676515D01*
X115627419Y-101771500D01*
X115738326Y-101859229D01*
X115829358Y-101943106D01*
X115904162Y-102026530D01*
X115966381Y-102112904D01*
X116019663Y-102205629D01*
X116026843Y-102219763D01*
X116067803Y-102309239D01*
X116104894Y-102403976D01*
X116132663Y-102489587D01*
X116139982Y-102518239D01*
X116156956Y-102623042D01*
X116167214Y-102753252D01*
X116170718Y-102901078D01*
X116167430Y-103058726D01*
X116157315Y-103218403D01*
X116143931Y-103345133D01*
X116132768Y-103435910D01*
X116126351Y-103499260D01*
X116124648Y-103541282D01*
X116127626Y-103568078D01*
X116135254Y-103585748D01*
X116142610Y-103595139D01*
X116172214Y-103614480D01*
X116210059Y-103610928D01*
X116260966Y-103583145D01*
X116304973Y-103550159D01*
X116335899Y-103526398D01*
X116362771Y-103511344D01*
X116394132Y-103503267D01*
X116438525Y-103500437D01*
X116504492Y-103501123D01*
X116542285Y-103502085D01*
X116713934Y-103506638D01*
X116858168Y-103379000D01*
X116807218Y-103304485D01*
X116767437Y-103222427D01*
X116755951Y-103140415D01*
X116769852Y-103063832D01*
X116806232Y-102998063D01*
X116862184Y-102948492D01*
X116934801Y-102920503D01*
X117015559Y-102918668D01*
X117070285Y-102934459D01*
X117117159Y-102961409D01*
X117121445Y-102965177D01*
X117161841Y-103021567D01*
X117192282Y-103100331D01*
X117209461Y-103190639D01*
X117211601Y-103260632D01*
X117213318Y-103329246D01*
X117229187Y-103372872D01*
X117263666Y-103398972D01*
X117301330Y-103410826D01*
X117327026Y-103413415D01*
X117350318Y-103404179D01*
X117378083Y-103378062D01*
X117417200Y-103330006D01*
X117424999Y-103319907D01*
X117466755Y-103268456D01*
X117504240Y-103227161D01*
X117530017Y-103204152D01*
X117531870Y-103203059D01*
X117573426Y-103190462D01*
X117634517Y-103182581D01*
X117700951Y-103181055D01*
X117715935Y-103181805D01*
X117764885Y-103199257D01*
X117814926Y-103239255D01*
X117856161Y-103292307D01*
X117875232Y-103334544D01*
X117884673Y-103378011D01*
X117881012Y-103416460D01*
X117862231Y-103465375D01*
X117856616Y-103477492D01*
X117814073Y-103548472D01*
X117760504Y-103596502D01*
X117688484Y-103626346D01*
X117600758Y-103641705D01*
X117511455Y-103657345D01*
X117454492Y-103681309D01*
X117429294Y-103713965D01*
X117432319Y-103748561D01*
X117459892Y-103782456D01*
X117512501Y-103799071D01*
X117592421Y-103799054D01*
X117605840Y-103797769D01*
X117668890Y-103796864D01*
X117720264Y-103812749D01*
X117745754Y-103827045D01*
X117797554Y-103865571D01*
X117826553Y-103908141D01*
X117838549Y-103966004D01*
X117840000Y-104009935D01*
X117828401Y-104085565D01*
X117791526Y-104140068D01*
X117726257Y-104177909D01*
X117721467Y-104179711D01*
X117643164Y-104192535D01*
X117566303Y-104172362D01*
X117489754Y-104118822D01*
X117466926Y-104096455D01*
X117411196Y-104042926D01*
X117373425Y-104017514D01*
X117353084Y-104019958D01*
X117348934Y-104038316D01*
X117362555Y-104060805D01*
X117396823Y-104088674D01*
X117414109Y-104099263D01*
X117480716Y-104155758D01*
X117515709Y-104210866D01*
X117546600Y-104300631D01*
X117546699Y-104378322D01*
X117516223Y-104442792D01*
X117463656Y-104488062D01*
X117388816Y-104516990D01*
X117315729Y-104515069D01*
X117248490Y-104485235D01*
X117191195Y-104430422D01*
X117147939Y-104353568D01*
X117122819Y-104257608D01*
X117120934Y-104242372D01*
X117113164Y-104180531D01*
X117103167Y-104146875D01*
X117085925Y-104135841D01*
X117056419Y-104141863D01*
X117036770Y-104149047D01*
X117013812Y-104160194D01*
X117000788Y-104177404D01*
X116994904Y-104209244D01*
X116993367Y-104264280D01*
X116993334Y-104282230D01*
X116986534Y-104371368D01*
X116963592Y-104436379D01*
X116920691Y-104484679D01*
X116874146Y-104513871D01*
X116799569Y-104536389D01*
X116729793Y-104525977D01*
X116667877Y-104483526D01*
X116636825Y-104444658D01*
X116607207Y-104370900D01*
X116607197Y-104290502D01*
X116635461Y-104210594D01*
X116690667Y-104138303D01*
X116694870Y-104134305D01*
X116722939Y-104099404D01*
X116723738Y-104075699D01*
X116702025Y-104063370D01*
X116662556Y-104062598D01*
X116610085Y-104073563D01*
X116549370Y-104096445D01*
X116492804Y-104126640D01*
X116427644Y-104166460D01*
X116349187Y-104214071D01*
X116273213Y-104259900D01*
X116265200Y-104264712D01*
X116156879Y-104330555D01*
X116074241Y-104382918D01*
X116013290Y-104424628D01*
X115970030Y-104458515D01*
X115940464Y-104487406D01*
X115927498Y-104503712D01*
X115900982Y-104545977D01*
X115896258Y-104577413D01*
X115914144Y-104611452D01*
X115935696Y-104638271D01*
X115987880Y-104680947D01*
X116072972Y-104724431D01*
X116117729Y-104742589D01*
X116226538Y-104792417D01*
X116314816Y-104853114D01*
X116387019Y-104929874D01*
X116447604Y-105027891D01*
X116501025Y-105152360D01*
X116522688Y-105214657D01*
X116569861Y-105404117D01*
X116594646Y-105617793D01*
X116596986Y-105854438D01*
X116576821Y-106112803D01*
X116568145Y-106181466D01*
X116520424Y-106416020D01*
X116441680Y-106651181D01*
X116334080Y-106880828D01*
X116297456Y-106946088D01*
X116257244Y-107009904D01*
X116220755Y-107052569D01*
X116178243Y-107084000D01*
X116143537Y-107102721D01*
X116093330Y-107125092D01*
X116045655Y-107138421D01*
X115988662Y-107144885D01*
X115910505Y-107146661D01*
X115904413Y-107146666D01*
X115827909Y-107145513D01*
X115773045Y-107140302D01*
X115727628Y-107128404D01*
X115679460Y-107107191D01*
X115649504Y-107091726D01*
X115578825Y-107045867D01*
X115494050Y-106977030D01*
X115400270Y-106890149D01*
X115302576Y-106790152D01*
X115206058Y-106681972D01*
X115128826Y-106587372D01*
X114975922Y-106377221D01*
X114848626Y-106172151D01*
X114747727Y-105974066D01*
X114674017Y-105784865D01*
X114628286Y-105606450D01*
X114611324Y-105440723D01*
X114614924Y-105351733D01*
X114630731Y-105255504D01*
X114660344Y-105173938D01*
X114708751Y-105097510D01*
X114780938Y-105016694D01*
X114800329Y-104997551D01*
X114849198Y-104947724D01*
X114886952Y-104904697D01*
X114908000Y-104875055D01*
X114910534Y-104867734D01*
X114896645Y-104834605D01*
X114855791Y-104783979D01*
X114789190Y-104717137D01*
X114698059Y-104635360D01*
X114654559Y-104598374D01*
X114586599Y-104543160D01*
X114515243Y-104488214D01*
X114446248Y-104437627D01*
X114385367Y-104395489D01*
X114338357Y-104365892D01*
X114310973Y-104352924D01*
X114308840Y-104352666D01*
X114291319Y-104346091D01*
X114248346Y-104327929D01*
X114185338Y-104300527D01*
X114107713Y-104266231D01*
X114054764Y-104242600D01*
X113939157Y-104192547D01*
X113848865Y-104158102D01*
X113779546Y-104138516D01*
X113726862Y-104133040D01*
X113686470Y-104140926D01*
X113654030Y-104161426D01*
X113643517Y-104171691D01*
X113606729Y-104210849D01*
X113716941Y-104210850D01*
X113805741Y-104218286D01*
X113869440Y-104242943D01*
X113913911Y-104288339D01*
X113940657Y-104344948D01*
X113955116Y-104406540D01*
X113949031Y-104463467D01*
X113946491Y-104472644D01*
X113918209Y-104527192D01*
X113870270Y-104559947D01*
X113800350Y-104571552D01*
X113706125Y-104562652D01*
X113657502Y-104552668D01*
X113604370Y-104542122D01*
X113574241Y-104542019D01*
X113557780Y-104552742D01*
X113554869Y-104556901D01*
X113539719Y-104603089D01*
X113554103Y-104640364D01*
X113579641Y-104656848D01*
X113641244Y-104693402D01*
X113677590Y-104748674D01*
X113691121Y-104826671D01*
X113691334Y-104840152D01*
X113688737Y-104897636D01*
X113677041Y-104936588D01*
X113650390Y-104972188D01*
X113633761Y-104989359D01*
X113583951Y-105029989D01*
X113536445Y-105045972D01*
X113519461Y-105046870D01*
X113443471Y-105031112D01*
X113378842Y-104987993D01*
X113330894Y-104923473D01*
X113304949Y-104843515D01*
X113301867Y-104803074D01*
X113298754Y-104763157D01*
X113291074Y-104742627D01*
X113289167Y-104741902D01*
X113264197Y-104737723D01*
X113238367Y-104731460D01*
X113216735Y-104727961D01*
X113205362Y-104737243D01*
X113200967Y-104766580D01*
X113200267Y-104815968D01*
X113194482Y-104882831D01*
X113173152Y-104926610D01*
X113130316Y-104953738D01*
X113060010Y-104970644D01*
X113056334Y-104971231D01*
X113001715Y-104973889D01*
X112955440Y-104958034D01*
X112929334Y-104941883D01*
X112893193Y-104913701D01*
X112874602Y-104883882D01*
X112866652Y-104838846D01*
X112865017Y-104815482D01*
X112860529Y-104764209D01*
X112850927Y-104737013D01*
X112830328Y-104724115D01*
X112806635Y-104718440D01*
X112738422Y-104698357D01*
X112697839Y-104667029D01*
X112678911Y-104617429D01*
X112675334Y-104563942D01*
X112679484Y-104498946D01*
X112693699Y-104456853D01*
X112708101Y-104438432D01*
X112746814Y-104412712D01*
X112803000Y-104388830D01*
X112860537Y-104372898D01*
X112889422Y-104369694D01*
X112911503Y-104355973D01*
X112919055Y-104342815D01*
X112928545Y-104311548D01*
X112921327Y-104305824D01*
X112911302Y-104311012D01*
X112874574Y-104317189D01*
X112823452Y-104307023D01*
X112770797Y-104284275D01*
X112736663Y-104259961D01*
X112708131Y-104226401D01*
X112695059Y-104186487D01*
X112692267Y-104135217D01*
X112702460Y-104057941D01*
X112732246Y-104005919D01*
X112780433Y-103980978D01*
X112793867Y-103979273D01*
X112873417Y-103977624D01*
X112931128Y-103987299D01*
X112977903Y-104010964D01*
X113002119Y-104030206D01*
X113059150Y-104080280D01*
X113133942Y-104043851D01*
X113175693Y-104022832D01*
X113204155Y-104003680D01*
X113225165Y-103978693D01*
X113244562Y-103940168D01*
X113268184Y-103880402D01*
X113278495Y-103853133D01*
X113329362Y-103727982D01*
X113376901Y-103632308D01*
X113423505Y-103562208D01*
X113471565Y-103513777D01*
X113497269Y-103496246D01*
X113568383Y-103454570D01*
X113744158Y-103514564D01*
X113816522Y-103537079D01*
X113902374Y-103560408D01*
X113994966Y-103583109D01*
X114087546Y-103603740D01*
X114173365Y-103620860D01*
X114245671Y-103633027D01*
X114297715Y-103638800D01*
X114320739Y-103637687D01*
X114320619Y-103622549D01*
X114302892Y-103588855D01*
X114274657Y-103548334D01*
X114195699Y-103417261D01*
X114144914Y-103268812D01*
X114122637Y-103104902D01*
X114129205Y-102927444D01*
X114146519Y-102818284D01*
X114161324Y-102748540D01*
X114175028Y-102690839D01*
X114185540Y-102653704D01*
X114188900Y-102645583D01*
X114197290Y-102621684D01*
X114210204Y-102573144D01*
X114225444Y-102508516D01*
X114232870Y-102474614D01*
X114248023Y-102400166D01*
X114255530Y-102348709D01*
X114255680Y-102310310D01*
X114248763Y-102275036D01*
X114239542Y-102245918D01*
X114216126Y-102198726D01*
X114179623Y-102147226D01*
X114137439Y-102099708D01*
X114096978Y-102064463D01*
X114065645Y-102049779D01*
X114064303Y-102049733D01*
X114048407Y-102064112D01*
X114034718Y-102096300D01*
X114022225Y-102128384D01*
X113997350Y-102183285D01*
X113963466Y-102253842D01*
X113923946Y-102332894D01*
X113915607Y-102349201D01*
X113837011Y-102491475D01*
X113761831Y-102603031D01*
X113686922Y-102686378D01*
X113609137Y-102744024D01*
X113525331Y-102778476D01*
X113432358Y-102792242D01*
X113361403Y-102791005D01*
X113312499Y-102785010D01*
X113264694Y-102772535D01*
X113212810Y-102750938D01*
X113151668Y-102717574D01*
X113076089Y-102669802D01*
X112980895Y-102604978D01*
X112937800Y-102574833D01*
X112879566Y-102536462D01*
X112828254Y-102507227D01*
X112792544Y-102491924D01*
X112785728Y-102490752D01*
X112751925Y-102496630D01*
X112700670Y-102512554D01*
X112662430Y-102527202D01*
X112610270Y-102551512D01*
X112585885Y-102571013D01*
X112584354Y-102589729D01*
X112584782Y-102590702D01*
X112599676Y-102647084D01*
X112604264Y-102718525D01*
X112598687Y-102789348D01*
X112583083Y-102843875D01*
X112582529Y-102844965D01*
X112539270Y-102896762D01*
X112478292Y-102930020D01*
X112408268Y-102944335D01*
X112337868Y-102939303D01*
X112275763Y-102914523D01*
X112230625Y-102869590D01*
X112226086Y-102861538D01*
X112205726Y-102791220D01*
X112204046Y-102700045D01*
X112221069Y-102595418D01*
X112225264Y-102578919D01*
X112238103Y-102527209D01*
X112240205Y-102496910D01*
X112229791Y-102476774D01*
X112205846Y-102456152D01*
X112170978Y-102432530D01*
X112146261Y-102422279D01*
X112145777Y-102422266D01*
X112125031Y-102432968D01*
X112088803Y-102460676D01*
X112055306Y-102490000D01*
X112007276Y-102530315D01*
X111967867Y-102550764D01*
X111923950Y-102557439D01*
X111909479Y-102557670D01*
X111824616Y-102543365D01*
X111754999Y-102504093D01*
X111705558Y-102445075D01*
X111681224Y-102371531D01*
X111681486Y-102316246D01*
X111704300Y-102243676D01*
X111751738Y-102189839D01*
X111825387Y-102153773D01*
X111926836Y-102134518D01*
X111987875Y-102130910D01*
X112044405Y-102126983D01*
X112075113Y-102117294D01*
X112087891Y-102099292D01*
X112088101Y-102098516D01*
X112084103Y-102073565D01*
X112052013Y-102058927D01*
X112049056Y-102058256D01*
X111988146Y-102033098D01*
X111924229Y-101988399D01*
X111870870Y-101934149D01*
X111859824Y-101918845D01*
X111838740Y-101869383D01*
X111828876Y-101811830D01*
X111828779Y-101806760D01*
X111843955Y-101741731D01*
X111884281Y-101687708D01*
X111941597Y-101649569D01*
X112007747Y-101632191D01*
X112074572Y-101640454D01*
X112093350Y-101648567D01*
X112140843Y-101679155D01*
X112180992Y-101721208D01*
X112221729Y-101783636D01*
X112235670Y-101808433D01*
X112261284Y-101850357D01*
X112282148Y-101876299D01*
X112288985Y-101880399D01*
X112299848Y-101877553D01*
X112299039Y-101864953D01*
X112284208Y-101836506D01*
X112253003Y-101786121D01*
X112252000Y-101784539D01*
X112215677Y-101717014D01*
X112203077Y-101659974D01*
X112212657Y-101601354D01*
X112224518Y-101569506D01*
X112264409Y-101515085D01*
X112327972Y-101483852D01*
X112413445Y-101476634D01*
X112421541Y-101477145D01*
X112478133Y-101488206D01*
X112518616Y-101514901D01*
X112545969Y-101561927D01*
X112563175Y-101633984D01*
X112571712Y-101713833D01*
X112577706Y-101783333D01*
X112584364Y-101825566D01*
X112593724Y-101847103D01*
X112607819Y-101854516D01*
X112615433Y-101854999D01*
X112634024Y-101851358D01*
X112648213Y-101836268D01*
X112660855Y-101803483D01*
X112674806Y-101746757D01*
X112683405Y-101706308D01*
X112707956Y-101661007D01*
X112754984Y-101622107D01*
X112813128Y-101597388D01*
X112849444Y-101592596D01*
X112932215Y-101605943D01*
X112993604Y-101643635D01*
X113030590Y-101701779D01*
X113040150Y-101776479D01*
X113031563Y-101827261D01*
X113015899Y-101869131D01*
X112989746Y-101906903D01*
X112947119Y-101947127D01*
X112882038Y-101996355D01*
X112868100Y-102006238D01*
X112821685Y-102038944D01*
X112938074Y-102078205D01*
X113034857Y-102104778D01*
X113119123Y-102116090D01*
X113184791Y-102111751D01*
X113220420Y-102096299D01*
X113233065Y-102077782D01*
X113242717Y-102041774D01*
X113250229Y-101983191D01*
X113256454Y-101896945D01*
X113257732Y-101873805D01*
X113284953Y-101653982D01*
X113342304Y-101448078D01*
X113420982Y-101272912D01*
X113470241Y-101181890D01*
X113362460Y-100891912D01*
X113304026Y-100729765D01*
X113250872Y-100570914D01*
X113200483Y-100407043D01*
X113150348Y-100229836D01*
X113097954Y-100030978D01*
X113075305Y-99941533D01*
X112993070Y-99642166D01*
X112904493Y-99375330D01*
X112809117Y-99140203D01*
X112706486Y-98935963D01*
X112596143Y-98761789D01*
X112477633Y-98616861D01*
X112350497Y-98500356D01*
X112229247Y-98419641D01*
X112125219Y-98369165D01*
X112016503Y-98333383D01*
X111893550Y-98309829D01*
X111751645Y-98296333D01*
X111575618Y-98297741D01*
X111398483Y-98321981D01*
X111226942Y-98366918D01*
X111067699Y-98430416D01*
X110927454Y-98510339D01*
X110826643Y-98591066D01*
X110731162Y-98695091D01*
X110656976Y-98807478D01*
X110598564Y-98937646D01*
X110567131Y-99033875D01*
X110547506Y-99107416D01*
X110534860Y-99173893D01*
X110528962Y-99241138D01*
X110529585Y-99316985D01*
X110536500Y-99409267D01*
X110549477Y-99525816D01*
X110552128Y-99547460D01*
X110555981Y-99599242D01*
X110548014Y-99633519D01*
X110523302Y-99665943D01*
X110510845Y-99678693D01*
X110449889Y-99720804D01*
X110387001Y-99731465D01*
X110326881Y-99712437D01*
X110274233Y-99665482D01*
X110233758Y-99592360D01*
X110226753Y-99572303D01*
X110215868Y-99520195D01*
X110206576Y-99442415D01*
X110199178Y-99347129D01*
X110193975Y-99242507D01*
X110191271Y-99136717D01*
X110191365Y-99037927D01*
X110194562Y-98954307D01*
X110201161Y-98894024D01*
X110201605Y-98891666D01*
X110223183Y-98810696D01*
X110257371Y-98714971D01*
X110298578Y-98618297D01*
X110341210Y-98534478D01*
X110356833Y-98508537D01*
X110401480Y-98449595D01*
X110466440Y-98377456D01*
X110544673Y-98298885D01*
X110629134Y-98220647D01*
X110712780Y-98149509D01*
X110788570Y-98092235D01*
X110794300Y-98088307D01*
X110971313Y-97985227D01*
X111166908Y-97901974D01*
X111287932Y-97863886D01*
X111344787Y-97849403D01*
X111397766Y-97839004D01*
X111454213Y-97832064D01*
X111521470Y-97827960D01*
X111606881Y-97826065D01*
X111717789Y-97825755D01*
X111735534Y-97825802D01*
G37*
D17*
X111735534Y-97825802D02*
X111847353Y-97826494D01*
X111932578Y-97828291D01*
X111998481Y-97831945D01*
X112052332Y-97838211D01*
X112101403Y-97847842D01*
X112152965Y-97861594D01*
X112191047Y-97873033D01*
X112433861Y-97963451D01*
X112658314Y-98080593D01*
X112868041Y-98226620D01*
X113040961Y-98378463D01*
X113179956Y-98521346D01*
X113291161Y-98654945D01*
X113377814Y-98783544D01*
X113441929Y-98908600D01*
X113472268Y-98976412D01*
X113512522Y-99063854D01*
X113557682Y-99160156D01*
X113602734Y-99254548D01*
X113607394Y-99264200D01*
X113650359Y-99353508D01*
X113692425Y-99441720D01*
X113729220Y-99519622D01*
X113756373Y-99577996D01*
X113759997Y-99585933D01*
X113839523Y-99760149D01*
X113907046Y-99906167D01*
X113964033Y-100026856D01*
X114011955Y-100125091D01*
X114052279Y-100203743D01*
X114086474Y-100265684D01*
X114116010Y-100313786D01*
X114142355Y-100350922D01*
X114164990Y-100377818D01*
X114241667Y-100461162D01*
X114309400Y-100435558D01*
X114417197Y-100397595D01*
X114536521Y-100360188D01*
X114657886Y-100325934D01*
X114771808Y-100297434D01*
X114868801Y-100277285D01*
X114910776Y-100270794D01*
X115008350Y-100258269D01*
X115077230Y-100248750D01*
X115122349Y-100241236D01*
X115148642Y-100234725D01*
X115161043Y-100228217D01*
X115164485Y-100220707D01*
X115164534Y-100219274D01*
X115155186Y-100196742D01*
X115130432Y-100155423D01*
X115095207Y-100102219D01*
X115054446Y-100044034D01*
X115013084Y-99987772D01*
X114976056Y-99940335D01*
X114948296Y-99908628D01*
X114935726Y-99899199D01*
X114914315Y-99911697D01*
X114885067Y-99942633D01*
X114878194Y-99951556D01*
X114815380Y-100008957D01*
X114731796Y-100043008D01*
X114655086Y-100051600D01*
X114607187Y-100047170D01*
X114568459Y-100029418D01*
X114524888Y-99991644D01*
X114520480Y-99987263D01*
X114464374Y-99911805D01*
X114439870Y-99827403D01*
X114445893Y-99730216D01*
X114446971Y-99724981D01*
X114472915Y-99658961D01*
X114520190Y-99613285D01*
X114591762Y-99586186D01*
X114690593Y-99575895D01*
X114697138Y-99575778D01*
X114764103Y-99573289D01*
X114822842Y-99568409D01*
X114859734Y-99562384D01*
X114896766Y-99540549D01*
X114907083Y-99506792D01*
X114893240Y-99466226D01*
X114857791Y-99423964D01*
X114803292Y-99385119D01*
X114761099Y-99365010D01*
X114700389Y-99325990D01*
X114647909Y-99266436D01*
X114613084Y-99198562D01*
X114604922Y-99162600D01*
X114611339Y-99086193D01*
X114642606Y-99015238D01*
X114676949Y-98976001D01*
X114739268Y-98943611D01*
X114816080Y-98932578D01*
X114895331Y-98943228D01*
X114953900Y-98968505D01*
X114998842Y-99009398D01*
X115040027Y-99068499D01*
X115069618Y-99132409D01*
X115079867Y-99183919D01*
X115094929Y-99222956D01*
X115132716Y-99255136D01*
X115182128Y-99271891D01*
X115194843Y-99272666D01*
X115223778Y-99266391D01*
X115226223Y-99243996D01*
X115225949Y-99243033D01*
X115200149Y-99143201D01*
X115188889Y-99066483D01*
X115192231Y-99005375D01*
X115210235Y-98952376D01*
X115228536Y-98920682D01*
X115280294Y-98869615D01*
X115346533Y-98843193D01*
X115417959Y-98841944D01*
X115485278Y-98866394D01*
X115528965Y-98903655D01*
X115560351Y-98955810D01*
X115570816Y-99019580D01*
X115570934Y-99029273D01*
X115565059Y-99086234D01*
X115549969Y-99140963D01*
X115529468Y-99183602D01*
X115507359Y-99204295D01*
X115503156Y-99204933D01*
X115483169Y-99217691D01*
X115460054Y-99246131D01*
X115442749Y-99284698D01*
X115450191Y-99319247D01*
X115451793Y-99322331D01*
X115473943Y-99351427D01*
X115495546Y-99350679D01*
X115519316Y-99318803D01*
X115536599Y-99282224D01*
X115581859Y-99208254D01*
X115641975Y-99164355D01*
X115718335Y-99149522D01*
X115720261Y-99149515D01*
X115803428Y-99163072D01*
X115867221Y-99200588D01*
X115908005Y-99257326D01*
X115922145Y-99328550D01*
X115910411Y-99397210D01*
X115874630Y-99460885D01*
X115812807Y-99509319D01*
X115723334Y-99544542D01*
X115663126Y-99564104D01*
X115631172Y-99581745D01*
X115622281Y-99600885D01*
X115624082Y-99609912D01*
X115641656Y-99613995D01*
X115682112Y-99599781D01*
X115709878Y-99585994D01*
X115803804Y-99550854D01*
X115876652Y-99543600D01*
X115933355Y-99546675D01*
X115972605Y-99560194D01*
X116010579Y-99590591D01*
X116021360Y-99601173D01*
X116059667Y-99646440D01*
X116076314Y-99689564D01*
X116078934Y-99725889D01*
X116063840Y-99800621D01*
X116022218Y-99859884D01*
X115959552Y-99899252D01*
X115881330Y-99914301D01*
X115847489Y-99912587D01*
X115809838Y-99909540D01*
X115801981Y-99913732D01*
X115815277Y-99923390D01*
X115840495Y-99940262D01*
X115886295Y-99972665D01*
X115946103Y-100015894D01*
X116011409Y-100063812D01*
X116093273Y-100126869D01*
X116150242Y-100178484D01*
X116186532Y-100224521D01*
X116206358Y-100270844D01*
X116213938Y-100323314D01*
X116214484Y-100346226D01*
X116198663Y-100441624D01*
X116152724Y-100542521D01*
X116079393Y-100646157D01*
X115981399Y-100749772D01*
X115861466Y-100850607D01*
X115722322Y-100945902D01*
X115566694Y-101032898D01*
X115507961Y-101061280D01*
X115431842Y-101094948D01*
X115359421Y-101124084D01*
X115300794Y-101144766D01*
X115274990Y-101151794D01*
X115204456Y-101167561D01*
X115128246Y-101186634D01*
X115054171Y-101206799D01*
X114990039Y-101225847D01*
X114943662Y-101241565D01*
X114923151Y-101251409D01*
X114921936Y-101269034D01*
X114943893Y-101297777D01*
X114990258Y-101338605D01*
X115062265Y-101392486D01*
X115161153Y-101460387D01*
X115288156Y-101543275D01*
X115331399Y-101570874D01*
X115492992Y-101676515D01*
X115627419Y-101771500D01*
X115738326Y-101859229D01*
X115829358Y-101943106D01*
X115904162Y-102026530D01*
X115966381Y-102112904D01*
X116019663Y-102205629D01*
X116026843Y-102219763D01*
X116067803Y-102309239D01*
X116104894Y-102403976D01*
X116132663Y-102489587D01*
X116139982Y-102518239D01*
X116156956Y-102623042D01*
X116167214Y-102753252D01*
X116170718Y-102901078D01*
X116167430Y-103058726D01*
X116157315Y-103218403D01*
X116143931Y-103345133D01*
X116132768Y-103435910D01*
X116126351Y-103499260D01*
X116124648Y-103541282D01*
X116127626Y-103568078D01*
X116135254Y-103585748D01*
X116142610Y-103595139D01*
X116172214Y-103614480D01*
X116210059Y-103610928D01*
X116260966Y-103583145D01*
X116304973Y-103550159D01*
X116335899Y-103526398D01*
X116362771Y-103511344D01*
X116394132Y-103503267D01*
X116438525Y-103500437D01*
X116504492Y-103501123D01*
X116542285Y-103502085D01*
X116713934Y-103506638D01*
X116858168Y-103379000D01*
X116807218Y-103304485D01*
X116767437Y-103222427D01*
X116755951Y-103140415D01*
X116769852Y-103063832D01*
X116806232Y-102998063D01*
X116862184Y-102948492D01*
X116934801Y-102920503D01*
X117015559Y-102918668D01*
X117070285Y-102934459D01*
X117117159Y-102961409D01*
X117121445Y-102965177D01*
X117161841Y-103021567D01*
X117192282Y-103100331D01*
X117209461Y-103190639D01*
X117211601Y-103260632D01*
X117213318Y-103329246D01*
X117229187Y-103372872D01*
X117263666Y-103398972D01*
X117301330Y-103410826D01*
X117327026Y-103413415D01*
X117350318Y-103404179D01*
X117378083Y-103378062D01*
X117417200Y-103330006D01*
X117424999Y-103319907D01*
X117466755Y-103268456D01*
X117504240Y-103227161D01*
X117530017Y-103204152D01*
X117531870Y-103203059D01*
X117573426Y-103190462D01*
X117634517Y-103182581D01*
X117700951Y-103181055D01*
X117715935Y-103181805D01*
X117764885Y-103199257D01*
X117814926Y-103239255D01*
X117856161Y-103292307D01*
X117875232Y-103334544D01*
X117884673Y-103378011D01*
X117881012Y-103416460D01*
X117862231Y-103465375D01*
X117856616Y-103477492D01*
X117814073Y-103548472D01*
X117760504Y-103596502D01*
X117688484Y-103626346D01*
X117600758Y-103641705D01*
X117511455Y-103657345D01*
X117454492Y-103681309D01*
X117429294Y-103713965D01*
X117432319Y-103748561D01*
X117459892Y-103782456D01*
X117512501Y-103799071D01*
X117592421Y-103799054D01*
X117605840Y-103797769D01*
X117668890Y-103796864D01*
X117720264Y-103812749D01*
X117745754Y-103827045D01*
X117797554Y-103865571D01*
X117826553Y-103908141D01*
X117838549Y-103966004D01*
X117840000Y-104009935D01*
X117828401Y-104085565D01*
X117791526Y-104140068D01*
X117726257Y-104177909D01*
X117721467Y-104179711D01*
X117643164Y-104192535D01*
X117566303Y-104172362D01*
X117489754Y-104118822D01*
X117466926Y-104096455D01*
X117411196Y-104042926D01*
X117373425Y-104017514D01*
X117353084Y-104019958D01*
X117348934Y-104038316D01*
X117362555Y-104060805D01*
X117396823Y-104088674D01*
X117414109Y-104099263D01*
X117480716Y-104155758D01*
X117515709Y-104210866D01*
X117546600Y-104300631D01*
X117546699Y-104378322D01*
X117516223Y-104442792D01*
X117463656Y-104488062D01*
X117388816Y-104516990D01*
X117315729Y-104515069D01*
X117248490Y-104485235D01*
X117191195Y-104430422D01*
X117147939Y-104353568D01*
X117122819Y-104257608D01*
X117120934Y-104242372D01*
X117113164Y-104180531D01*
X117103167Y-104146875D01*
X117085925Y-104135841D01*
X117056419Y-104141863D01*
X117036770Y-104149047D01*
X117013812Y-104160194D01*
X117000788Y-104177404D01*
X116994904Y-104209244D01*
X116993367Y-104264280D01*
X116993334Y-104282230D01*
X116986534Y-104371368D01*
X116963592Y-104436379D01*
X116920691Y-104484679D01*
X116874146Y-104513871D01*
X116799569Y-104536389D01*
X116729793Y-104525977D01*
X116667877Y-104483526D01*
X116636825Y-104444658D01*
X116607207Y-104370900D01*
X116607197Y-104290502D01*
X116635461Y-104210594D01*
X116690667Y-104138303D01*
X116694870Y-104134305D01*
X116722939Y-104099404D01*
X116723738Y-104075699D01*
X116702025Y-104063370D01*
X116662556Y-104062598D01*
X116610085Y-104073563D01*
X116549370Y-104096445D01*
X116492804Y-104126640D01*
X116427644Y-104166460D01*
X116349187Y-104214071D01*
X116273213Y-104259900D01*
X116265200Y-104264712D01*
X116156879Y-104330555D01*
X116074241Y-104382918D01*
X116013290Y-104424628D01*
X115970030Y-104458515D01*
X115940464Y-104487406D01*
X115927498Y-104503712D01*
X115900982Y-104545977D01*
X115896258Y-104577413D01*
X115914144Y-104611452D01*
X115935696Y-104638271D01*
X115987880Y-104680947D01*
X116072972Y-104724431D01*
X116117729Y-104742589D01*
X116226538Y-104792417D01*
X116314816Y-104853114D01*
X116387019Y-104929874D01*
X116447604Y-105027891D01*
X116501025Y-105152360D01*
X116522688Y-105214657D01*
X116569861Y-105404117D01*
X116594646Y-105617793D01*
X116596986Y-105854438D01*
X116576821Y-106112803D01*
X116568145Y-106181466D01*
X116520424Y-106416020D01*
X116441680Y-106651181D01*
X116334080Y-106880828D01*
X116297456Y-106946088D01*
X116257244Y-107009904D01*
X116220755Y-107052569D01*
X116178243Y-107084000D01*
X116143537Y-107102721D01*
X116093330Y-107125092D01*
X116045655Y-107138421D01*
X115988662Y-107144885D01*
X115910505Y-107146661D01*
X115904413Y-107146666D01*
X115827909Y-107145513D01*
X115773045Y-107140302D01*
X115727628Y-107128404D01*
X115679460Y-107107191D01*
X115649504Y-107091726D01*
X115578825Y-107045867D01*
X115494050Y-106977030D01*
X115400270Y-106890149D01*
X115302576Y-106790152D01*
X115206058Y-106681972D01*
X115128826Y-106587372D01*
X114975922Y-106377221D01*
X114848626Y-106172151D01*
X114747727Y-105974066D01*
X114674017Y-105784865D01*
X114628286Y-105606450D01*
X114611324Y-105440723D01*
X114614924Y-105351733D01*
X114630731Y-105255504D01*
X114660344Y-105173938D01*
X114708751Y-105097510D01*
X114780938Y-105016694D01*
X114800329Y-104997551D01*
X114849198Y-104947724D01*
X114886952Y-104904697D01*
X114908000Y-104875055D01*
X114910534Y-104867734D01*
X114896645Y-104834605D01*
X114855791Y-104783979D01*
X114789190Y-104717137D01*
X114698059Y-104635360D01*
X114654559Y-104598374D01*
X114586599Y-104543160D01*
X114515243Y-104488214D01*
X114446248Y-104437627D01*
X114385367Y-104395489D01*
X114338357Y-104365892D01*
X114310973Y-104352924D01*
X114308840Y-104352666D01*
X114291319Y-104346091D01*
X114248346Y-104327929D01*
X114185338Y-104300527D01*
X114107713Y-104266231D01*
X114054764Y-104242600D01*
X113939157Y-104192547D01*
X113848865Y-104158102D01*
X113779546Y-104138516D01*
X113726862Y-104133040D01*
X113686470Y-104140926D01*
X113654030Y-104161426D01*
X113643517Y-104171691D01*
X113606729Y-104210849D01*
X113716941Y-104210850D01*
X113805741Y-104218286D01*
X113869440Y-104242943D01*
X113913911Y-104288339D01*
X113940657Y-104344948D01*
X113955116Y-104406540D01*
X113949031Y-104463467D01*
X113946491Y-104472644D01*
X113918209Y-104527192D01*
X113870270Y-104559947D01*
X113800350Y-104571552D01*
X113706125Y-104562652D01*
X113657502Y-104552668D01*
X113604370Y-104542122D01*
X113574241Y-104542019D01*
X113557780Y-104552742D01*
X113554869Y-104556901D01*
X113539719Y-104603089D01*
X113554103Y-104640364D01*
X113579641Y-104656848D01*
X113641244Y-104693402D01*
X113677590Y-104748674D01*
X113691121Y-104826671D01*
X113691334Y-104840152D01*
X113688737Y-104897636D01*
X113677041Y-104936588D01*
X113650390Y-104972188D01*
X113633761Y-104989359D01*
X113583951Y-105029989D01*
X113536445Y-105045972D01*
X113519461Y-105046870D01*
X113443471Y-105031112D01*
X113378842Y-104987993D01*
X113330894Y-104923473D01*
X113304949Y-104843515D01*
X113301867Y-104803074D01*
X113298754Y-104763157D01*
X113291074Y-104742627D01*
X113289167Y-104741902D01*
X113264197Y-104737723D01*
X113238367Y-104731460D01*
X113216735Y-104727961D01*
X113205362Y-104737243D01*
X113200967Y-104766580D01*
X113200267Y-104815968D01*
X113194482Y-104882831D01*
X113173152Y-104926610D01*
X113130316Y-104953738D01*
X113060010Y-104970644D01*
X113056334Y-104971231D01*
X113001715Y-104973889D01*
X112955440Y-104958034D01*
X112929334Y-104941883D01*
X112893193Y-104913701D01*
X112874602Y-104883882D01*
X112866652Y-104838846D01*
X112865017Y-104815482D01*
X112860529Y-104764209D01*
X112850927Y-104737013D01*
X112830328Y-104724115D01*
X112806635Y-104718440D01*
X112738422Y-104698357D01*
X112697839Y-104667029D01*
X112678911Y-104617429D01*
X112675334Y-104563942D01*
X112679484Y-104498946D01*
X112693699Y-104456853D01*
X112708101Y-104438432D01*
X112746814Y-104412712D01*
X112803000Y-104388830D01*
X112860537Y-104372898D01*
X112889422Y-104369694D01*
X112911503Y-104355973D01*
X112919055Y-104342815D01*
X112928545Y-104311548D01*
X112921327Y-104305824D01*
X112911302Y-104311012D01*
X112874574Y-104317189D01*
X112823452Y-104307023D01*
X112770797Y-104284275D01*
X112736663Y-104259961D01*
X112708131Y-104226401D01*
X112695059Y-104186487D01*
X112692267Y-104135217D01*
X112702460Y-104057941D01*
X112732246Y-104005919D01*
X112780433Y-103980978D01*
X112793867Y-103979273D01*
X112873417Y-103977624D01*
X112931128Y-103987299D01*
X112977903Y-104010964D01*
X113002119Y-104030206D01*
X113059150Y-104080280D01*
X113133942Y-104043851D01*
X113175693Y-104022832D01*
X113204155Y-104003680D01*
X113225165Y-103978693D01*
X113244562Y-103940168D01*
X113268184Y-103880402D01*
X113278495Y-103853133D01*
X113329362Y-103727982D01*
X113376901Y-103632308D01*
X113423505Y-103562208D01*
X113471565Y-103513777D01*
X113497269Y-103496246D01*
X113568383Y-103454570D01*
X113744158Y-103514564D01*
X113816522Y-103537079D01*
X113902374Y-103560408D01*
X113994966Y-103583109D01*
X114087546Y-103603740D01*
X114173365Y-103620860D01*
X114245671Y-103633027D01*
X114297715Y-103638800D01*
X114320739Y-103637687D01*
X114320619Y-103622549D01*
X114302892Y-103588855D01*
X114274657Y-103548334D01*
X114195699Y-103417261D01*
X114144914Y-103268812D01*
X114122637Y-103104902D01*
X114129205Y-102927444D01*
X114146519Y-102818284D01*
X114161324Y-102748540D01*
X114175028Y-102690839D01*
X114185540Y-102653704D01*
X114188900Y-102645583D01*
X114197290Y-102621684D01*
X114210204Y-102573144D01*
X114225444Y-102508516D01*
X114232870Y-102474614D01*
X114248023Y-102400166D01*
X114255530Y-102348709D01*
X114255680Y-102310310D01*
X114248763Y-102275036D01*
X114239542Y-102245918D01*
X114216126Y-102198726D01*
X114179623Y-102147226D01*
X114137439Y-102099708D01*
X114096978Y-102064463D01*
X114065645Y-102049779D01*
X114064303Y-102049733D01*
X114048407Y-102064112D01*
X114034718Y-102096300D01*
X114022225Y-102128384D01*
X113997350Y-102183285D01*
X113963466Y-102253842D01*
X113923946Y-102332894D01*
X113915607Y-102349201D01*
X113837011Y-102491475D01*
X113761831Y-102603031D01*
X113686922Y-102686378D01*
X113609137Y-102744024D01*
X113525331Y-102778476D01*
X113432358Y-102792242D01*
X113361403Y-102791005D01*
X113312499Y-102785010D01*
X113264694Y-102772535D01*
X113212810Y-102750938D01*
X113151668Y-102717574D01*
X113076089Y-102669802D01*
X112980895Y-102604978D01*
X112937800Y-102574833D01*
X112879566Y-102536462D01*
X112828254Y-102507227D01*
X112792544Y-102491924D01*
X112785728Y-102490752D01*
X112751925Y-102496630D01*
X112700670Y-102512554D01*
X112662430Y-102527202D01*
X112610270Y-102551512D01*
X112585885Y-102571013D01*
X112584354Y-102589729D01*
X112584782Y-102590702D01*
X112599676Y-102647084D01*
X112604264Y-102718525D01*
X112598687Y-102789348D01*
X112583083Y-102843875D01*
X112582529Y-102844965D01*
X112539270Y-102896762D01*
X112478292Y-102930020D01*
X112408268Y-102944335D01*
X112337868Y-102939303D01*
X112275763Y-102914523D01*
X112230625Y-102869590D01*
X112226086Y-102861538D01*
X112205726Y-102791220D01*
X112204046Y-102700045D01*
X112221069Y-102595418D01*
X112225264Y-102578919D01*
X112238103Y-102527209D01*
X112240205Y-102496910D01*
X112229791Y-102476774D01*
X112205846Y-102456152D01*
X112170978Y-102432530D01*
X112146261Y-102422279D01*
X112145777Y-102422266D01*
X112125031Y-102432968D01*
X112088803Y-102460676D01*
X112055306Y-102490000D01*
X112007276Y-102530315D01*
X111967867Y-102550764D01*
X111923950Y-102557439D01*
X111909479Y-102557670D01*
X111824616Y-102543365D01*
X111754999Y-102504093D01*
X111705558Y-102445075D01*
X111681224Y-102371531D01*
X111681486Y-102316246D01*
X111704300Y-102243676D01*
X111751738Y-102189839D01*
X111825387Y-102153773D01*
X111926836Y-102134518D01*
X111987875Y-102130910D01*
X112044405Y-102126983D01*
X112075113Y-102117294D01*
X112087891Y-102099292D01*
X112088101Y-102098516D01*
X112084103Y-102073565D01*
X112052013Y-102058927D01*
X112049056Y-102058256D01*
X111988146Y-102033098D01*
X111924229Y-101988399D01*
X111870870Y-101934149D01*
X111859824Y-101918845D01*
X111838740Y-101869383D01*
X111828876Y-101811830D01*
X111828779Y-101806760D01*
X111843955Y-101741731D01*
X111884281Y-101687708D01*
X111941597Y-101649569D01*
X112007747Y-101632191D01*
X112074572Y-101640454D01*
X112093350Y-101648567D01*
X112140843Y-101679155D01*
X112180992Y-101721208D01*
X112221729Y-101783636D01*
X112235670Y-101808433D01*
X112261284Y-101850357D01*
X112282148Y-101876299D01*
X112288985Y-101880399D01*
X112299848Y-101877553D01*
X112299039Y-101864953D01*
X112284208Y-101836506D01*
X112253003Y-101786121D01*
X112252000Y-101784539D01*
X112215677Y-101717014D01*
X112203077Y-101659974D01*
X112212657Y-101601354D01*
X112224518Y-101569506D01*
X112264409Y-101515085D01*
X112327972Y-101483852D01*
X112413445Y-101476634D01*
X112421541Y-101477145D01*
X112478133Y-101488206D01*
X112518616Y-101514901D01*
X112545969Y-101561927D01*
X112563175Y-101633984D01*
X112571712Y-101713833D01*
X112577706Y-101783333D01*
X112584364Y-101825566D01*
X112593724Y-101847103D01*
X112607819Y-101854516D01*
X112615433Y-101854999D01*
X112634024Y-101851358D01*
X112648213Y-101836268D01*
X112660855Y-101803483D01*
X112674806Y-101746757D01*
X112683405Y-101706308D01*
X112707956Y-101661007D01*
X112754984Y-101622107D01*
X112813128Y-101597388D01*
X112849444Y-101592596D01*
X112932215Y-101605943D01*
X112993604Y-101643635D01*
X113030590Y-101701779D01*
X113040150Y-101776479D01*
X113031563Y-101827261D01*
X113015899Y-101869131D01*
X112989746Y-101906903D01*
X112947119Y-101947127D01*
X112882038Y-101996355D01*
X112868100Y-102006238D01*
X112821685Y-102038944D01*
X112938074Y-102078205D01*
X113034857Y-102104778D01*
X113119123Y-102116090D01*
X113184791Y-102111751D01*
X113220420Y-102096299D01*
X113233065Y-102077782D01*
X113242717Y-102041774D01*
X113250229Y-101983191D01*
X113256454Y-101896945D01*
X113257732Y-101873805D01*
X113284953Y-101653982D01*
X113342304Y-101448078D01*
X113420982Y-101272912D01*
X113470241Y-101181890D01*
X113362460Y-100891912D01*
X113304026Y-100729765D01*
X113250872Y-100570914D01*
X113200483Y-100407043D01*
X113150348Y-100229836D01*
X113097954Y-100030978D01*
X113075305Y-99941533D01*
X112993070Y-99642166D01*
X112904493Y-99375330D01*
X112809117Y-99140203D01*
X112706486Y-98935963D01*
X112596143Y-98761789D01*
X112477633Y-98616861D01*
X112350497Y-98500356D01*
X112229247Y-98419641D01*
X112125219Y-98369165D01*
X112016503Y-98333383D01*
X111893550Y-98309829D01*
X111751645Y-98296333D01*
X111575618Y-98297741D01*
X111398483Y-98321981D01*
X111226942Y-98366918D01*
X111067699Y-98430416D01*
X110927454Y-98510339D01*
X110826643Y-98591066D01*
X110731162Y-98695091D01*
X110656976Y-98807478D01*
X110598564Y-98937646D01*
X110567131Y-99033875D01*
X110547506Y-99107416D01*
X110534860Y-99173893D01*
X110528962Y-99241138D01*
X110529585Y-99316985D01*
X110536500Y-99409267D01*
X110549477Y-99525816D01*
X110552128Y-99547460D01*
X110555981Y-99599242D01*
X110548014Y-99633519D01*
X110523302Y-99665943D01*
X110510845Y-99678693D01*
X110449889Y-99720804D01*
X110387001Y-99731465D01*
X110326881Y-99712437D01*
X110274233Y-99665482D01*
X110233758Y-99592360D01*
X110226753Y-99572303D01*
X110215868Y-99520195D01*
X110206576Y-99442415D01*
X110199178Y-99347129D01*
X110193975Y-99242507D01*
X110191271Y-99136717D01*
X110191365Y-99037927D01*
X110194562Y-98954307D01*
X110201161Y-98894024D01*
X110201605Y-98891666D01*
X110223183Y-98810696D01*
X110257371Y-98714971D01*
X110298578Y-98618297D01*
X110341210Y-98534478D01*
X110356833Y-98508537D01*
X110401480Y-98449595D01*
X110466440Y-98377456D01*
X110544673Y-98298885D01*
X110629134Y-98220647D01*
X110712780Y-98149509D01*
X110788570Y-98092235D01*
X110794300Y-98088307D01*
X110971313Y-97985227D01*
X111166908Y-97901974D01*
X111287932Y-97863886D01*
X111344787Y-97849403D01*
X111397766Y-97839004D01*
X111454213Y-97832064D01*
X111521470Y-97827960D01*
X111606881Y-97826065D01*
X111717789Y-97825755D01*
X111735534Y-97825802D01*
D16*
X152770000Y-96740000D02*
X153270000Y-96740000D01*
X153270000Y-98940000D02*
X152770000Y-98940000D01*
X152770000Y-100740000D02*
X153270000Y-100740000D01*
X152770000Y-103290000D02*
X156270000Y-103290000D01*
X152770000Y-94390000D02*
X152770000Y-103290000D01*
X156270000Y-103290000D02*
X156270000Y-101340000D01*
X154270000Y-93780000D02*
X154270000Y-94390000D01*
X156880000Y-96340000D02*
X156270000Y-96340000D01*
X156270000Y-96340000D02*
X156270000Y-94390000D01*
X153270000Y-96940000D02*
X152770000Y-96940000D01*
X157180000Y-94730000D02*
X157180000Y-93480000D01*
X157080000Y-95540000D02*
X157080000Y-95240000D01*
X156270000Y-101340000D02*
X156880000Y-101340000D01*
X156880000Y-93780000D02*
X152160000Y-93780000D01*
X153270000Y-100740000D02*
X153270000Y-100940000D01*
X156880000Y-95540000D02*
X157080000Y-95540000D01*
X156270000Y-94390000D02*
X152770000Y-94390000D01*
X155570000Y-93780000D02*
X155570000Y-94390000D01*
X156980000Y-95540000D02*
X156980000Y-95240000D01*
X152160000Y-93780000D02*
X152160000Y-103900000D01*
X152770000Y-98840000D02*
X153270000Y-98840000D01*
X157180000Y-93480000D02*
X155930000Y-93480000D01*
X156880000Y-103900000D02*
X156880000Y-93780000D01*
X152160000Y-103900000D02*
X156880000Y-103900000D01*
X152770000Y-96840000D02*
X153270000Y-96840000D01*
X157080000Y-95240000D02*
X156880000Y-95240000D01*
X153270000Y-96740000D02*
X153270000Y-96940000D01*
X153270000Y-98740000D02*
X153270000Y-98940000D01*
X152770000Y-98740000D02*
X153270000Y-98740000D01*
X155570000Y-103900000D02*
X155570000Y-103290000D01*
X154270000Y-103900000D02*
X154270000Y-103290000D01*
X152770000Y-100840000D02*
X153270000Y-100840000D01*
X153270000Y-100940000D02*
X152770000Y-100940000D01*
X154330000Y-114570000D02*
X154330000Y-113960000D01*
X153330000Y-107410000D02*
X153330000Y-107610000D01*
X155630000Y-114570000D02*
X155630000Y-113960000D01*
X153330000Y-111410000D02*
X153330000Y-111610000D01*
X156940000Y-106210000D02*
X157140000Y-106210000D01*
X157240000Y-105400000D02*
X157240000Y-104150000D01*
X152830000Y-109510000D02*
X153330000Y-109510000D01*
X155630000Y-104450000D02*
X155630000Y-105060000D01*
X156330000Y-105060000D02*
X152830000Y-105060000D01*
X152830000Y-107510000D02*
X153330000Y-107510000D01*
X153330000Y-109610000D02*
X152830000Y-109610000D01*
X153330000Y-109410000D02*
X153330000Y-109610000D01*
X156330000Y-113960000D02*
X156330000Y-112010000D01*
X153330000Y-107610000D02*
X152830000Y-107610000D01*
X152830000Y-107410000D02*
X153330000Y-107410000D01*
X156940000Y-114570000D02*
X156940000Y-104450000D01*
X156940000Y-107010000D02*
X156330000Y-107010000D01*
X153330000Y-111610000D02*
X152830000Y-111610000D01*
X152220000Y-114570000D02*
X156940000Y-114570000D01*
X152830000Y-109410000D02*
X153330000Y-109410000D01*
X152830000Y-113960000D02*
X156330000Y-113960000D01*
X152220000Y-104450000D02*
X152220000Y-114570000D01*
X157040000Y-106210000D02*
X157040000Y-105910000D01*
X156330000Y-112010000D02*
X156940000Y-112010000D01*
X156330000Y-107010000D02*
X156330000Y-105060000D01*
X152830000Y-111510000D02*
X153330000Y-111510000D01*
X152830000Y-105060000D02*
X152830000Y-113960000D01*
X157140000Y-106210000D02*
X157140000Y-105910000D01*
X157140000Y-105910000D02*
X156940000Y-105910000D01*
X157240000Y-104150000D02*
X155990000Y-104150000D01*
X152830000Y-111410000D02*
X153330000Y-111410000D01*
X156940000Y-104450000D02*
X152220000Y-104450000D01*
X154330000Y-104450000D02*
X154330000Y-105060000D01*
X129827500Y-93947258D02*
X129827500Y-93472742D01*
X130872500Y-93947258D02*
X130872500Y-93472742D01*
X130165000Y-75820580D02*
X130165000Y-75539420D01*
X131185000Y-75820580D02*
X131185000Y-75539420D01*
X131615000Y-75791252D02*
X131615000Y-75268748D01*
X133085000Y-75791252D02*
X133085000Y-75268748D01*
X125895000Y-72000000D02*
X126395000Y-72000000D01*
X125895000Y-72500000D02*
X125895000Y-72000000D01*
X129195000Y-72000000D02*
X129195000Y-72500000D01*
X128695000Y-72000000D02*
X129195000Y-72000000D01*
X129095000Y-77200000D02*
X128145000Y-77200000D01*
X126395000Y-77200000D02*
X125895000Y-77200000D01*
X125895000Y-77200000D02*
X125895000Y-76700000D01*
X137795000Y-142878748D02*
X137795000Y-143401252D01*
X139265000Y-142878748D02*
X139265000Y-143401252D01*
X156890000Y-83150000D02*
X152170000Y-83150000D01*
X154280000Y-83150000D02*
X154280000Y-83760000D01*
X156890000Y-84910000D02*
X157090000Y-84910000D01*
X154280000Y-93270000D02*
X154280000Y-92660000D01*
X155580000Y-83150000D02*
X155580000Y-83760000D01*
X157190000Y-82850000D02*
X155940000Y-82850000D01*
X157090000Y-84610000D02*
X156890000Y-84610000D01*
X156990000Y-84910000D02*
X156990000Y-84610000D01*
X152780000Y-83760000D02*
X152780000Y-92660000D01*
X152780000Y-86110000D02*
X153280000Y-86110000D01*
X156890000Y-93270000D02*
X156890000Y-83150000D01*
X153280000Y-88310000D02*
X152780000Y-88310000D01*
X152780000Y-90210000D02*
X153280000Y-90210000D01*
X156280000Y-83760000D02*
X152780000Y-83760000D01*
X152780000Y-90110000D02*
X153280000Y-90110000D01*
X156280000Y-92660000D02*
X156280000Y-90710000D01*
X153280000Y-86110000D02*
X153280000Y-86310000D01*
X157190000Y-84100000D02*
X157190000Y-82850000D01*
X152780000Y-92660000D02*
X156280000Y-92660000D01*
X157090000Y-84910000D02*
X157090000Y-84610000D01*
X152170000Y-93270000D02*
X156890000Y-93270000D01*
X156280000Y-85710000D02*
X156280000Y-83760000D01*
X152780000Y-86210000D02*
X153280000Y-86210000D01*
X153280000Y-90110000D02*
X153280000Y-90310000D01*
X155580000Y-93270000D02*
X155580000Y-92660000D01*
X152170000Y-83150000D02*
X152170000Y-93270000D01*
X152780000Y-88110000D02*
X153280000Y-88110000D01*
X153280000Y-88110000D02*
X153280000Y-88310000D01*
X156280000Y-90710000D02*
X156890000Y-90710000D01*
X152780000Y-88210000D02*
X153280000Y-88210000D01*
X153280000Y-86310000D02*
X152780000Y-86310000D01*
X153280000Y-90310000D02*
X152780000Y-90310000D01*
X156890000Y-85710000D02*
X156280000Y-85710000D01*
X134020000Y-142800000D02*
X135820000Y-142800000D01*
X134020000Y-139680000D02*
X134820000Y-139680000D01*
X134020000Y-142800000D02*
X133220000Y-142800000D01*
X134020000Y-139680000D02*
X133220000Y-139680000D01*
X130640000Y-142829420D02*
X130640000Y-143110580D01*
X131660000Y-142829420D02*
X131660000Y-143110580D01*
X132292500Y-93927258D02*
X132292500Y-93452742D01*
X131247500Y-93927258D02*
X131247500Y-93452742D01*
M02*
