G04 #@! TF.GenerationSoftware,KiCad,Pcbnew,(6.0.5)*
G04 #@! TF.CreationDate,2022-05-13T10:55:27+02:00*
G04 #@! TF.ProjectId,ruche,72756368-652e-46b6-9963-61645f706362,rev?*
G04 #@! TF.SameCoordinates,Original*
G04 #@! TF.FileFunction,Legend,Bot*
G04 #@! TF.FilePolarity,Positive*
%FSLAX46Y46*%
G04 Gerber Fmt 4.6, Leading zero omitted, Abs format (unit mm)*
G04 Created by KiCad (PCBNEW (6.0.5)) date 2022-05-13 10:55:27*
%MOMM*%
%LPD*%
G01*
G04 APERTURE LIST*
%ADD10C,0.300000*%
%ADD11C,0.150000*%
%ADD12C,0.120000*%
%ADD13C,0.010000*%
G04 APERTURE END LIST*
D10*
X105665000Y-143722142D02*
X104522142Y-143722142D01*
X112950714Y-146637142D02*
X112736428Y-146708571D01*
X112379285Y-146708571D01*
X112236428Y-146637142D01*
X112165000Y-146565714D01*
X112093571Y-146422857D01*
X112093571Y-146280000D01*
X112165000Y-146137142D01*
X112236428Y-146065714D01*
X112379285Y-145994285D01*
X112665000Y-145922857D01*
X112807857Y-145851428D01*
X112879285Y-145780000D01*
X112950714Y-145637142D01*
X112950714Y-145494285D01*
X112879285Y-145351428D01*
X112807857Y-145280000D01*
X112665000Y-145208571D01*
X112307857Y-145208571D01*
X112093571Y-145280000D01*
X111236428Y-146708571D02*
X111379285Y-146637142D01*
X111450714Y-146565714D01*
X111522142Y-146422857D01*
X111522142Y-145994285D01*
X111450714Y-145851428D01*
X111379285Y-145780000D01*
X111236428Y-145708571D01*
X111022142Y-145708571D01*
X110879285Y-145780000D01*
X110807857Y-145851428D01*
X110736428Y-145994285D01*
X110736428Y-146422857D01*
X110807857Y-146565714D01*
X110879285Y-146637142D01*
X111022142Y-146708571D01*
X111236428Y-146708571D01*
X109879285Y-146708571D02*
X110022142Y-146637142D01*
X110093571Y-146494285D01*
X110093571Y-145208571D01*
X108665000Y-146708571D02*
X108665000Y-145922857D01*
X108736428Y-145780000D01*
X108879285Y-145708571D01*
X109165000Y-145708571D01*
X109307857Y-145780000D01*
X108665000Y-146637142D02*
X108807857Y-146708571D01*
X109165000Y-146708571D01*
X109307857Y-146637142D01*
X109379285Y-146494285D01*
X109379285Y-146351428D01*
X109307857Y-146208571D01*
X109165000Y-146137142D01*
X108807857Y-146137142D01*
X108665000Y-146065714D01*
X107950714Y-146708571D02*
X107950714Y-145708571D01*
X107950714Y-145994285D02*
X107879285Y-145851428D01*
X107807857Y-145780000D01*
X107665000Y-145708571D01*
X107522142Y-145708571D01*
X105879285Y-146708571D02*
X105879285Y-145708571D01*
X105879285Y-145208571D02*
X105950714Y-145280000D01*
X105879285Y-145351428D01*
X105807857Y-145280000D01*
X105879285Y-145208571D01*
X105879285Y-145351428D01*
X105165000Y-145708571D02*
X105165000Y-146708571D01*
X105165000Y-145851428D02*
X105093571Y-145780000D01*
X104950714Y-145708571D01*
X104736428Y-145708571D01*
X104593571Y-145780000D01*
X104522142Y-145922857D01*
X104522142Y-146708571D01*
X105665000Y-148552142D02*
X104522142Y-148552142D01*
X105093571Y-149123571D02*
X105093571Y-147980714D01*
X151941428Y-159618571D02*
X151655714Y-159618571D01*
X151512857Y-159690000D01*
X151370000Y-159832857D01*
X151298571Y-160118571D01*
X151298571Y-160618571D01*
X151370000Y-160904285D01*
X151512857Y-161047142D01*
X151655714Y-161118571D01*
X151941428Y-161118571D01*
X152084285Y-161047142D01*
X152227142Y-160904285D01*
X152298571Y-160618571D01*
X152298571Y-160118571D01*
X152227142Y-159832857D01*
X152084285Y-159690000D01*
X151941428Y-159618571D01*
X150655714Y-160118571D02*
X150655714Y-161618571D01*
X150655714Y-160190000D02*
X150512857Y-160118571D01*
X150227142Y-160118571D01*
X150084285Y-160190000D01*
X150012857Y-160261428D01*
X149941428Y-160404285D01*
X149941428Y-160832857D01*
X150012857Y-160975714D01*
X150084285Y-161047142D01*
X150227142Y-161118571D01*
X150512857Y-161118571D01*
X150655714Y-161047142D01*
X148727142Y-161047142D02*
X148870000Y-161118571D01*
X149155714Y-161118571D01*
X149298571Y-161047142D01*
X149370000Y-160904285D01*
X149370000Y-160332857D01*
X149298571Y-160190000D01*
X149155714Y-160118571D01*
X148870000Y-160118571D01*
X148727142Y-160190000D01*
X148655714Y-160332857D01*
X148655714Y-160475714D01*
X149370000Y-160618571D01*
X148012857Y-160118571D02*
X148012857Y-161118571D01*
X148012857Y-160261428D02*
X147941428Y-160190000D01*
X147798571Y-160118571D01*
X147584285Y-160118571D01*
X147441428Y-160190000D01*
X147370000Y-160332857D01*
X147370000Y-161118571D01*
X145512857Y-161118571D02*
X145512857Y-159618571D01*
X145512857Y-160190000D02*
X145370000Y-160118571D01*
X145084285Y-160118571D01*
X144941428Y-160190000D01*
X144870000Y-160261428D01*
X144798571Y-160404285D01*
X144798571Y-160832857D01*
X144870000Y-160975714D01*
X144941428Y-161047142D01*
X145084285Y-161118571D01*
X145370000Y-161118571D01*
X145512857Y-161047142D01*
X143584285Y-161047142D02*
X143727142Y-161118571D01*
X144012857Y-161118571D01*
X144155714Y-161047142D01*
X144227142Y-160904285D01*
X144227142Y-160332857D01*
X144155714Y-160190000D01*
X144012857Y-160118571D01*
X143727142Y-160118571D01*
X143584285Y-160190000D01*
X143512857Y-160332857D01*
X143512857Y-160475714D01*
X144227142Y-160618571D01*
X142298571Y-161047142D02*
X142441428Y-161118571D01*
X142727142Y-161118571D01*
X142870000Y-161047142D01*
X142941428Y-160904285D01*
X142941428Y-160332857D01*
X142870000Y-160190000D01*
X142727142Y-160118571D01*
X142441428Y-160118571D01*
X142298571Y-160190000D01*
X142227142Y-160332857D01*
X142227142Y-160475714D01*
X142941428Y-160618571D01*
X141584285Y-161118571D02*
X141584285Y-159618571D01*
X140941428Y-161118571D02*
X140941428Y-160332857D01*
X141012857Y-160190000D01*
X141155714Y-160118571D01*
X141370000Y-160118571D01*
X141512857Y-160190000D01*
X141584285Y-160261428D01*
X140227142Y-161118571D02*
X140227142Y-160118571D01*
X140227142Y-159618571D02*
X140298571Y-159690000D01*
X140227142Y-159761428D01*
X140155714Y-159690000D01*
X140227142Y-159618571D01*
X140227142Y-159761428D01*
X139655714Y-160118571D02*
X139298571Y-161118571D01*
X138941428Y-160118571D01*
X137798571Y-161047142D02*
X137941428Y-161118571D01*
X138227142Y-161118571D01*
X138370000Y-161047142D01*
X138441428Y-160904285D01*
X138441428Y-160332857D01*
X138370000Y-160190000D01*
X138227142Y-160118571D01*
X137941428Y-160118571D01*
X137798571Y-160190000D01*
X137727142Y-160332857D01*
X137727142Y-160475714D01*
X138441428Y-160618571D01*
X136012857Y-161047142D02*
X135870000Y-161118571D01*
X135584285Y-161118571D01*
X135441428Y-161047142D01*
X135370000Y-160904285D01*
X135370000Y-160832857D01*
X135441428Y-160690000D01*
X135584285Y-160618571D01*
X135798571Y-160618571D01*
X135941428Y-160547142D01*
X136012857Y-160404285D01*
X136012857Y-160332857D01*
X135941428Y-160190000D01*
X135798571Y-160118571D01*
X135584285Y-160118571D01*
X135441428Y-160190000D01*
X134084285Y-161047142D02*
X134227142Y-161118571D01*
X134512857Y-161118571D01*
X134655714Y-161047142D01*
X134727142Y-160975714D01*
X134798571Y-160832857D01*
X134798571Y-160404285D01*
X134727142Y-160261428D01*
X134655714Y-160190000D01*
X134512857Y-160118571D01*
X134227142Y-160118571D01*
X134084285Y-160190000D01*
X132798571Y-161118571D02*
X132798571Y-160332857D01*
X132870000Y-160190000D01*
X133012857Y-160118571D01*
X133298571Y-160118571D01*
X133441428Y-160190000D01*
X132798571Y-161047142D02*
X132941428Y-161118571D01*
X133298571Y-161118571D01*
X133441428Y-161047142D01*
X133512857Y-160904285D01*
X133512857Y-160761428D01*
X133441428Y-160618571D01*
X133298571Y-160547142D01*
X132941428Y-160547142D01*
X132798571Y-160475714D01*
X131870000Y-161118571D02*
X132012857Y-161047142D01*
X132084285Y-160904285D01*
X132084285Y-159618571D01*
X130727142Y-161047142D02*
X130870000Y-161118571D01*
X131155714Y-161118571D01*
X131298571Y-161047142D01*
X131370000Y-160904285D01*
X131370000Y-160332857D01*
X131298571Y-160190000D01*
X131155714Y-160118571D01*
X130870000Y-160118571D01*
X130727142Y-160190000D01*
X130655714Y-160332857D01*
X130655714Y-160475714D01*
X131370000Y-160618571D01*
X128870000Y-161118571D02*
X128870000Y-159618571D01*
X128870000Y-160190000D02*
X128727142Y-160118571D01*
X128441428Y-160118571D01*
X128298571Y-160190000D01*
X128227142Y-160261428D01*
X128155714Y-160404285D01*
X128155714Y-160832857D01*
X128227142Y-160975714D01*
X128298571Y-161047142D01*
X128441428Y-161118571D01*
X128727142Y-161118571D01*
X128870000Y-161047142D01*
X127298571Y-161118571D02*
X127441428Y-161047142D01*
X127512857Y-160975714D01*
X127584285Y-160832857D01*
X127584285Y-160404285D01*
X127512857Y-160261428D01*
X127441428Y-160190000D01*
X127298571Y-160118571D01*
X127084285Y-160118571D01*
X126941428Y-160190000D01*
X126870000Y-160261428D01*
X126798571Y-160404285D01*
X126798571Y-160832857D01*
X126870000Y-160975714D01*
X126941428Y-161047142D01*
X127084285Y-161118571D01*
X127298571Y-161118571D01*
X125512857Y-161118571D02*
X125512857Y-160332857D01*
X125584285Y-160190000D01*
X125727142Y-160118571D01*
X126012857Y-160118571D01*
X126155714Y-160190000D01*
X125512857Y-161047142D02*
X125655714Y-161118571D01*
X126012857Y-161118571D01*
X126155714Y-161047142D01*
X126227142Y-160904285D01*
X126227142Y-160761428D01*
X126155714Y-160618571D01*
X126012857Y-160547142D01*
X125655714Y-160547142D01*
X125512857Y-160475714D01*
X124798571Y-161118571D02*
X124798571Y-160118571D01*
X124798571Y-160404285D02*
X124727142Y-160261428D01*
X124655714Y-160190000D01*
X124512857Y-160118571D01*
X124370000Y-160118571D01*
X123227142Y-161118571D02*
X123227142Y-159618571D01*
X123227142Y-161047142D02*
X123370000Y-161118571D01*
X123655714Y-161118571D01*
X123798571Y-161047142D01*
X123870000Y-160975714D01*
X123941428Y-160832857D01*
X123941428Y-160404285D01*
X123870000Y-160261428D01*
X123798571Y-160190000D01*
X123655714Y-160118571D01*
X123370000Y-160118571D01*
X123227142Y-160190000D01*
X121584285Y-159618571D02*
X121084285Y-161118571D01*
X120584285Y-159618571D01*
X119798571Y-159618571D02*
X119655714Y-159618571D01*
X119512857Y-159690000D01*
X119441428Y-159761428D01*
X119370000Y-159904285D01*
X119298571Y-160190000D01*
X119298571Y-160547142D01*
X119370000Y-160832857D01*
X119441428Y-160975714D01*
X119512857Y-161047142D01*
X119655714Y-161118571D01*
X119798571Y-161118571D01*
X119941428Y-161047142D01*
X120012857Y-160975714D01*
X120084285Y-160832857D01*
X120155714Y-160547142D01*
X120155714Y-160190000D01*
X120084285Y-159904285D01*
X120012857Y-159761428D01*
X119941428Y-159690000D01*
X119798571Y-159618571D01*
X118655714Y-160975714D02*
X118584285Y-161047142D01*
X118655714Y-161118571D01*
X118727142Y-161047142D01*
X118655714Y-160975714D01*
X118655714Y-161118571D01*
X117155714Y-161118571D02*
X118012857Y-161118571D01*
X117584285Y-161118571D02*
X117584285Y-159618571D01*
X117727142Y-159832857D01*
X117870000Y-159975714D01*
X118012857Y-160047142D01*
X115370000Y-161118571D02*
X115370000Y-159618571D01*
X115370000Y-160190000D02*
X115227142Y-160118571D01*
X114941428Y-160118571D01*
X114798571Y-160190000D01*
X114727142Y-160261428D01*
X114655714Y-160404285D01*
X114655714Y-160832857D01*
X114727142Y-160975714D01*
X114798571Y-161047142D01*
X114941428Y-161118571D01*
X115227142Y-161118571D01*
X115370000Y-161047142D01*
X114155714Y-160118571D02*
X113798571Y-161118571D01*
X113441428Y-160118571D02*
X113798571Y-161118571D01*
X113941428Y-161475714D01*
X114012857Y-161547142D01*
X114155714Y-161618571D01*
X110870000Y-161118571D02*
X111370000Y-160404285D01*
X111727142Y-161118571D02*
X111727142Y-159618571D01*
X111155714Y-159618571D01*
X111012857Y-159690000D01*
X110941428Y-159761428D01*
X110870000Y-159904285D01*
X110870000Y-160118571D01*
X110941428Y-160261428D01*
X111012857Y-160332857D01*
X111155714Y-160404285D01*
X111727142Y-160404285D01*
X109584285Y-161118571D02*
X109584285Y-160332857D01*
X109655714Y-160190000D01*
X109798571Y-160118571D01*
X110084285Y-160118571D01*
X110227142Y-160190000D01*
X109584285Y-161047142D02*
X109727142Y-161118571D01*
X110084285Y-161118571D01*
X110227142Y-161047142D01*
X110298571Y-160904285D01*
X110298571Y-160761428D01*
X110227142Y-160618571D01*
X110084285Y-160547142D01*
X109727142Y-160547142D01*
X109584285Y-160475714D01*
X109084285Y-160118571D02*
X108512857Y-160118571D01*
X108870000Y-159618571D02*
X108870000Y-160904285D01*
X108798571Y-161047142D01*
X108655714Y-161118571D01*
X108512857Y-161118571D01*
X107370000Y-161118571D02*
X107370000Y-160332857D01*
X107441428Y-160190000D01*
X107584285Y-160118571D01*
X107870000Y-160118571D01*
X108012857Y-160190000D01*
X107370000Y-161047142D02*
X107512857Y-161118571D01*
X107870000Y-161118571D01*
X108012857Y-161047142D01*
X108084285Y-160904285D01*
X108084285Y-160761428D01*
X108012857Y-160618571D01*
X107870000Y-160547142D01*
X107512857Y-160547142D01*
X107370000Y-160475714D01*
X106655714Y-161118571D02*
X106655714Y-160118571D01*
X106655714Y-160261428D02*
X106584285Y-160190000D01*
X106441428Y-160118571D01*
X106227142Y-160118571D01*
X106084285Y-160190000D01*
X106012857Y-160332857D01*
X106012857Y-161118571D01*
X106012857Y-160332857D02*
X105941428Y-160190000D01*
X105798571Y-160118571D01*
X105584285Y-160118571D01*
X105441428Y-160190000D01*
X105370000Y-160332857D01*
X105370000Y-161118571D01*
X104012857Y-160118571D02*
X104012857Y-161118571D01*
X104655714Y-160118571D02*
X104655714Y-160904285D01*
X104584285Y-161047142D01*
X104441428Y-161118571D01*
X104227142Y-161118571D01*
X104084285Y-161047142D01*
X104012857Y-160975714D01*
X103370000Y-161047142D02*
X103227142Y-161118571D01*
X102941428Y-161118571D01*
X102798571Y-161047142D01*
X102727142Y-160904285D01*
X102727142Y-160832857D01*
X102798571Y-160690000D01*
X102941428Y-160618571D01*
X103155714Y-160618571D01*
X103298571Y-160547142D01*
X103370000Y-160404285D01*
X103370000Y-160332857D01*
X103298571Y-160190000D01*
X103155714Y-160118571D01*
X102941428Y-160118571D01*
X102798571Y-160190000D01*
X101512857Y-161047142D02*
X101655714Y-161118571D01*
X101941428Y-161118571D01*
X102084285Y-161047142D01*
X102155714Y-160904285D01*
X102155714Y-160332857D01*
X102084285Y-160190000D01*
X101941428Y-160118571D01*
X101655714Y-160118571D01*
X101512857Y-160190000D01*
X101441428Y-160332857D01*
X101441428Y-160475714D01*
X102155714Y-160618571D01*
D11*
X148571428Y-132514285D02*
X148571428Y-133276190D01*
X148952380Y-132895238D02*
X148190476Y-132895238D01*
X147952380Y-134228571D02*
X147952380Y-133752380D01*
X148428571Y-133704761D01*
X148380952Y-133752380D01*
X148333333Y-133847619D01*
X148333333Y-134085714D01*
X148380952Y-134180952D01*
X148428571Y-134228571D01*
X148523809Y-134276190D01*
X148761904Y-134276190D01*
X148857142Y-134228571D01*
X148904761Y-134180952D01*
X148952380Y-134085714D01*
X148952380Y-133847619D01*
X148904761Y-133752380D01*
X148857142Y-133704761D01*
X147952380Y-134561904D02*
X148952380Y-134895238D01*
X147952380Y-135228571D01*
X148571428Y-124128095D02*
X148571428Y-124890000D01*
X148952380Y-124509047D02*
X148190476Y-124509047D01*
X147952380Y-125270952D02*
X147952380Y-125890000D01*
X148333333Y-125556666D01*
X148333333Y-125699523D01*
X148380952Y-125794761D01*
X148428571Y-125842380D01*
X148523809Y-125890000D01*
X148761904Y-125890000D01*
X148857142Y-125842380D01*
X148904761Y-125794761D01*
X148952380Y-125699523D01*
X148952380Y-125413809D01*
X148904761Y-125318571D01*
X148857142Y-125270952D01*
X147952380Y-126175714D02*
X148952380Y-126509047D01*
X147952380Y-126842380D01*
X147952380Y-127080476D02*
X147952380Y-127699523D01*
X148333333Y-127366190D01*
X148333333Y-127509047D01*
X148380952Y-127604285D01*
X148428571Y-127651904D01*
X148523809Y-127699523D01*
X148761904Y-127699523D01*
X148857142Y-127651904D01*
X148904761Y-127604285D01*
X148952380Y-127509047D01*
X148952380Y-127223333D01*
X148904761Y-127128095D01*
X148857142Y-127080476D01*
D12*
X147530000Y-128770000D02*
X147530000Y-131570000D01*
X148830000Y-128120000D02*
X148230000Y-128120000D01*
X149530000Y-131570000D02*
X149530000Y-128770000D01*
X148230000Y-132220000D02*
X148830000Y-132220000D01*
X148830000Y-132220000D02*
G75*
G03*
X149530000Y-131520000I0J700000D01*
G01*
X149530000Y-128820000D02*
G75*
G03*
X148830000Y-128120000I-699999J1D01*
G01*
X147530000Y-131520000D02*
G75*
G03*
X148230000Y-132220000I700000J0D01*
G01*
X148230000Y-128120000D02*
G75*
G03*
X147530000Y-128820000I-1J-699999D01*
G01*
X138455000Y-85995000D02*
X138455000Y-71985000D01*
X134465000Y-69725000D02*
X133955000Y-70075000D01*
X124485000Y-74685000D02*
X124485000Y-72885000D01*
X127585000Y-70075000D02*
X133955000Y-70075000D01*
X125515000Y-69725000D02*
X125315000Y-69925000D01*
X136975000Y-69925000D02*
X137235000Y-69925000D01*
X127585000Y-70075000D02*
X127585000Y-69925000D01*
X124485000Y-85995000D02*
X124485000Y-82385000D01*
X136775000Y-69725000D02*
X136975000Y-69925000D01*
X125515000Y-69725000D02*
X127375000Y-69725000D01*
X136775000Y-69725000D02*
X134465000Y-69725000D01*
X136535000Y-85995000D02*
X138455000Y-85995000D01*
X124935000Y-85995000D02*
X124485000Y-85995000D01*
X127375000Y-69725000D02*
X127585000Y-69925000D01*
X124485000Y-80685000D02*
X124485000Y-75985000D01*
G36*
X117777655Y-129666677D02*
G01*
X118126395Y-129684019D01*
X118444014Y-129708680D01*
X118703283Y-129739654D01*
X118876974Y-129775936D01*
X118943831Y-129799287D01*
X119187571Y-129934203D01*
X119344088Y-130109696D01*
X119407514Y-130310095D01*
X119371977Y-130519724D01*
X119231610Y-130722910D01*
X119189110Y-130764434D01*
X119081028Y-130846806D01*
X118966771Y-130873364D01*
X118794165Y-130860520D01*
X118722018Y-130851683D01*
X118333520Y-130808425D01*
X118025915Y-130785377D01*
X117773092Y-130783300D01*
X117548941Y-130802958D01*
X117327352Y-130845113D01*
X117082215Y-130910529D01*
X116761452Y-131015307D01*
X116327557Y-131210013D01*
X115952935Y-131457299D01*
X115606184Y-131775570D01*
X115337097Y-132111607D01*
X115070684Y-132579089D01*
X114859024Y-133109901D01*
X114709235Y-133681702D01*
X114628435Y-134272152D01*
X114623742Y-134858910D01*
X114668729Y-135331925D01*
X114747241Y-135741771D01*
X114866515Y-136104155D01*
X115034770Y-136450915D01*
X115303819Y-136855082D01*
X115692168Y-137278868D01*
X116175263Y-137673904D01*
X116755841Y-138041713D01*
X117436641Y-138383816D01*
X118220399Y-138701736D01*
X119109853Y-138996993D01*
X120107741Y-139271110D01*
X120405892Y-139346606D01*
X121068753Y-139521253D01*
X121659443Y-139688370D01*
X122205679Y-139856332D01*
X122735182Y-140033514D01*
X123275671Y-140228292D01*
X124242267Y-140587563D01*
X124545671Y-140423365D01*
X125129557Y-140161107D01*
X125815907Y-139969936D01*
X126548650Y-139879201D01*
X126625781Y-139874939D01*
X126913268Y-139854190D01*
X127108546Y-139829150D01*
X127228571Y-139796977D01*
X127290297Y-139754825D01*
X127341800Y-139636063D01*
X127356266Y-139417170D01*
X127318560Y-139136282D01*
X127229981Y-138813674D01*
X127099110Y-138425708D01*
X126990092Y-138580426D01*
X126957148Y-138626885D01*
X126793054Y-138843824D01*
X126658974Y-138985911D01*
X126533069Y-139073090D01*
X126393502Y-139125304D01*
X126224228Y-139153927D01*
X125975228Y-139122059D01*
X125781416Y-138998772D01*
X125655775Y-138794141D01*
X125611286Y-138518241D01*
X125627257Y-138397186D01*
X125709654Y-138203373D01*
X125839322Y-138046613D01*
X125990324Y-137964776D01*
X126125154Y-137936113D01*
X126314243Y-137889608D01*
X126423525Y-137847468D01*
X126473824Y-137800173D01*
X126485964Y-137738204D01*
X126484353Y-137712823D01*
X126459641Y-137665839D01*
X126387850Y-137634641D01*
X126247075Y-137612445D01*
X126015409Y-137592466D01*
X125749245Y-137564008D01*
X125509055Y-137506657D01*
X125352300Y-137415479D01*
X125263319Y-137280537D01*
X125226449Y-137091895D01*
X125224745Y-137064910D01*
X125248806Y-136779999D01*
X125352915Y-136568122D01*
X125534319Y-136435151D01*
X125640480Y-136395618D01*
X125835879Y-136363682D01*
X126026010Y-136405683D01*
X126251095Y-136526761D01*
X126256368Y-136530104D01*
X126424318Y-136634119D01*
X126519141Y-136683557D01*
X126561142Y-136686254D01*
X126570630Y-136650044D01*
X126556960Y-136627253D01*
X126470488Y-136557707D01*
X126330741Y-136472325D01*
X126248086Y-136425856D01*
X126039992Y-136290065D01*
X125899816Y-136156236D01*
X125797856Y-135997926D01*
X125770811Y-135935334D01*
X125743269Y-135712584D01*
X125801194Y-135492084D01*
X125928324Y-135301028D01*
X126108401Y-135166609D01*
X126325165Y-135116022D01*
X126342066Y-135116345D01*
X126533908Y-135149225D01*
X126698782Y-135219506D01*
X126749795Y-135256325D01*
X126930627Y-135434190D01*
X127079627Y-135647246D01*
X127163484Y-135850280D01*
X127165723Y-135860137D01*
X127214515Y-135967102D01*
X127297684Y-135980430D01*
X127300272Y-135979729D01*
X127360279Y-135937135D01*
X127392575Y-135834775D01*
X127405665Y-135646342D01*
X127417692Y-135442880D01*
X127481876Y-135104716D01*
X127602094Y-134859219D01*
X127781551Y-134701094D01*
X128023451Y-134625046D01*
X128207736Y-134624171D01*
X128452881Y-134705285D01*
X128649610Y-134870089D01*
X128780517Y-135102147D01*
X128828197Y-135385022D01*
X128827428Y-135433259D01*
X128805179Y-135579648D01*
X128737016Y-135711011D01*
X128602630Y-135871112D01*
X128504885Y-135982770D01*
X128412524Y-136103528D01*
X128376852Y-136172684D01*
X128376895Y-136174296D01*
X128411066Y-136256687D01*
X128489806Y-136372912D01*
X128558545Y-136452731D01*
X128625665Y-136487443D01*
X128726660Y-136480435D01*
X128899028Y-136437638D01*
X128954024Y-136423655D01*
X129302781Y-136366913D01*
X129606699Y-136372512D01*
X129841091Y-136440379D01*
X129867932Y-136455510D01*
X130017708Y-136605971D01*
X130100310Y-136812987D01*
X130117081Y-137047654D01*
X130069365Y-137281068D01*
X129958505Y-137484325D01*
X129785847Y-137628522D01*
X129782214Y-137630369D01*
X129600457Y-137682383D01*
X129364382Y-137700974D01*
X129126246Y-137685678D01*
X128938307Y-137636033D01*
X128935063Y-137634605D01*
X128872674Y-137639710D01*
X128807670Y-137720994D01*
X128726640Y-137894858D01*
X128677811Y-138022326D01*
X128624733Y-138193177D01*
X128605137Y-138305852D01*
X128609047Y-138328572D01*
X128660054Y-138447607D01*
X128757506Y-138618647D01*
X128885407Y-138812761D01*
X128985892Y-138956408D01*
X129201971Y-139273723D01*
X129361212Y-139525653D01*
X129472424Y-139729460D01*
X129544417Y-139902407D01*
X129585999Y-140061755D01*
X129605980Y-140224768D01*
X129610107Y-140461287D01*
X129564219Y-140771196D01*
X129449379Y-141050549D01*
X129257226Y-141309831D01*
X128979402Y-141559529D01*
X128607547Y-141810129D01*
X128133302Y-142072117D01*
X128078944Y-142099913D01*
X127815440Y-142231646D01*
X127580249Y-142344593D01*
X127397244Y-142427509D01*
X127290297Y-142469153D01*
X127183006Y-142514783D01*
X127135075Y-142567768D01*
X127135229Y-142572244D01*
X127184174Y-142676686D01*
X127301659Y-142811556D01*
X127460052Y-142952171D01*
X127631718Y-143073847D01*
X127789025Y-143151900D01*
X127886086Y-143182637D01*
X128003665Y-143205694D01*
X128131662Y-143205194D01*
X128303186Y-143180171D01*
X128551346Y-143129658D01*
X128664350Y-143104905D01*
X128879778Y-143054107D01*
X129041577Y-143011058D01*
X129121242Y-142983092D01*
X129148310Y-142971891D01*
X129272096Y-142936852D01*
X129464431Y-142891172D01*
X129696912Y-142841823D01*
X130060777Y-142784108D01*
X130652305Y-142762216D01*
X131198673Y-142836472D01*
X131693502Y-143005756D01*
X132130413Y-143268948D01*
X132265482Y-143363066D01*
X132377794Y-143422157D01*
X132428255Y-143422555D01*
X132431966Y-143345811D01*
X132412722Y-143172330D01*
X132372164Y-142931308D01*
X132315097Y-142645247D01*
X132246327Y-142336646D01*
X132170659Y-142028007D01*
X132092896Y-141741832D01*
X132017845Y-141500621D01*
X131817866Y-140914703D01*
X131956784Y-140677658D01*
X132015222Y-140591977D01*
X132176657Y-140431775D01*
X132410325Y-140276430D01*
X132729239Y-140117967D01*
X133146408Y-139948410D01*
X133237307Y-139914038D01*
X133436526Y-139835299D01*
X133564943Y-139770643D01*
X133648232Y-139700610D01*
X133712071Y-139605737D01*
X133782134Y-139466565D01*
X133903564Y-139217259D01*
X133736653Y-139027157D01*
X133672513Y-138946436D01*
X133593630Y-138790519D01*
X133561380Y-138598149D01*
X133566875Y-138332983D01*
X133572558Y-138288203D01*
X133655695Y-138127580D01*
X133829103Y-138028294D01*
X134086690Y-137994317D01*
X134257590Y-138003623D01*
X134390634Y-138047196D01*
X134502502Y-138142302D01*
X134583548Y-138256084D01*
X134659377Y-138431598D01*
X134693262Y-138602005D01*
X134672671Y-138724432D01*
X134655379Y-138757850D01*
X134674457Y-138781909D01*
X134778680Y-138750278D01*
X134822540Y-138725103D01*
X134868278Y-138651500D01*
X134878957Y-138555215D01*
X134932064Y-138363426D01*
X135011672Y-138176139D01*
X135097406Y-138047096D01*
X135158810Y-137999090D01*
X135299120Y-137951706D01*
X135515773Y-137937872D01*
X135694062Y-137949797D01*
X135859397Y-138012888D01*
X135963821Y-138148166D01*
X136030764Y-138375543D01*
X136049682Y-138454520D01*
X136092676Y-138523183D01*
X136183327Y-138555188D01*
X136354238Y-138570148D01*
X136432117Y-138575600D01*
X136582239Y-138602101D01*
X136681636Y-138664069D01*
X136775574Y-138784539D01*
X136829411Y-138871559D01*
X136882262Y-139025809D01*
X136873402Y-139207872D01*
X136871444Y-139220126D01*
X136815091Y-139454478D01*
X136724667Y-139597267D01*
X136578735Y-139668366D01*
X136355857Y-139687650D01*
X136191231Y-139689981D01*
X136093441Y-139704632D01*
X136062502Y-139742544D01*
X136074165Y-139814650D01*
X136095040Y-139900750D01*
X136108971Y-139983983D01*
X136111388Y-139990340D01*
X136179821Y-140015940D01*
X136312878Y-140026317D01*
X136447681Y-140036588D01*
X136714208Y-140123074D01*
X136929274Y-140282900D01*
X137073005Y-140498331D01*
X137125530Y-140751628D01*
X137122540Y-140808242D01*
X137069261Y-140966595D01*
X136933830Y-141132628D01*
X136876593Y-141188059D01*
X136757925Y-141276897D01*
X136628085Y-141315883D01*
X136436473Y-141324539D01*
X136391537Y-141323829D01*
X136131545Y-141278725D01*
X135947307Y-141157573D01*
X135825458Y-140952230D01*
X135770512Y-140867103D01*
X135646260Y-140819157D01*
X135492302Y-140869657D01*
X135478438Y-140879360D01*
X135442695Y-140934229D01*
X135443040Y-141034658D01*
X135478191Y-141211765D01*
X135511471Y-141373843D01*
X135541139Y-141687926D01*
X135502454Y-141920993D01*
X135393271Y-142080790D01*
X135211444Y-142175063D01*
X135180854Y-142183529D01*
X134991100Y-142203813D01*
X134785793Y-142155616D01*
X134597094Y-142066462D01*
X134445775Y-141918227D01*
X134363586Y-141705895D01*
X134338797Y-141409895D01*
X134338797Y-141042524D01*
X134208269Y-141165148D01*
X134174051Y-141200192D01*
X134105718Y-141308325D01*
X134079431Y-141442965D01*
X134097684Y-141618581D01*
X134162972Y-141849642D01*
X134277789Y-142150616D01*
X134444630Y-142535973D01*
X134523401Y-142712469D01*
X134637721Y-142971221D01*
X134729061Y-143181246D01*
X134789601Y-143324488D01*
X134811519Y-143382893D01*
X134812380Y-143390001D01*
X134855604Y-143481282D01*
X134954262Y-143637982D01*
X135094721Y-143840918D01*
X135263344Y-144070904D01*
X135446498Y-144308756D01*
X135630546Y-144535289D01*
X135753831Y-144680291D01*
X136026421Y-144984060D01*
X136249229Y-145206064D01*
X136417983Y-145342244D01*
X136528411Y-145388539D01*
X136552815Y-145380094D01*
X136651622Y-145309932D01*
X136795044Y-145184086D01*
X136961134Y-145021189D01*
X137024945Y-144956552D01*
X137294332Y-144715930D01*
X137549093Y-144554574D01*
X137820978Y-144455862D01*
X138141741Y-144403172D01*
X138438374Y-144391173D01*
X138990799Y-144447711D01*
X139585515Y-144600149D01*
X140216184Y-144845850D01*
X140876469Y-145182179D01*
X141560034Y-145606501D01*
X142260539Y-146116179D01*
X142575871Y-146373618D01*
X142936472Y-146695346D01*
X143269794Y-147020993D01*
X143559400Y-147333593D01*
X143788854Y-147616176D01*
X143941719Y-147851773D01*
X143993269Y-147951627D01*
X144063979Y-148112185D01*
X144103639Y-148263577D01*
X144121009Y-148446455D01*
X144124852Y-148701468D01*
X144124835Y-148721775D01*
X144118914Y-148982301D01*
X144097368Y-149172275D01*
X144052940Y-149331193D01*
X143978370Y-149498548D01*
X143915967Y-149614237D01*
X143811194Y-149755944D01*
X143668980Y-149877572D01*
X143456259Y-150011614D01*
X143238726Y-150133691D01*
X142473236Y-150492358D01*
X141689364Y-150754839D01*
X140907519Y-150913910D01*
X140678643Y-150942830D01*
X139817425Y-151010046D01*
X139028609Y-151002247D01*
X138316355Y-150919629D01*
X137684821Y-150762387D01*
X137477165Y-150690175D01*
X137062269Y-150512105D01*
X136735544Y-150310158D01*
X136479677Y-150069480D01*
X136277354Y-149775219D01*
X136111262Y-149412523D01*
X136050735Y-149263331D01*
X135905788Y-148979693D01*
X135763535Y-148805745D01*
X135674139Y-148733905D01*
X135560674Y-148674285D01*
X135455888Y-148690033D01*
X135315005Y-148778420D01*
X135260652Y-148821641D01*
X135164348Y-148920194D01*
X135051393Y-149064394D01*
X134912359Y-149267562D01*
X134737817Y-149543022D01*
X134518338Y-149904094D01*
X134502297Y-149930802D01*
X134349535Y-150184049D01*
X134190833Y-150445573D01*
X134058100Y-150662774D01*
X133957448Y-150851328D01*
X133881174Y-151053710D01*
X133844625Y-151228611D01*
X133847199Y-151360177D01*
X133888295Y-151432554D01*
X133967312Y-151429888D01*
X134083648Y-151336325D01*
X134096976Y-151322315D01*
X134337944Y-151138298D01*
X134604306Y-151044084D01*
X134872299Y-151044118D01*
X135118158Y-151142844D01*
X135247719Y-151246350D01*
X135389222Y-151452738D01*
X135423929Y-151685322D01*
X135348869Y-151933914D01*
X135251562Y-152089063D01*
X135090561Y-152232067D01*
X134873858Y-152308541D01*
X134576732Y-152331206D01*
X134516898Y-152331315D01*
X134333446Y-152336441D01*
X134227313Y-152356054D01*
X134169946Y-152399466D01*
X134132789Y-152475991D01*
X134108841Y-152541489D01*
X134088769Y-152639842D01*
X134125549Y-152697315D01*
X134237734Y-152730638D01*
X134443873Y-152756541D01*
X134494659Y-152762822D01*
X134814526Y-152846558D01*
X135070706Y-152990743D01*
X135253414Y-153181726D01*
X135352863Y-153405855D01*
X135359267Y-153649479D01*
X135262838Y-153898946D01*
X135111940Y-154074168D01*
X134897039Y-154175757D01*
X134638069Y-154175427D01*
X134338853Y-154072458D01*
X134155159Y-153955812D01*
X133966843Y-153733791D01*
X133931545Y-153676168D01*
X133838650Y-153561944D01*
X133763685Y-153516539D01*
X133702492Y-153530372D01*
X133694344Y-153598175D01*
X133779051Y-153724080D01*
X133957480Y-153909847D01*
X134032039Y-153985939D01*
X134210505Y-154241103D01*
X134277748Y-154497305D01*
X134235002Y-154758317D01*
X134228994Y-154774284D01*
X134102858Y-154991846D01*
X133921181Y-155114764D01*
X133669080Y-155153428D01*
X133522646Y-155148589D01*
X133329768Y-155108602D01*
X133187868Y-155011938D01*
X133059448Y-154839273D01*
X133011796Y-154754305D01*
X132958845Y-154583060D01*
X132961861Y-154372892D01*
X132966144Y-154328161D01*
X132966203Y-154061763D01*
X132910817Y-153886401D01*
X132797835Y-153794490D01*
X132682515Y-153784406D01*
X132573663Y-153868400D01*
X132493781Y-154058275D01*
X132441648Y-154355953D01*
X132390451Y-154648371D01*
X132290971Y-154888438D01*
X132130873Y-155067002D01*
X131894273Y-155208814D01*
X131853882Y-155227529D01*
X131690833Y-155290132D01*
X131562669Y-155302338D01*
X131417780Y-155270866D01*
X131276989Y-155207296D01*
X131100147Y-155069845D01*
X130966823Y-154903042D01*
X130908647Y-154739875D01*
X130906149Y-154689928D01*
X130911236Y-154468482D01*
X130937505Y-154264846D01*
X130979494Y-154126327D01*
X130983137Y-154120151D01*
X131059834Y-154034227D01*
X131197486Y-153909277D01*
X131368990Y-153770091D01*
X131402653Y-153744092D01*
X131562838Y-153613704D01*
X131649896Y-153521153D01*
X131680682Y-153443513D01*
X131672052Y-153357858D01*
X131632538Y-153232312D01*
X131545538Y-153117383D01*
X131400118Y-153064487D01*
X131171406Y-153058762D01*
X130938096Y-153051629D01*
X130637070Y-152994365D01*
X130374520Y-152892897D01*
X130186555Y-152758244D01*
X130173995Y-152743956D01*
X130084160Y-152587709D01*
X130031527Y-152405291D01*
X130037640Y-152136097D01*
X130130939Y-151894041D01*
X130296176Y-151707534D01*
X130515406Y-151586266D01*
X130770681Y-151539931D01*
X131044055Y-151578218D01*
X131317581Y-151710819D01*
X131565964Y-151880654D01*
X131778694Y-151640263D01*
X131991425Y-151399872D01*
X131976250Y-150827710D01*
X131973041Y-150701734D01*
X131970755Y-150481843D01*
X131980190Y-150333866D01*
X132007112Y-150229329D01*
X132057292Y-150139755D01*
X132136496Y-150036670D01*
X132246449Y-149889981D01*
X132339057Y-149720288D01*
X132350899Y-149594140D01*
X132286428Y-149495459D01*
X132255124Y-149470939D01*
X132196226Y-149445514D01*
X132106906Y-149435586D01*
X131966831Y-149441263D01*
X131755665Y-149462653D01*
X131453075Y-149499862D01*
X131030643Y-149544475D01*
X130498386Y-149578194D01*
X129972893Y-149589151D01*
X129480139Y-149577472D01*
X129046104Y-149543280D01*
X128696763Y-149486699D01*
X128601254Y-149462304D01*
X128315884Y-149369739D01*
X128000095Y-149246102D01*
X127701843Y-149109571D01*
X127654730Y-149085637D01*
X127345646Y-148908031D01*
X127057732Y-148700632D01*
X126779651Y-148451287D01*
X126500063Y-148147846D01*
X126207631Y-147778156D01*
X125891016Y-147330066D01*
X125538879Y-146791423D01*
X125446880Y-146647280D01*
X125170587Y-146223936D01*
X124944252Y-145894311D01*
X124764649Y-145654285D01*
X124628554Y-145499737D01*
X124532745Y-145426548D01*
X124473995Y-145430596D01*
X124441182Y-145498965D01*
X124388787Y-145653558D01*
X124325296Y-145867329D01*
X124258078Y-146114247D01*
X124194503Y-146368279D01*
X124141944Y-146603391D01*
X124118520Y-146689407D01*
X124049578Y-146884830D01*
X123952458Y-147126232D01*
X123840233Y-147379963D01*
X123745624Y-147575741D01*
X123455638Y-148094501D01*
X123137987Y-148558313D01*
X122801871Y-148958088D01*
X122456488Y-149284737D01*
X122111036Y-149529172D01*
X121774713Y-149682302D01*
X121456720Y-149735040D01*
X121380345Y-149733219D01*
X121205444Y-149707954D01*
X121051037Y-149641865D01*
X120897580Y-149520900D01*
X120725529Y-149331003D01*
X120515338Y-149058122D01*
X120355613Y-148840435D01*
X120211515Y-148641076D01*
X120103504Y-148488410D01*
X120047265Y-148404348D01*
X120015072Y-148360030D01*
X120001099Y-148386220D01*
X120011255Y-148511721D01*
X120016968Y-148624527D01*
X119966806Y-148885267D01*
X119835578Y-149094152D01*
X119638035Y-149232894D01*
X119388929Y-149283206D01*
X119267845Y-149274473D01*
X119124099Y-149218983D01*
X118973208Y-149091294D01*
X118937934Y-149055356D01*
X118836611Y-148928776D01*
X118791550Y-148797941D01*
X118781297Y-148608931D01*
X118805478Y-148366105D01*
X118922611Y-148053021D01*
X118968570Y-147960465D01*
X119015949Y-147825613D01*
X119002339Y-147767034D01*
X118972248Y-147761031D01*
X118908450Y-147790665D01*
X118849645Y-147897179D01*
X118784440Y-148097872D01*
X118667030Y-148396115D01*
X118505582Y-148602194D01*
X118293332Y-148721463D01*
X118064465Y-148760576D01*
X117827051Y-148713443D01*
X117637925Y-148577495D01*
X117512873Y-148364852D01*
X117467681Y-148087631D01*
X117467705Y-148081210D01*
X117517148Y-147826676D01*
X117663479Y-147626291D01*
X117910045Y-147475424D01*
X118031976Y-147417814D01*
X118138228Y-147338579D01*
X118140721Y-147266570D01*
X118043734Y-147192735D01*
X118033456Y-147187398D01*
X117918292Y-147162590D01*
X117789734Y-147220273D01*
X117694935Y-147297323D01*
X117652408Y-147363946D01*
X117650282Y-147377955D01*
X117581306Y-147451652D01*
X117439175Y-147519989D01*
X117256745Y-147570289D01*
X117066875Y-147589872D01*
X117034565Y-147589481D01*
X116821997Y-147554595D01*
X116648147Y-147449978D01*
X116523947Y-147304352D01*
X116442445Y-147079955D01*
X116446609Y-146841869D01*
X116534681Y-146621073D01*
X116704906Y-146448545D01*
X116810553Y-146387543D01*
X116987214Y-146327530D01*
X117190907Y-146316390D01*
X117446636Y-146353921D01*
X117779408Y-146439924D01*
X117782618Y-146440835D01*
X117857268Y-146432685D01*
X117878186Y-146336235D01*
X117875603Y-146293851D01*
X117819752Y-146129145D01*
X117712486Y-146003190D01*
X117582362Y-145952983D01*
X117410662Y-145918820D01*
X117197629Y-145820181D01*
X117000624Y-145682899D01*
X116864314Y-145533094D01*
X116780059Y-145337862D01*
X116744558Y-145073692D01*
X116781335Y-144817654D01*
X116889303Y-144609924D01*
X117020092Y-144495447D01*
X117256607Y-144391222D01*
X117511297Y-144369832D01*
X117631171Y-144397041D01*
X117857419Y-144513124D01*
X118055933Y-144688057D01*
X118185999Y-144890423D01*
X118253028Y-145031066D01*
X118382513Y-145212730D01*
X118523386Y-145330893D01*
X118658606Y-145377037D01*
X118771129Y-145342647D01*
X118843912Y-145219206D01*
X118863994Y-145096233D01*
X118880262Y-144900438D01*
X118888559Y-144677219D01*
X118888950Y-144655403D01*
X118923250Y-144325966D01*
X119013581Y-144087394D01*
X119165834Y-143929808D01*
X119385901Y-143843328D01*
X119403353Y-143839737D01*
X119727309Y-143819661D01*
X120008649Y-143901338D01*
X120260175Y-144088358D01*
X120274780Y-144103054D01*
X120400690Y-144248289D01*
X120459866Y-144377384D01*
X120474630Y-144537045D01*
X120445992Y-144792748D01*
X120332490Y-145071358D01*
X120141153Y-145280739D01*
X120111407Y-145303648D01*
X120008288Y-145401143D01*
X119966630Y-145472512D01*
X119998058Y-145514414D01*
X120103749Y-145606945D01*
X120261871Y-145730372D01*
X120449412Y-145868246D01*
X120643361Y-146004116D01*
X120820707Y-146121533D01*
X120958438Y-146204046D01*
X121033544Y-146235206D01*
X121038323Y-146235042D01*
X121063354Y-146223568D01*
X121085050Y-146182233D01*
X121106752Y-146094590D01*
X121131797Y-145944193D01*
X121163527Y-145714594D01*
X121205279Y-145389346D01*
X121226914Y-145249429D01*
X121294077Y-144926119D01*
X121389080Y-144546380D01*
X121503258Y-144141828D01*
X121627950Y-143744083D01*
X121754492Y-143384761D01*
X121839838Y-143158983D01*
X121562024Y-142903392D01*
X121472370Y-142827943D01*
X121348586Y-142740126D01*
X121188245Y-142641673D01*
X120981776Y-142527688D01*
X120719603Y-142393275D01*
X120392153Y-142233537D01*
X119989854Y-142043579D01*
X119503130Y-141818504D01*
X118922408Y-141553415D01*
X118895953Y-141541337D01*
X118701371Y-141450826D01*
X118441700Y-141328176D01*
X118147658Y-141187957D01*
X117849964Y-141044739D01*
X117817793Y-141029206D01*
X117503151Y-140879031D01*
X117182144Y-140728501D01*
X116890671Y-140594319D01*
X116664630Y-140493189D01*
X116247778Y-140279473D01*
X115819115Y-139990629D01*
X115373784Y-139619948D01*
X114897509Y-139156631D01*
X114391366Y-138580231D01*
X113904608Y-137881140D01*
X113514135Y-137132964D01*
X113212741Y-136323583D01*
X113174611Y-136196644D01*
X113128773Y-136024770D01*
X113096668Y-135861199D01*
X113075781Y-135681695D01*
X113063601Y-135462019D01*
X113057613Y-135177935D01*
X113055306Y-134805206D01*
X113055149Y-134746057D01*
X113056182Y-134376362D01*
X113062498Y-134091659D01*
X113076180Y-133867468D01*
X113099312Y-133679313D01*
X113133975Y-133502716D01*
X113182253Y-133313200D01*
X113309211Y-132909787D01*
X113586723Y-132257802D01*
X113930320Y-131667759D01*
X113943414Y-131648658D01*
X114134328Y-131396027D01*
X114371456Y-131117206D01*
X114632248Y-130835669D01*
X114894152Y-130574894D01*
X115134616Y-130358358D01*
X115331089Y-130209537D01*
X115417559Y-130157460D01*
X115696957Y-130015353D01*
X116019203Y-129877997D01*
X116338284Y-129764035D01*
X116608186Y-129692111D01*
X116616045Y-129690629D01*
X116816988Y-129668631D01*
X117095723Y-129657978D01*
X117425021Y-129657662D01*
X117777655Y-129666677D01*
G37*
D13*
X117777655Y-129666677D02*
X118126395Y-129684019D01*
X118444014Y-129708680D01*
X118703283Y-129739654D01*
X118876974Y-129775936D01*
X118943831Y-129799287D01*
X119187571Y-129934203D01*
X119344088Y-130109696D01*
X119407514Y-130310095D01*
X119371977Y-130519724D01*
X119231610Y-130722910D01*
X119189110Y-130764434D01*
X119081028Y-130846806D01*
X118966771Y-130873364D01*
X118794165Y-130860520D01*
X118722018Y-130851683D01*
X118333520Y-130808425D01*
X118025915Y-130785377D01*
X117773092Y-130783300D01*
X117548941Y-130802958D01*
X117327352Y-130845113D01*
X117082215Y-130910529D01*
X116761452Y-131015307D01*
X116327557Y-131210013D01*
X115952935Y-131457299D01*
X115606184Y-131775570D01*
X115337097Y-132111607D01*
X115070684Y-132579089D01*
X114859024Y-133109901D01*
X114709235Y-133681702D01*
X114628435Y-134272152D01*
X114623742Y-134858910D01*
X114668729Y-135331925D01*
X114747241Y-135741771D01*
X114866515Y-136104155D01*
X115034770Y-136450915D01*
X115303819Y-136855082D01*
X115692168Y-137278868D01*
X116175263Y-137673904D01*
X116755841Y-138041713D01*
X117436641Y-138383816D01*
X118220399Y-138701736D01*
X119109853Y-138996993D01*
X120107741Y-139271110D01*
X120405892Y-139346606D01*
X121068753Y-139521253D01*
X121659443Y-139688370D01*
X122205679Y-139856332D01*
X122735182Y-140033514D01*
X123275671Y-140228292D01*
X124242267Y-140587563D01*
X124545671Y-140423365D01*
X125129557Y-140161107D01*
X125815907Y-139969936D01*
X126548650Y-139879201D01*
X126625781Y-139874939D01*
X126913268Y-139854190D01*
X127108546Y-139829150D01*
X127228571Y-139796977D01*
X127290297Y-139754825D01*
X127341800Y-139636063D01*
X127356266Y-139417170D01*
X127318560Y-139136282D01*
X127229981Y-138813674D01*
X127099110Y-138425708D01*
X126990092Y-138580426D01*
X126957148Y-138626885D01*
X126793054Y-138843824D01*
X126658974Y-138985911D01*
X126533069Y-139073090D01*
X126393502Y-139125304D01*
X126224228Y-139153927D01*
X125975228Y-139122059D01*
X125781416Y-138998772D01*
X125655775Y-138794141D01*
X125611286Y-138518241D01*
X125627257Y-138397186D01*
X125709654Y-138203373D01*
X125839322Y-138046613D01*
X125990324Y-137964776D01*
X126125154Y-137936113D01*
X126314243Y-137889608D01*
X126423525Y-137847468D01*
X126473824Y-137800173D01*
X126485964Y-137738204D01*
X126484353Y-137712823D01*
X126459641Y-137665839D01*
X126387850Y-137634641D01*
X126247075Y-137612445D01*
X126015409Y-137592466D01*
X125749245Y-137564008D01*
X125509055Y-137506657D01*
X125352300Y-137415479D01*
X125263319Y-137280537D01*
X125226449Y-137091895D01*
X125224745Y-137064910D01*
X125248806Y-136779999D01*
X125352915Y-136568122D01*
X125534319Y-136435151D01*
X125640480Y-136395618D01*
X125835879Y-136363682D01*
X126026010Y-136405683D01*
X126251095Y-136526761D01*
X126256368Y-136530104D01*
X126424318Y-136634119D01*
X126519141Y-136683557D01*
X126561142Y-136686254D01*
X126570630Y-136650044D01*
X126556960Y-136627253D01*
X126470488Y-136557707D01*
X126330741Y-136472325D01*
X126248086Y-136425856D01*
X126039992Y-136290065D01*
X125899816Y-136156236D01*
X125797856Y-135997926D01*
X125770811Y-135935334D01*
X125743269Y-135712584D01*
X125801194Y-135492084D01*
X125928324Y-135301028D01*
X126108401Y-135166609D01*
X126325165Y-135116022D01*
X126342066Y-135116345D01*
X126533908Y-135149225D01*
X126698782Y-135219506D01*
X126749795Y-135256325D01*
X126930627Y-135434190D01*
X127079627Y-135647246D01*
X127163484Y-135850280D01*
X127165723Y-135860137D01*
X127214515Y-135967102D01*
X127297684Y-135980430D01*
X127300272Y-135979729D01*
X127360279Y-135937135D01*
X127392575Y-135834775D01*
X127405665Y-135646342D01*
X127417692Y-135442880D01*
X127481876Y-135104716D01*
X127602094Y-134859219D01*
X127781551Y-134701094D01*
X128023451Y-134625046D01*
X128207736Y-134624171D01*
X128452881Y-134705285D01*
X128649610Y-134870089D01*
X128780517Y-135102147D01*
X128828197Y-135385022D01*
X128827428Y-135433259D01*
X128805179Y-135579648D01*
X128737016Y-135711011D01*
X128602630Y-135871112D01*
X128504885Y-135982770D01*
X128412524Y-136103528D01*
X128376852Y-136172684D01*
X128376895Y-136174296D01*
X128411066Y-136256687D01*
X128489806Y-136372912D01*
X128558545Y-136452731D01*
X128625665Y-136487443D01*
X128726660Y-136480435D01*
X128899028Y-136437638D01*
X128954024Y-136423655D01*
X129302781Y-136366913D01*
X129606699Y-136372512D01*
X129841091Y-136440379D01*
X129867932Y-136455510D01*
X130017708Y-136605971D01*
X130100310Y-136812987D01*
X130117081Y-137047654D01*
X130069365Y-137281068D01*
X129958505Y-137484325D01*
X129785847Y-137628522D01*
X129782214Y-137630369D01*
X129600457Y-137682383D01*
X129364382Y-137700974D01*
X129126246Y-137685678D01*
X128938307Y-137636033D01*
X128935063Y-137634605D01*
X128872674Y-137639710D01*
X128807670Y-137720994D01*
X128726640Y-137894858D01*
X128677811Y-138022326D01*
X128624733Y-138193177D01*
X128605137Y-138305852D01*
X128609047Y-138328572D01*
X128660054Y-138447607D01*
X128757506Y-138618647D01*
X128885407Y-138812761D01*
X128985892Y-138956408D01*
X129201971Y-139273723D01*
X129361212Y-139525653D01*
X129472424Y-139729460D01*
X129544417Y-139902407D01*
X129585999Y-140061755D01*
X129605980Y-140224768D01*
X129610107Y-140461287D01*
X129564219Y-140771196D01*
X129449379Y-141050549D01*
X129257226Y-141309831D01*
X128979402Y-141559529D01*
X128607547Y-141810129D01*
X128133302Y-142072117D01*
X128078944Y-142099913D01*
X127815440Y-142231646D01*
X127580249Y-142344593D01*
X127397244Y-142427509D01*
X127290297Y-142469153D01*
X127183006Y-142514783D01*
X127135075Y-142567768D01*
X127135229Y-142572244D01*
X127184174Y-142676686D01*
X127301659Y-142811556D01*
X127460052Y-142952171D01*
X127631718Y-143073847D01*
X127789025Y-143151900D01*
X127886086Y-143182637D01*
X128003665Y-143205694D01*
X128131662Y-143205194D01*
X128303186Y-143180171D01*
X128551346Y-143129658D01*
X128664350Y-143104905D01*
X128879778Y-143054107D01*
X129041577Y-143011058D01*
X129121242Y-142983092D01*
X129148310Y-142971891D01*
X129272096Y-142936852D01*
X129464431Y-142891172D01*
X129696912Y-142841823D01*
X130060777Y-142784108D01*
X130652305Y-142762216D01*
X131198673Y-142836472D01*
X131693502Y-143005756D01*
X132130413Y-143268948D01*
X132265482Y-143363066D01*
X132377794Y-143422157D01*
X132428255Y-143422555D01*
X132431966Y-143345811D01*
X132412722Y-143172330D01*
X132372164Y-142931308D01*
X132315097Y-142645247D01*
X132246327Y-142336646D01*
X132170659Y-142028007D01*
X132092896Y-141741832D01*
X132017845Y-141500621D01*
X131817866Y-140914703D01*
X131956784Y-140677658D01*
X132015222Y-140591977D01*
X132176657Y-140431775D01*
X132410325Y-140276430D01*
X132729239Y-140117967D01*
X133146408Y-139948410D01*
X133237307Y-139914038D01*
X133436526Y-139835299D01*
X133564943Y-139770643D01*
X133648232Y-139700610D01*
X133712071Y-139605737D01*
X133782134Y-139466565D01*
X133903564Y-139217259D01*
X133736653Y-139027157D01*
X133672513Y-138946436D01*
X133593630Y-138790519D01*
X133561380Y-138598149D01*
X133566875Y-138332983D01*
X133572558Y-138288203D01*
X133655695Y-138127580D01*
X133829103Y-138028294D01*
X134086690Y-137994317D01*
X134257590Y-138003623D01*
X134390634Y-138047196D01*
X134502502Y-138142302D01*
X134583548Y-138256084D01*
X134659377Y-138431598D01*
X134693262Y-138602005D01*
X134672671Y-138724432D01*
X134655379Y-138757850D01*
X134674457Y-138781909D01*
X134778680Y-138750278D01*
X134822540Y-138725103D01*
X134868278Y-138651500D01*
X134878957Y-138555215D01*
X134932064Y-138363426D01*
X135011672Y-138176139D01*
X135097406Y-138047096D01*
X135158810Y-137999090D01*
X135299120Y-137951706D01*
X135515773Y-137937872D01*
X135694062Y-137949797D01*
X135859397Y-138012888D01*
X135963821Y-138148166D01*
X136030764Y-138375543D01*
X136049682Y-138454520D01*
X136092676Y-138523183D01*
X136183327Y-138555188D01*
X136354238Y-138570148D01*
X136432117Y-138575600D01*
X136582239Y-138602101D01*
X136681636Y-138664069D01*
X136775574Y-138784539D01*
X136829411Y-138871559D01*
X136882262Y-139025809D01*
X136873402Y-139207872D01*
X136871444Y-139220126D01*
X136815091Y-139454478D01*
X136724667Y-139597267D01*
X136578735Y-139668366D01*
X136355857Y-139687650D01*
X136191231Y-139689981D01*
X136093441Y-139704632D01*
X136062502Y-139742544D01*
X136074165Y-139814650D01*
X136095040Y-139900750D01*
X136108971Y-139983983D01*
X136111388Y-139990340D01*
X136179821Y-140015940D01*
X136312878Y-140026317D01*
X136447681Y-140036588D01*
X136714208Y-140123074D01*
X136929274Y-140282900D01*
X137073005Y-140498331D01*
X137125530Y-140751628D01*
X137122540Y-140808242D01*
X137069261Y-140966595D01*
X136933830Y-141132628D01*
X136876593Y-141188059D01*
X136757925Y-141276897D01*
X136628085Y-141315883D01*
X136436473Y-141324539D01*
X136391537Y-141323829D01*
X136131545Y-141278725D01*
X135947307Y-141157573D01*
X135825458Y-140952230D01*
X135770512Y-140867103D01*
X135646260Y-140819157D01*
X135492302Y-140869657D01*
X135478438Y-140879360D01*
X135442695Y-140934229D01*
X135443040Y-141034658D01*
X135478191Y-141211765D01*
X135511471Y-141373843D01*
X135541139Y-141687926D01*
X135502454Y-141920993D01*
X135393271Y-142080790D01*
X135211444Y-142175063D01*
X135180854Y-142183529D01*
X134991100Y-142203813D01*
X134785793Y-142155616D01*
X134597094Y-142066462D01*
X134445775Y-141918227D01*
X134363586Y-141705895D01*
X134338797Y-141409895D01*
X134338797Y-141042524D01*
X134208269Y-141165148D01*
X134174051Y-141200192D01*
X134105718Y-141308325D01*
X134079431Y-141442965D01*
X134097684Y-141618581D01*
X134162972Y-141849642D01*
X134277789Y-142150616D01*
X134444630Y-142535973D01*
X134523401Y-142712469D01*
X134637721Y-142971221D01*
X134729061Y-143181246D01*
X134789601Y-143324488D01*
X134811519Y-143382893D01*
X134812380Y-143390001D01*
X134855604Y-143481282D01*
X134954262Y-143637982D01*
X135094721Y-143840918D01*
X135263344Y-144070904D01*
X135446498Y-144308756D01*
X135630546Y-144535289D01*
X135753831Y-144680291D01*
X136026421Y-144984060D01*
X136249229Y-145206064D01*
X136417983Y-145342244D01*
X136528411Y-145388539D01*
X136552815Y-145380094D01*
X136651622Y-145309932D01*
X136795044Y-145184086D01*
X136961134Y-145021189D01*
X137024945Y-144956552D01*
X137294332Y-144715930D01*
X137549093Y-144554574D01*
X137820978Y-144455862D01*
X138141741Y-144403172D01*
X138438374Y-144391173D01*
X138990799Y-144447711D01*
X139585515Y-144600149D01*
X140216184Y-144845850D01*
X140876469Y-145182179D01*
X141560034Y-145606501D01*
X142260539Y-146116179D01*
X142575871Y-146373618D01*
X142936472Y-146695346D01*
X143269794Y-147020993D01*
X143559400Y-147333593D01*
X143788854Y-147616176D01*
X143941719Y-147851773D01*
X143993269Y-147951627D01*
X144063979Y-148112185D01*
X144103639Y-148263577D01*
X144121009Y-148446455D01*
X144124852Y-148701468D01*
X144124835Y-148721775D01*
X144118914Y-148982301D01*
X144097368Y-149172275D01*
X144052940Y-149331193D01*
X143978370Y-149498548D01*
X143915967Y-149614237D01*
X143811194Y-149755944D01*
X143668980Y-149877572D01*
X143456259Y-150011614D01*
X143238726Y-150133691D01*
X142473236Y-150492358D01*
X141689364Y-150754839D01*
X140907519Y-150913910D01*
X140678643Y-150942830D01*
X139817425Y-151010046D01*
X139028609Y-151002247D01*
X138316355Y-150919629D01*
X137684821Y-150762387D01*
X137477165Y-150690175D01*
X137062269Y-150512105D01*
X136735544Y-150310158D01*
X136479677Y-150069480D01*
X136277354Y-149775219D01*
X136111262Y-149412523D01*
X136050735Y-149263331D01*
X135905788Y-148979693D01*
X135763535Y-148805745D01*
X135674139Y-148733905D01*
X135560674Y-148674285D01*
X135455888Y-148690033D01*
X135315005Y-148778420D01*
X135260652Y-148821641D01*
X135164348Y-148920194D01*
X135051393Y-149064394D01*
X134912359Y-149267562D01*
X134737817Y-149543022D01*
X134518338Y-149904094D01*
X134502297Y-149930802D01*
X134349535Y-150184049D01*
X134190833Y-150445573D01*
X134058100Y-150662774D01*
X133957448Y-150851328D01*
X133881174Y-151053710D01*
X133844625Y-151228611D01*
X133847199Y-151360177D01*
X133888295Y-151432554D01*
X133967312Y-151429888D01*
X134083648Y-151336325D01*
X134096976Y-151322315D01*
X134337944Y-151138298D01*
X134604306Y-151044084D01*
X134872299Y-151044118D01*
X135118158Y-151142844D01*
X135247719Y-151246350D01*
X135389222Y-151452738D01*
X135423929Y-151685322D01*
X135348869Y-151933914D01*
X135251562Y-152089063D01*
X135090561Y-152232067D01*
X134873858Y-152308541D01*
X134576732Y-152331206D01*
X134516898Y-152331315D01*
X134333446Y-152336441D01*
X134227313Y-152356054D01*
X134169946Y-152399466D01*
X134132789Y-152475991D01*
X134108841Y-152541489D01*
X134088769Y-152639842D01*
X134125549Y-152697315D01*
X134237734Y-152730638D01*
X134443873Y-152756541D01*
X134494659Y-152762822D01*
X134814526Y-152846558D01*
X135070706Y-152990743D01*
X135253414Y-153181726D01*
X135352863Y-153405855D01*
X135359267Y-153649479D01*
X135262838Y-153898946D01*
X135111940Y-154074168D01*
X134897039Y-154175757D01*
X134638069Y-154175427D01*
X134338853Y-154072458D01*
X134155159Y-153955812D01*
X133966843Y-153733791D01*
X133931545Y-153676168D01*
X133838650Y-153561944D01*
X133763685Y-153516539D01*
X133702492Y-153530372D01*
X133694344Y-153598175D01*
X133779051Y-153724080D01*
X133957480Y-153909847D01*
X134032039Y-153985939D01*
X134210505Y-154241103D01*
X134277748Y-154497305D01*
X134235002Y-154758317D01*
X134228994Y-154774284D01*
X134102858Y-154991846D01*
X133921181Y-155114764D01*
X133669080Y-155153428D01*
X133522646Y-155148589D01*
X133329768Y-155108602D01*
X133187868Y-155011938D01*
X133059448Y-154839273D01*
X133011796Y-154754305D01*
X132958845Y-154583060D01*
X132961861Y-154372892D01*
X132966144Y-154328161D01*
X132966203Y-154061763D01*
X132910817Y-153886401D01*
X132797835Y-153794490D01*
X132682515Y-153784406D01*
X132573663Y-153868400D01*
X132493781Y-154058275D01*
X132441648Y-154355953D01*
X132390451Y-154648371D01*
X132290971Y-154888438D01*
X132130873Y-155067002D01*
X131894273Y-155208814D01*
X131853882Y-155227529D01*
X131690833Y-155290132D01*
X131562669Y-155302338D01*
X131417780Y-155270866D01*
X131276989Y-155207296D01*
X131100147Y-155069845D01*
X130966823Y-154903042D01*
X130908647Y-154739875D01*
X130906149Y-154689928D01*
X130911236Y-154468482D01*
X130937505Y-154264846D01*
X130979494Y-154126327D01*
X130983137Y-154120151D01*
X131059834Y-154034227D01*
X131197486Y-153909277D01*
X131368990Y-153770091D01*
X131402653Y-153744092D01*
X131562838Y-153613704D01*
X131649896Y-153521153D01*
X131680682Y-153443513D01*
X131672052Y-153357858D01*
X131632538Y-153232312D01*
X131545538Y-153117383D01*
X131400118Y-153064487D01*
X131171406Y-153058762D01*
X130938096Y-153051629D01*
X130637070Y-152994365D01*
X130374520Y-152892897D01*
X130186555Y-152758244D01*
X130173995Y-152743956D01*
X130084160Y-152587709D01*
X130031527Y-152405291D01*
X130037640Y-152136097D01*
X130130939Y-151894041D01*
X130296176Y-151707534D01*
X130515406Y-151586266D01*
X130770681Y-151539931D01*
X131044055Y-151578218D01*
X131317581Y-151710819D01*
X131565964Y-151880654D01*
X131778694Y-151640263D01*
X131991425Y-151399872D01*
X131976250Y-150827710D01*
X131973041Y-150701734D01*
X131970755Y-150481843D01*
X131980190Y-150333866D01*
X132007112Y-150229329D01*
X132057292Y-150139755D01*
X132136496Y-150036670D01*
X132246449Y-149889981D01*
X132339057Y-149720288D01*
X132350899Y-149594140D01*
X132286428Y-149495459D01*
X132255124Y-149470939D01*
X132196226Y-149445514D01*
X132106906Y-149435586D01*
X131966831Y-149441263D01*
X131755665Y-149462653D01*
X131453075Y-149499862D01*
X131030643Y-149544475D01*
X130498386Y-149578194D01*
X129972893Y-149589151D01*
X129480139Y-149577472D01*
X129046104Y-149543280D01*
X128696763Y-149486699D01*
X128601254Y-149462304D01*
X128315884Y-149369739D01*
X128000095Y-149246102D01*
X127701843Y-149109571D01*
X127654730Y-149085637D01*
X127345646Y-148908031D01*
X127057732Y-148700632D01*
X126779651Y-148451287D01*
X126500063Y-148147846D01*
X126207631Y-147778156D01*
X125891016Y-147330066D01*
X125538879Y-146791423D01*
X125446880Y-146647280D01*
X125170587Y-146223936D01*
X124944252Y-145894311D01*
X124764649Y-145654285D01*
X124628554Y-145499737D01*
X124532745Y-145426548D01*
X124473995Y-145430596D01*
X124441182Y-145498965D01*
X124388787Y-145653558D01*
X124325296Y-145867329D01*
X124258078Y-146114247D01*
X124194503Y-146368279D01*
X124141944Y-146603391D01*
X124118520Y-146689407D01*
X124049578Y-146884830D01*
X123952458Y-147126232D01*
X123840233Y-147379963D01*
X123745624Y-147575741D01*
X123455638Y-148094501D01*
X123137987Y-148558313D01*
X122801871Y-148958088D01*
X122456488Y-149284737D01*
X122111036Y-149529172D01*
X121774713Y-149682302D01*
X121456720Y-149735040D01*
X121380345Y-149733219D01*
X121205444Y-149707954D01*
X121051037Y-149641865D01*
X120897580Y-149520900D01*
X120725529Y-149331003D01*
X120515338Y-149058122D01*
X120355613Y-148840435D01*
X120211515Y-148641076D01*
X120103504Y-148488410D01*
X120047265Y-148404348D01*
X120015072Y-148360030D01*
X120001099Y-148386220D01*
X120011255Y-148511721D01*
X120016968Y-148624527D01*
X119966806Y-148885267D01*
X119835578Y-149094152D01*
X119638035Y-149232894D01*
X119388929Y-149283206D01*
X119267845Y-149274473D01*
X119124099Y-149218983D01*
X118973208Y-149091294D01*
X118937934Y-149055356D01*
X118836611Y-148928776D01*
X118791550Y-148797941D01*
X118781297Y-148608931D01*
X118805478Y-148366105D01*
X118922611Y-148053021D01*
X118968570Y-147960465D01*
X119015949Y-147825613D01*
X119002339Y-147767034D01*
X118972248Y-147761031D01*
X118908450Y-147790665D01*
X118849645Y-147897179D01*
X118784440Y-148097872D01*
X118667030Y-148396115D01*
X118505582Y-148602194D01*
X118293332Y-148721463D01*
X118064465Y-148760576D01*
X117827051Y-148713443D01*
X117637925Y-148577495D01*
X117512873Y-148364852D01*
X117467681Y-148087631D01*
X117467705Y-148081210D01*
X117517148Y-147826676D01*
X117663479Y-147626291D01*
X117910045Y-147475424D01*
X118031976Y-147417814D01*
X118138228Y-147338579D01*
X118140721Y-147266570D01*
X118043734Y-147192735D01*
X118033456Y-147187398D01*
X117918292Y-147162590D01*
X117789734Y-147220273D01*
X117694935Y-147297323D01*
X117652408Y-147363946D01*
X117650282Y-147377955D01*
X117581306Y-147451652D01*
X117439175Y-147519989D01*
X117256745Y-147570289D01*
X117066875Y-147589872D01*
X117034565Y-147589481D01*
X116821997Y-147554595D01*
X116648147Y-147449978D01*
X116523947Y-147304352D01*
X116442445Y-147079955D01*
X116446609Y-146841869D01*
X116534681Y-146621073D01*
X116704906Y-146448545D01*
X116810553Y-146387543D01*
X116987214Y-146327530D01*
X117190907Y-146316390D01*
X117446636Y-146353921D01*
X117779408Y-146439924D01*
X117782618Y-146440835D01*
X117857268Y-146432685D01*
X117878186Y-146336235D01*
X117875603Y-146293851D01*
X117819752Y-146129145D01*
X117712486Y-146003190D01*
X117582362Y-145952983D01*
X117410662Y-145918820D01*
X117197629Y-145820181D01*
X117000624Y-145682899D01*
X116864314Y-145533094D01*
X116780059Y-145337862D01*
X116744558Y-145073692D01*
X116781335Y-144817654D01*
X116889303Y-144609924D01*
X117020092Y-144495447D01*
X117256607Y-144391222D01*
X117511297Y-144369832D01*
X117631171Y-144397041D01*
X117857419Y-144513124D01*
X118055933Y-144688057D01*
X118185999Y-144890423D01*
X118253028Y-145031066D01*
X118382513Y-145212730D01*
X118523386Y-145330893D01*
X118658606Y-145377037D01*
X118771129Y-145342647D01*
X118843912Y-145219206D01*
X118863994Y-145096233D01*
X118880262Y-144900438D01*
X118888559Y-144677219D01*
X118888950Y-144655403D01*
X118923250Y-144325966D01*
X119013581Y-144087394D01*
X119165834Y-143929808D01*
X119385901Y-143843328D01*
X119403353Y-143839737D01*
X119727309Y-143819661D01*
X120008649Y-143901338D01*
X120260175Y-144088358D01*
X120274780Y-144103054D01*
X120400690Y-144248289D01*
X120459866Y-144377384D01*
X120474630Y-144537045D01*
X120445992Y-144792748D01*
X120332490Y-145071358D01*
X120141153Y-145280739D01*
X120111407Y-145303648D01*
X120008288Y-145401143D01*
X119966630Y-145472512D01*
X119998058Y-145514414D01*
X120103749Y-145606945D01*
X120261871Y-145730372D01*
X120449412Y-145868246D01*
X120643361Y-146004116D01*
X120820707Y-146121533D01*
X120958438Y-146204046D01*
X121033544Y-146235206D01*
X121038323Y-146235042D01*
X121063354Y-146223568D01*
X121085050Y-146182233D01*
X121106752Y-146094590D01*
X121131797Y-145944193D01*
X121163527Y-145714594D01*
X121205279Y-145389346D01*
X121226914Y-145249429D01*
X121294077Y-144926119D01*
X121389080Y-144546380D01*
X121503258Y-144141828D01*
X121627950Y-143744083D01*
X121754492Y-143384761D01*
X121839838Y-143158983D01*
X121562024Y-142903392D01*
X121472370Y-142827943D01*
X121348586Y-142740126D01*
X121188245Y-142641673D01*
X120981776Y-142527688D01*
X120719603Y-142393275D01*
X120392153Y-142233537D01*
X119989854Y-142043579D01*
X119503130Y-141818504D01*
X118922408Y-141553415D01*
X118895953Y-141541337D01*
X118701371Y-141450826D01*
X118441700Y-141328176D01*
X118147658Y-141187957D01*
X117849964Y-141044739D01*
X117817793Y-141029206D01*
X117503151Y-140879031D01*
X117182144Y-140728501D01*
X116890671Y-140594319D01*
X116664630Y-140493189D01*
X116247778Y-140279473D01*
X115819115Y-139990629D01*
X115373784Y-139619948D01*
X114897509Y-139156631D01*
X114391366Y-138580231D01*
X113904608Y-137881140D01*
X113514135Y-137132964D01*
X113212741Y-136323583D01*
X113174611Y-136196644D01*
X113128773Y-136024770D01*
X113096668Y-135861199D01*
X113075781Y-135681695D01*
X113063601Y-135462019D01*
X113057613Y-135177935D01*
X113055306Y-134805206D01*
X113055149Y-134746057D01*
X113056182Y-134376362D01*
X113062498Y-134091659D01*
X113076180Y-133867468D01*
X113099312Y-133679313D01*
X113133975Y-133502716D01*
X113182253Y-133313200D01*
X113309211Y-132909787D01*
X113586723Y-132257802D01*
X113930320Y-131667759D01*
X113943414Y-131648658D01*
X114134328Y-131396027D01*
X114371456Y-131117206D01*
X114632248Y-130835669D01*
X114894152Y-130574894D01*
X115134616Y-130358358D01*
X115331089Y-130209537D01*
X115417559Y-130157460D01*
X115696957Y-130015353D01*
X116019203Y-129877997D01*
X116338284Y-129764035D01*
X116608186Y-129692111D01*
X116616045Y-129690629D01*
X116816988Y-129668631D01*
X117095723Y-129657978D01*
X117425021Y-129657662D01*
X117777655Y-129666677D01*
M02*
