M48
; DRILL file {KiCad (6.0.5)} date Fri May 13 10:55:33 2022
; FORMAT={-:-/ absolute / metric / decimal}
; #@! TF.CreationDate,2022-05-13T10:55:33+02:00
; #@! TF.GenerationSoftware,Kicad,Pcbnew,(6.0.5)
; #@! TF.FileFunction,Plated,1,2,PTH
FMAT,2
METRIC
; #@! TA.AperFunction,Plated,PTH,ViaDrill
T1C0.300
; #@! TA.AperFunction,Plated,PTH,ComponentDrill
T2C0.750
; #@! TA.AperFunction,Plated,PTH,ComponentDrill
T3C1.000
; #@! TA.AperFunction,Plated,PTH,ComponentDrill
T4C1.450
; #@! TA.AperFunction,Plated,PTH,ComponentDrill
T5C3.026
%
G90
G05
T1
X98.06Y-75.41
X98.06Y-85.41
X98.06Y-92.91
X98.06Y-102.91
X98.06Y-112.91
X98.06Y-115.41
X98.06Y-117.91
X98.06Y-120.41
X98.06Y-122.91
X98.06Y-125.41
X98.06Y-127.91
X98.06Y-130.41
X98.06Y-132.91
X98.06Y-137.91
X98.07Y-135.41
X98.07Y-140.41
X98.07Y-142.91
X98.07Y-145.41
X98.07Y-147.91
X98.07Y-150.41
X98.07Y-152.91
X98.07Y-155.41
X98.07Y-157.91
X98.07Y-160.41
X98.07Y-162.91
X100.56Y-75.41
X100.56Y-112.91
X100.56Y-115.41
X100.56Y-132.91
X100.56Y-135.41
X100.56Y-137.91
X100.67Y-164.69
X101.03Y-162.52
X101.88Y-166.57
X102.11Y-131.33
X103.06Y-70.41
X103.06Y-72.91
X103.06Y-112.91
X103.06Y-115.41
X103.06Y-117.91
X103.06Y-120.41
X103.06Y-122.91
X103.06Y-125.41
X103.06Y-127.91
X103.06Y-130.41
X103.06Y-132.91
X103.06Y-135.41
X103.06Y-137.91
X103.36Y-167.75
X104.05Y-99.435
X105.275Y-87.31
X105.56Y-70.41
X105.56Y-112.91
X105.56Y-115.41
X105.56Y-117.91
X105.56Y-120.41
X105.56Y-122.91
X105.56Y-125.41
X105.56Y-127.91
X105.56Y-130.41
X105.56Y-132.91
X105.56Y-135.41
X105.56Y-137.91
X105.86Y-167.75
X106.94Y-139.42
X107.73Y-102.29
X108.06Y-70.41
X108.06Y-112.91
X108.06Y-115.41
X108.06Y-117.91
X108.06Y-120.41
X108.06Y-122.91
X108.06Y-125.41
X108.06Y-127.91
X108.06Y-130.41
X108.06Y-132.91
X108.06Y-135.41
X108.06Y-137.91
X108.35Y-167.73
X108.8Y-99.16
X109.7Y-92.4
X110.56Y-70.41
X110.56Y-112.91
X110.56Y-115.41
X110.56Y-117.91
X110.56Y-120.41
X110.56Y-122.91
X110.56Y-125.41
X110.56Y-127.91
X110.56Y-130.41
X110.56Y-132.91
X110.56Y-135.41
X110.56Y-137.91
X110.86Y-167.75
X113.06Y-70.41
X113.06Y-112.91
X113.06Y-115.41
X113.06Y-117.91
X113.06Y-120.41
X113.06Y-122.91
X113.06Y-125.41
X113.06Y-127.91
X113.06Y-130.41
X113.06Y-132.91
X113.06Y-135.41
X113.06Y-137.91
X113.07Y-102.06
X113.36Y-167.75
X115.56Y-70.41
X115.56Y-112.91
X115.56Y-115.41
X115.56Y-132.91
X115.56Y-135.41
X115.56Y-137.91
X115.86Y-167.75
X116.18Y-161.99
X117.57Y-126.25
X118.05Y-130.1
X118.06Y-70.41
X118.06Y-112.91
X118.06Y-115.41
X118.06Y-117.91
X118.06Y-120.41
X118.06Y-122.91
X118.06Y-135.41
X118.06Y-137.91
X118.14Y-132.98
X118.36Y-167.75
X120.14Y-122.46
X120.22Y-126.46
X120.22Y-159.49
X120.56Y-70.41
X120.56Y-117.91
X120.56Y-130.12
X120.56Y-132.91
X120.56Y-137.91
X120.86Y-167.75
X121.89Y-159.12
X122.05Y-126.86
X122.14Y-122.46
X122.75Y-132.91
X122.91Y-135.95
X122.94Y-137.93
X123.06Y-70.41
X123.07Y-130.06
X123.36Y-167.75
X124.07Y-123.74
X124.12Y-132.96
X125.325Y-126.035
X125.4Y-134.285
X125.54Y-87.05
X125.753Y-83.374
X125.86Y-167.75
X126.125Y-94.285
X126.125Y-106.26
X126.4Y-125.26
X126.4Y-134.01
X126.43Y-71.59
X126.47Y-84.07
X126.95Y-108.41
X127.49Y-138.74
X128.06Y-70.41
X128.23Y-88.02
X128.36Y-167.75
X128.57Y-71.57
X128.74Y-84.72
X128.93Y-91.77
X129.06Y-160.49
X129.36Y-145.09
X130.56Y-70.41
X130.65Y-73.62
X130.65Y-91.61
X130.86Y-167.75
X130.96Y-87.0
X131.16Y-144.74
X131.94Y-112.48
X131.96Y-91.67
X132.07Y-101.71
X132.31Y-127.03
X132.32Y-73.24
X133.06Y-70.41
X133.36Y-167.75
X133.64Y-91.85
X133.767Y-120.579
X133.82Y-89.04
X134.0Y-141.26
X135.58Y-162.81
X135.61Y-95.11
X135.86Y-167.75
X136.37Y-141.19
X136.4Y-148.89
X136.51Y-158.13
X136.83Y-144.74
X136.831Y-82.54
X137.13Y-125.78
X137.18Y-73.25
X137.19Y-78.95
X138.28Y-82.57
X138.36Y-167.75
X138.54Y-145.14
X138.84Y-76.52
X139.771Y-81.419
X139.98Y-133.57
X140.21Y-140.29
X140.38Y-145.42
X140.56Y-70.41
X140.7Y-167.75
X141.26Y-123.72
X142.43Y-152.01
X143.06Y-70.41
X143.2Y-167.75
X143.33Y-152.01
X144.66Y-137.47
X145.51Y-144.1
X145.56Y-70.41
X145.7Y-167.75
X146.92Y-139.59
X147.37Y-82.73
X148.06Y-70.41
X148.2Y-167.75
X148.65Y-140.0
X149.19Y-137.26
X149.5Y-104.95
X149.61Y-94.4
X150.2Y-113.55
X150.56Y-70.41
X150.7Y-167.75
X152.53Y-164.62
X153.06Y-70.41
X153.06Y-72.91
X154.95Y-80.11
X155.56Y-82.91
X155.56Y-92.91
X155.56Y-115.41
X155.56Y-125.41
X155.56Y-135.41
X155.57Y-138.22
X155.57Y-150.72
X155.57Y-153.22
X155.57Y-155.72
X155.57Y-158.22
X155.57Y-160.72
X155.57Y-163.22
X155.67Y-144.62
X156.21Y-79.72
T2
X98.85Y-78.31
X98.85Y-80.31
X98.85Y-82.31
X98.875Y-87.035
X98.875Y-89.035
X98.875Y-91.035
X98.9Y-95.685
X98.9Y-97.685
X98.9Y-99.685
X98.9Y-104.31
X98.9Y-106.31
X98.9Y-108.31
X98.9Y-110.31
X155.07Y-95.84
X155.07Y-97.84
X155.07Y-99.84
X155.07Y-101.84
X155.08Y-85.21
X155.08Y-87.21
X155.08Y-89.21
X155.08Y-91.21
X155.13Y-106.51
X155.13Y-108.51
X155.13Y-110.51
X155.13Y-112.51
X155.14Y-117.14
X155.14Y-119.14
X155.14Y-121.14
X155.14Y-123.14
X155.14Y-127.84
X155.14Y-129.84
X155.14Y-131.84
X155.14Y-133.84
X155.225Y-140.135
X155.225Y-142.135
X155.225Y-146.785
X155.225Y-148.785
T3
X112.5Y-87.385
X120.968Y-82.28
X120.968Y-84.82
X120.968Y-87.36
X120.968Y-89.9
X120.968Y-92.44
X120.968Y-94.98
X120.968Y-97.52
X120.968Y-100.06
X120.968Y-102.6
X120.968Y-105.14
X120.968Y-107.68
X120.968Y-110.22
X120.968Y-112.76
X120.968Y-115.3
X141.287Y-82.28
X141.287Y-84.82
X141.287Y-87.36
X141.287Y-89.9
X141.287Y-92.44
X141.287Y-94.98
X141.287Y-97.52
X141.287Y-100.06
X141.287Y-102.6
X141.287Y-105.14
X141.287Y-107.68
X141.287Y-110.22
X141.287Y-112.76
X141.287Y-115.3
T4
X101.55Y-143.635
X101.55Y-148.635
T5
X112.5Y-82.585
T0
M30
